<?xml version="1.0" encoding="UTF-8"?>
<svg xmlns="http://www.w3.org/2000/svg" xmlns:xlink="http://www.w3.org/1999/xlink" version="1.2" >
<font id="CircularProTT-BookItalic">
<font-face  font-family="Circular ProTT" units-per-em="1000" ascent="809" descent="-191" font-style="normal" font-weight="450" font-stretch="normal" slope="-12" cap-height="709" x-height="481" underline-position="-155" underline-thickness="80" />
<missing-glyph  horiz-adv-x="555" d="M5 709 L550 709 L550 0 L5 0 L5 709 Z M471 79 L471 630 L84 630 L84 79 L471 79 Z " />
<glyph glyph-name="space" unicode="&#x20;" horiz-adv-x="261" d="" />
<glyph glyph-name="exclam" unicode="&#x21;" horiz-adv-x="304" d="M164 709 L284 709 L152 203 L85 203 L164 709 Z M25 53 Q25 82 45.5 104 Q66 126 97 126 Q124 126 140.5 109.5 Q157 93 157 68 Q157 37 135.5 16 Q114 -5 86 -5 Q59 -5 42 11.5 Q25 28 25 53 Z " />
<glyph glyph-name="quotedbl" unicode="&#x22;" horiz-adv-x="400" d="M90 393 L90 591 Q90 618 107 638.5 Q124 659 156 659 Q182 659 197 644 Q212 629 212 606 Q212 591 205 574 L125 393 L90 393 Z M263 393 L263 591 Q263 618 280 638.5 Q297 659 329 659 Q355 659 370 644 Q385 629 385 606 Q385 591 378 574 L298 393 L263 393 Z " />
<glyph glyph-name="numbersign" unicode="&#x23;" horiz-adv-x="718" d="M84 481 L228 481 L264 648 L348 648 L312 481 L454 481 L490 648 L574 648 L538 481 L673 481 L673 405 L522 405 L488 245 L624 245 L624 169 L471 169 L435 0 L351 0 L387 169 L245 169 L209 0 L125 0 L161 169 L35 169 L35 245 L178 245 L212 405 L84 405 L84 481 Z M262 245 L404 245 L438 405 L296 405 L262 245 Z " />
<glyph glyph-name="dollar" unicode="&#x24;" horiz-adv-x="565" d="M179 -6 Q135 4 104 26 Q73 48 53.5 76.5 Q34 105 24.5 138 Q15 171 15 203 Q15 205 15 207 Q15 209 16 216 L105 231 Q104 224 104 220.5 Q104 217 104 214 Q104 169 126 130 Q148 91 196 75 L243 293 L220 305 Q166 333 135 372 Q104 411 104 471 Q104 511 120.5 546 Q137 581 166 607 Q195 633 234.5 648 Q274 663 321 663 L343 766 L419 766 L395 653 Q434 642 460.5 622 Q487 602 503.5 577.5 Q520 553 527.5 527 Q535 501 535 479 L450 462 Q450 472 447.5 487 Q445 502 437 517.5 Q429 533 415 547.5 Q401 562 377 571 L331 350 L346 343 Q408 311 440 270 Q472 229 472 175 Q472 137 456 102.5 Q440 68 411 42 Q382 16 342 0.5 Q302 -15 253 -15 L232 -117 L156 -117 L179 -6 Z M195 482 Q195 421 259 388 L262 386 L304 582 Q256 579 225.5 551 Q195 523 195 482 Z M378 168 Q378 220 311 258 L271 68 Q320 73 348.5 99.5 Q377 126 378 168 Z " />
<glyph glyph-name="percent" unicode="&#x25;" horiz-adv-x="768" d="M208 423 Q241 423 267 447.5 Q293 472 293 514 Q293 544 274 562.5 Q255 581 223 581 Q207 581 192 574.5 Q177 568 165.5 556 Q154 544 147 527.5 Q140 511 140 492 Q140 462 158 442.5 Q176 423 208 423 Z M200 345 Q169 345 142.5 356 Q116 367 97 386 Q78 405 67.5 430.5 Q57 456 57 486 Q57 521 71 552.5 Q85 584 108.5 608 Q132 632 164 646 Q196 660 232 660 Q263 660 289 649 Q315 638 334.5 618.5 Q354 599 365 573 Q376 547 376 517 Q376 480 361 448.5 Q346 417 321 394 Q296 371 264.5 358 Q233 345 200 345 Z M549 75 Q582 75 608 99.5 Q634 124 634 166 Q634 196 615 214.5 Q596 233 564 233 Q548 233 533 226.5 Q518 220 506.5 208 Q495 196 488 179.5 Q481 163 481 144 Q481 114 499 94.5 Q517 75 549 75 Z M541 -3 Q510 -3 483.5 8 Q457 19 438 38 Q419 57 408.5 82.5 Q398 108 398 138 Q398 173 412 204.5 Q426 236 449.5 260 Q473 284 505 298 Q537 312 573 312 Q604 312 630 301 Q656 290 675.5 270.5 Q695 251 706 225 Q717 199 717 169 Q717 132 702 100.5 Q687 69 662 46 Q637 23 605.5 10 Q574 -3 541 -3 Z M128 0 L31 0 L637 648 L732 648 L128 0 Z " />
<glyph glyph-name="ampersand" unicode="&#x26;" horiz-adv-x="680" d="M475 0 L413 88 L404 80 Q357 39 310.5 16 Q264 -7 203 -7 Q160 -7 125 7 Q90 21 65 45 Q40 69 26.5 101 Q13 133 13 169 Q13 209 26 241 Q39 273 61.5 299 Q84 325 114.5 346 Q145 367 180 386 L198 396 L184 415 Q167 439 150.5 471 Q134 503 134 544 Q134 590 151 623.5 Q168 657 196 679.5 Q224 702 258.5 713 Q293 724 328 724 Q369 724 401 711.5 Q433 699 455 678 Q477 657 488.5 629 Q500 601 500 569 Q500 534 487.5 507 Q475 480 455 459 Q435 438 410.5 421.5 Q386 405 362 392 L328 373 L435 219 L642 398 L613 262 L484 150 L589 0 L475 0 Z M113 175 Q113 129 143 105.5 Q173 82 214 82 Q252 82 289.5 103.5 Q327 125 359 153 L364 157 L245 327 L200 302 Q154 276 133.5 248 Q113 220 113 175 Z M318 460 Q369 487 386 513.5 Q403 540 403 569 Q403 602 380 621 Q357 640 323 640 Q309 640 293 635 Q277 630 263.5 619 Q250 608 240.5 590.5 Q231 573 231 548 Q231 527 239 507.5 Q247 488 257 474 L281 440 L318 460 Z " />
<glyph glyph-name="quotesingle" unicode="&#x27;" horiz-adv-x="217" d="M90 393 L90 591 Q90 618 107 638.5 Q124 659 156 659 Q182 659 197 644 Q212 629 212 606 Q212 591 205 574 L125 393 L90 393 Z " />
<glyph glyph-name="parenleft" unicode="&#x28;" horiz-adv-x="285" d="M37 201 Q37 287 56.5 370 Q76 453 114 528.5 Q152 604 208.5 669.5 Q265 735 340 787 L385 726 Q329 685 280.5 632 Q232 579 196 514 Q160 449 139.5 372 Q119 295 119 206 Q119 118 142.5 40.5 Q166 -37 208 -109 L141 -146 Q96 -77 66.5 9.5 Q37 96 37 201 Z " />
<glyph glyph-name="parenright" unicode="&#x29;" horiz-adv-x="285" d="M248 432 Q248 344 228 262 Q208 180 169.5 105.5 Q131 31 74.5 -33.5 Q18 -98 -55 -151 L-100 -91 Q-44 -50 4.5 3 Q53 56 89 120.5 Q125 185 145.5 262.5 Q166 340 166 430 Q166 517 143 595 Q120 673 78 745 L144 782 Q190 710 219 621.5 Q248 533 248 432 Z " />
<glyph glyph-name="asterisk" unicode="&#x2a;" horiz-adv-x="433" d="M299 575 L429 617 L438 545 L306 502 L368 399 L303 353 L240 462 L139 354 L83 400 L186 506 L70 547 L105 617 L219 574 L240 709 L325 709 L299 575 Z " />
<glyph glyph-name="plus" unicode="&#x2b;" horiz-adv-x="567" d="M316 51 L234 51 L234 248 L47 248 L47 327 L234 327 L234 522 L316 522 L316 327 L504 327 L504 248 L316 248 L316 51 Z " />
<glyph glyph-name="comma" unicode="&#x2c;" horiz-adv-x="282" d="M11 55 Q11 87 34 109 Q57 131 91 131 Q123 131 145 110 Q167 89 167 49 Q167 10 152 -26.5 Q137 -63 111 -92 Q85 -121 48.5 -139.5 Q12 -158 -30 -160 L-19 -106 Q2 -102 21 -92.5 Q40 -83 55 -69 Q70 -55 81 -37.5 Q92 -20 96 -2 Q88 -6 73 -6 Q47 -6 29 10 Q11 26 11 55 Z " />
<glyph glyph-name="hyphen" unicode="&#x2d;" horiz-adv-x="358" d="M20 246 L37 328 L308 328 L291 246 L20 246 Z " />
<glyph glyph-name="period" unicode="&#x2e;" horiz-adv-x="262" d="M70 -5 Q41 -5 23 13 Q5 31 5 56 Q5 72 11 86 Q17 100 27.5 110.5 Q38 121 52.5 127.5 Q67 134 83 134 Q112 134 129.5 116 Q147 98 147 72 Q147 39 124 17 Q101 -5 70 -5 Z " />
<glyph glyph-name="slash" unicode="&#x2f;" horiz-adv-x="459" d="M21 -15 L-75 -15 L442 724 L539 724 L21 -15 Z " />
<glyph glyph-name="zero" unicode="0" horiz-adv-x="604" d="M127 239 Q127 166 158.5 120 Q190 74 261 74 Q316 74 354.5 109.5 Q393 145 417 197 Q441 249 451.5 308 Q462 367 462 415 Q462 487 432 530.5 Q402 574 328 574 Q272 574 233.5 539.5 Q195 505 171.5 454 Q148 403 137.5 344.5 Q127 286 127 239 Z M254 -15 Q194 -15 151.5 6 Q109 27 82 62.5 Q55 98 42.5 144 Q30 190 30 240 Q30 311 48.5 386 Q67 461 104.5 522.5 Q142 584 199.5 623.5 Q257 663 335 663 Q397 663 439.5 642 Q482 621 508.5 586 Q535 551 547 506 Q559 461 559 412 Q559 336 539.5 260 Q520 184 481.5 123 Q443 62 386 23.5 Q329 -15 254 -15 Z " />
<glyph glyph-name="one" unicode="1" horiz-adv-x="341" d="M77 0 L177 468 L35 468 L48 531 Q108 536 155 566.5 Q202 597 225 648 L311 648 L174 0 L77 0 Z " />
<glyph glyph-name="two" unicode="2" horiz-adv-x="539" d="M-30 0 Q-20 91 31 163.5 Q82 236 179 282 L300 340 Q358 368 388.5 400 Q419 432 419 478 Q419 497 413 515.5 Q407 534 393.5 548 Q380 562 359 570.5 Q338 579 309 579 Q246 579 207 537.5 Q168 496 168 421 L168 413 L73 421 L73 428 Q73 476 89.5 518.5 Q106 561 136.5 593 Q167 625 211.5 644 Q256 663 313 663 Q365 663 404 649 Q443 635 468 611.5 Q493 588 505.5 556 Q518 524 518 488 Q518 408 473 354.5 Q428 301 352 265 L208 197 Q179 183 148 157 Q117 131 102 91 L456 91 L437 0 L-30 0 Z " />
<glyph glyph-name="three" unicode="3" horiz-adv-x="541" d="M178 403 L409 559 L93 559 L111 648 L548 648 L525 535 L307 389 Q338 386 366 373 Q394 360 416 338 Q438 316 451 285 Q464 254 464 215 Q464 170 447 128.5 Q430 87 398 55 Q366 23 321 4 Q276 -15 219 -15 Q164 -15 122.5 2 Q81 19 53 47.5 Q25 76 10.5 112 Q-4 148 -4 186 Q-4 193 -4 200 Q-4 207 -2 215 L94 226 Q92 219 92 212.5 Q92 206 92 199 Q92 175 99.5 152 Q107 129 123 111 Q139 93 162 82 Q185 71 217 71 Q248 71 275 81 Q302 91 321.5 109 Q341 127 352 152 Q363 177 363 208 Q363 238 352.5 258.5 Q342 279 325 291.5 Q308 304 287 310 Q266 316 246 316 Q238 316 229 315 Q220 314 215 312 L178 403 Z " />
<glyph glyph-name="four" unicode="4" horiz-adv-x="588" d="M19 262 L390 648 L517 648 L427 237 L548 237 L529 146 L408 146 L380 0 L285 0 L313 146 L-5 146 L19 262 Z M399 542 L107 237 L332 237 L399 542 Z " />
<glyph glyph-name="five" unicode="5" horiz-adv-x="535" d="M-5 191 Q-5 193 -5 196 Q-5 199 -4 201 L91 219 Q90 214 90 210.5 Q90 207 90 203 Q90 178 97 154.5 Q104 131 119.5 112.5 Q135 94 159 82.5 Q183 71 217 71 Q245 71 271 80.5 Q297 90 317 109 Q337 128 349 156 Q361 184 361 220 Q361 274 329 305.5 Q297 337 242 337 Q207 337 182 327.5 Q157 318 137 301 L49 357 L188 648 L535 648 L516 558 L239 558 L161 396 Q183 409 207 414.5 Q231 420 261 420 Q304 420 341 407.5 Q378 395 404.5 370.5 Q431 346 446 311 Q461 276 461 231 Q461 180 443 135.5 Q425 91 392 57.5 Q359 24 314 4.5 Q269 -15 215 -15 Q165 -15 124.5 0 Q84 15 55.5 42.5 Q27 70 11 108 Q-5 146 -5 191 Z " />
<glyph glyph-name="six" unicode="6" horiz-adv-x="559" d="M526 554 Q473 578 411 578 Q309 578 241 521.5 Q173 465 147 371 Q170 395 208.5 412 Q247 429 299 429 Q346 429 383.5 415 Q421 401 447.5 376 Q474 351 488 316 Q502 281 502 238 Q502 178 480.5 131 Q459 84 423 51.5 Q387 19 340.5 2 Q294 -15 245 -15 Q201 -15 161.5 0.5 Q122 16 91.5 46.5 Q61 77 43 122 Q25 167 25 226 Q25 311 51 389.5 Q77 468 126.5 529 Q176 590 247.5 626.5 Q319 663 409 663 Q450 663 491.5 656 Q533 649 562 631 L526 554 Z M275 345 Q243 345 216 334 Q189 323 169 303.5 Q149 284 138 256.5 Q127 229 127 197 Q127 169 136.5 146 Q146 123 163 106.5 Q180 90 203 80.5 Q226 71 253 71 Q281 71 307.5 81 Q334 91 355 110.5 Q376 130 388.5 158.5 Q401 187 401 224 Q401 280 367.5 312.5 Q334 345 275 345 Z " />
<glyph glyph-name="seven" unicode="7" horiz-adv-x="483" d="M518 554 Q492 536 442 496 Q392 456 334.5 389 Q277 322 221 226 Q165 130 127 0 L25 0 Q44 74 70.5 137.5 Q97 201 128 254 Q159 307 191.5 350 Q224 393 256 427 Q330 506 411 558 L46 558 L65 648 L538 648 L518 554 Z " />
<glyph glyph-name="eight" unicode="8" horiz-adv-x="556" d="M289 370 Q317 370 342 378.5 Q367 387 385 402.5 Q403 418 413.5 440 Q424 462 424 489 Q424 527 397 555 Q370 583 319 583 Q253 583 216.5 549.5 Q180 516 180 463 Q180 426 208.5 398 Q237 370 289 370 Z M104 167 Q104 120 138.5 93 Q173 66 230 66 Q260 66 286 74.5 Q312 83 331.5 99 Q351 115 362.5 137.5 Q374 160 374 188 Q374 231 344 261 Q314 291 252 291 Q220 291 193 282.5 Q166 274 146.5 257.5 Q127 241 115.5 218 Q104 195 104 167 Z M472 187 Q472 140 453 103 Q434 66 400 39.5 Q366 13 320.5 -1 Q275 -15 222 -15 Q167 -15 126 -1 Q85 13 58 37 Q31 61 18 93 Q5 125 5 160 Q5 222 46.5 270 Q88 318 166 335 Q150 341 135.5 354 Q121 367 109.5 384.5 Q98 402 91 422 Q84 442 84 463 Q84 509 102.5 546 Q121 583 153 609 Q185 635 227.5 649 Q270 663 318 663 Q367 663 405 650 Q443 637 469 615 Q495 593 508 563.5 Q521 534 521 501 Q521 440 483 393 Q445 346 375 328 Q422 312 447 273.5 Q472 235 472 187 Z " />
<glyph glyph-name="nine" unicode="9" horiz-adv-x="560" d="M147 429 Q147 374 180.5 341 Q214 308 271 308 Q303 308 329.5 319 Q356 330 374.5 349.5 Q393 369 403.5 395.5 Q414 422 414 454 Q414 482 404.5 505 Q395 528 378.5 544 Q362 560 339.5 568.5 Q317 577 292 577 Q265 577 239 567.5 Q213 558 192.5 539.5 Q172 521 159.5 493 Q147 465 147 429 Z M20 114 Q52 91 88.5 82 Q125 73 160 73 Q211 73 253.5 89.5 Q296 106 327.5 135.5 Q359 165 378.5 205.5 Q398 246 403 295 Q383 266 345.5 245 Q308 224 248 224 Q207 224 171 237.5 Q135 251 107 276 Q79 301 63 337.5 Q47 374 47 419 Q47 476 68 521.5 Q89 567 124.5 598.5 Q160 630 205.5 646.5 Q251 663 300 663 Q346 663 386 648.5 Q426 634 456 604.5 Q486 575 503 530 Q520 485 520 423 Q520 330 497 250 Q474 170 429 111 Q384 52 316.5 18.5 Q249 -15 160 -15 Q112 -15 62 -2 Q12 11 -20 38 L20 114 Z " />
<glyph glyph-name="colon" unicode="&#x3a;" horiz-adv-x="290" d="M75 -5 Q46 -5 28 13 Q10 31 10 56 Q10 72 16 86 Q22 100 32.5 110.5 Q43 121 57.5 127.5 Q72 134 88 134 Q117 134 134.5 116 Q152 98 152 72 Q152 39 129 17 Q106 -5 75 -5 Z M153 347 Q124 347 106 365 Q88 383 88 408 Q88 424 94 438 Q100 452 110.5 462.5 Q121 473 135.5 479.5 Q150 486 166 486 Q195 486 212.5 468 Q230 450 230 424 Q230 391 207 369 Q184 347 153 347 Z " />
<glyph glyph-name="semicolon" unicode="&#x3b;" horiz-adv-x="290" d="M3.56024 54.8012 Q3.56024 85.5219 25.6407 106.642 Q47.7213 127.763 80.362 127.763 Q111.083 127.763 132.203 107.602 Q153.324 87.442 153.324 49.0411 Q153.324 11.6002 138.923 -23.4406 Q124.523 -58.4814 99.5624 -86.322 Q74.6019 -114.163 39.5611 -131.923 Q4.52026 -149.683 -35.8007 -151.604 L-25.2404 -99.7623 Q-5.07996 -95.9222 13.1605 -86.802 Q31.4009 -77.6818 45.8012 -64.2415 Q60.2015 -50.8012 70.7618 -34.0008 Q81.322 -17.2004 85.1621 0.0799561 Q77.4819 -3.76013 63.0816 -3.76013 Q38.121 -3.76013 20.8406 11.6002 Q3.56024 26.9606 3.56024 54.8012 Z M153 347 Q124 347 106 365 Q88 383 88 408 Q88 424 94 438 Q100 452 110.5 462.5 Q121 473 135.5 479.5 Q150 486 166 486 Q195 486 212.5 468 Q230 450 230 424 Q230 391 207 369 Q184 347 153 347 Z " />
<glyph glyph-name="less" unicode="&#x3c;" horiz-adv-x="492" d="M25 329 L437 535 L437 440 L127 287 L437 134 L437 39 L25 244 L25 329 Z " />
<glyph glyph-name="equal" unicode="&#x3d;" horiz-adv-x="618" d="M65 423 L528 423 L528 346 L65 346 L65 423 Z M65 230 L528 230 L528 151 L65 151 L65 230 Z " />
<glyph glyph-name="greater" unicode="&#x3e;" horiz-adv-x="492" d="M437 244 L25 39 L25 134 L337 287 L25 440 L25 535 L437 329 L437 244 Z " />
<glyph glyph-name="question" unicode="&#x3f;" horiz-adv-x="502" d="M157 203 Q162 263 191 312 Q220 361 277 394 L328 424 Q406 470 406 541 Q406 578 379.5 607 Q353 636 299 636 Q262 636 235 623 Q208 610 190 588 Q172 566 163.5 537.5 Q155 509 155 479 L60 492 Q62 543 80.5 585.5 Q99 628 131 659 Q163 690 208 707 Q253 724 309 724 Q357 724 394 710.5 Q431 697 456 674 Q481 651 494 620.5 Q507 590 507 556 Q507 518 496 487 Q485 456 466 431 Q447 406 421 385.5 Q395 365 366 349 L312 318 Q280 299 262.5 268 Q245 237 243 203 L157 203 Z M118 53 Q118 82 138.5 104 Q159 126 190 126 Q217 126 233.5 109.5 Q250 93 250 68 Q250 37 228.5 16 Q207 -5 179 -5 Q152 -5 135 11.5 Q118 28 118 53 Z " />
<glyph glyph-name="at" unicode="&#x40;" horiz-adv-x="816" d="M435 -47 Q347 -47 273.5 -19.5 Q200 8 147 58 Q94 108 64.5 178 Q35 248 35 333 Q35 420 66 492 Q97 564 150 615.5 Q203 667 273.5 695.5 Q344 724 423 724 Q499 724 564.5 699 Q630 674 678 630.5 Q726 587 753.5 527 Q781 467 781 397 Q781 341 766 293.5 Q751 246 725 211 Q699 176 664.5 156.5 Q630 137 591 137 Q556 137 529 152 Q502 167 493 199 Q470 167 437.5 151 Q405 135 373 135 Q339 135 311 147 Q283 159 262.5 181.5 Q242 204 231 235.5 Q220 267 220 306 Q220 356 236 399 Q252 442 279.5 473 Q307 504 343 521.5 Q379 539 420 539 Q435 539 451.5 535 Q468 531 483 523.5 Q498 516 509.5 504.5 Q521 493 527 477 L536 526 L615 526 L561 275 Q558 260 558 247 Q558 230 566.5 218 Q575 206 596 206 Q617 206 636.5 221.5 Q656 237 671 263.5 Q686 290 695 324 Q704 358 704 396 Q704 451 684 497.5 Q664 544 627.5 578 Q591 612 539 631.5 Q487 651 424 651 Q358 651 302 628 Q246 605 204.5 563 Q163 521 140 462.5 Q117 404 117 332 Q117 266 138.5 210 Q160 154 201 113 Q242 72 301 49 Q360 26 435 26 Q490 26 542.5 43 Q595 60 640 96 L681 42 Q659 21 630 4.5 Q601 -12 568.5 -23.5 Q536 -35 501.5 -41 Q467 -47 435 -47 Z M505 370 Q505 415 483.5 439.5 Q462 464 421 464 Q394 464 372 451.5 Q350 439 334.5 418 Q319 397 310.5 370.5 Q302 344 302 316 Q302 293 306 273.5 Q310 254 320 239.5 Q330 225 346.5 216.5 Q363 208 387 208 Q412 208 433.5 220 Q455 232 470.5 253.5 Q486 275 495 305 Q504 335 505 370 Z " />
<glyph glyph-name="A" unicode="A" horiz-adv-x="654" d="M453 198 L156 198 L41 0 L-70 0 L353 709 L461 709 L584 0 L485 0 L453 198 Z M209 289 L438 289 L388 599 L209 289 Z " />
<glyph glyph-name="B" unicode="B" horiz-adv-x="603" d="M379 709 Q424 709 458.5 696.5 Q493 684 516.5 662.5 Q540 641 551.5 611 Q563 581 563 547 Q563 515 553 485 Q543 455 524.5 430 Q506 405 479.5 386.5 Q453 368 421 359 Q466 345 495 307 Q524 269 524 216 Q524 170 506 130.5 Q488 91 456 62 Q424 33 379.5 16.5 Q335 0 282 0 L15 0 L165 709 L379 709 Z M312 399 Q346 399 374.5 409 Q403 419 422.5 437 Q442 455 453 479 Q464 503 464 532 Q464 574 436.5 598.5 Q409 623 355 623 L245 623 L197 399 L312 399 Z M268 86 Q301 86 329.5 96 Q358 106 379 124 Q400 142 411.5 166.5 Q423 191 423 220 Q423 262 396.5 288.5 Q370 315 309 315 L179 315 L131 86 L268 86 Z " />
<glyph glyph-name="C" unicode="C" horiz-adv-x="719" d="M417 724 Q480 724 529.5 706.5 Q579 689 614.5 658 Q650 627 672.5 586 Q695 545 704 499 L611 472 Q604 506 587.5 535.5 Q571 565 545.5 587 Q520 609 485 621.5 Q450 634 407 634 Q342 634 291 606.5 Q240 579 205.5 533.5 Q171 488 153 429 Q135 370 135 307 Q135 198 190.5 136 Q246 74 344 74 Q419 74 478 114 Q537 154 572 234 L658 199 Q614 99 532 42 Q450 -15 335 -15 Q269 -15 214 8 Q159 31 119.5 73 Q80 115 57.5 173 Q35 231 35 301 Q35 405 68 484 Q101 563 155 616.5 Q209 670 277.5 697 Q346 724 417 724 Z " />
<glyph glyph-name="D" unicode="D" horiz-adv-x="691" d="M276 87 Q325 87 375.5 108 Q426 129 466 171 Q506 213 531.5 275 Q557 337 557 420 Q557 520 498.5 571 Q440 622 340 622 L245 622 L131 87 L276 87 Z M15 0 L165 709 L358 709 Q426 709 481 689 Q536 669 574.5 632 Q613 595 634 542.5 Q655 490 655 426 Q655 321 622 241.5 Q589 162 536 108 Q483 54 414.5 27 Q346 0 276 0 L15 0 Z " />
<glyph glyph-name="E" unicode="E" horiz-adv-x="576" d="M15 0 L165 709 L591 709 L572 618 L244 618 L198 400 L495 400 L475 308 L178 308 L132 91 L460 91 L441 0 L15 0 Z " />
<glyph glyph-name="F" unicode="F" horiz-adv-x="561" d="M15 0 L165 709 L591 709 L572 618 L244 618 L195 390 L492 390 L473 298 L176 298 L113 0 L15 0 Z " />
<glyph glyph-name="G" unicode="G" horiz-adv-x="740" d="M408 634 Q344 634 293 607 Q242 580 207 535 Q172 490 153 431 Q134 372 134 307 Q134 253 148.5 210 Q163 167 190.5 136.5 Q218 106 257 90 Q296 74 345 74 Q383 74 420.5 86.5 Q458 99 490 122.5 Q522 146 545.5 180.5 Q569 215 580 259 L334 259 L352 347 L691 347 L618 0 L542 0 L550 80 Q511 35 458.5 10 Q406 -15 336 -15 Q275 -15 220.5 6.5 Q166 28 124.5 69 Q83 110 59 168.5 Q35 227 35 301 Q35 405 68.5 484 Q102 563 156 616.5 Q210 670 278.5 697 Q347 724 418 724 Q481 724 530.5 706.5 Q580 689 615.5 658 Q651 627 673.5 586 Q696 545 705 499 L612 472 Q605 506 588.5 535.5 Q572 565 546.5 587 Q521 609 486 621.5 Q451 634 408 634 Z " />
<glyph glyph-name="H" unicode="H" horiz-adv-x="708" d="M445 0 L511 315 L179 315 L113 0 L15 0 L165 709 L263 709 L199 406 L531 406 L595 709 L693 709 L543 0 L445 0 Z " />
<glyph glyph-name="I" unicode="I" horiz-adv-x="280" d="M15 0 L165 709 L265 709 L115 0 L15 0 Z " />
<glyph glyph-name="J" unicode="J" horiz-adv-x="544" d="M539 709 L429 196 Q419 149 400.5 110.5 Q382 72 354 44 Q326 16 289 1 Q252 -14 206 -14 Q158 -14 121.5 0.5 Q85 15 60 40.5 Q35 66 22.5 101 Q10 136 10 177 Q10 207 18 244 L23 267 L123 282 L112 230 Q109 218 108 206 Q107 194 107 183 Q107 135 132 104.5 Q157 74 209 74 Q260 74 289 107 Q318 140 331 198 L440 709 L539 709 Z " />
<glyph glyph-name="K" unicode="K" horiz-adv-x="662" d="M289 334 L159 220 L113 0 L15 0 L165 709 L263 709 L190 365 L582 709 L717 709 L362 397 L576 0 L465 0 L289 334 Z " />
<glyph glyph-name="L" unicode="L" horiz-adv-x="538" d="M15 0 L165 709 L263 709 L132 92 L457 92 L438 0 L15 0 Z " />
<glyph glyph-name="M" unicode="M" horiz-adv-x="926" d="M664 0 L779 543 L434 0 L360 0 L227 540 L112 0 L15 0 L165 709 L280 709 L420 139 L781 709 L911 709 L761 0 L664 0 Z " />
<glyph glyph-name="N" unicode="N" horiz-adv-x="738" d="M471 0 L235 574 L113 0 L15 0 L165 709 L282 709 L507 155 L625 709 L723 709 L573 0 L471 0 Z " />
<glyph glyph-name="O" unicode="O" horiz-adv-x="753" d="M35 294 Q35 400 68 480.5 Q101 561 154.5 615 Q208 669 275.5 696.5 Q343 724 412 724 Q481 724 537.5 702 Q594 680 634 639.5 Q674 599 696 541.5 Q718 484 718 414 Q718 308 685 227.5 Q652 147 598.5 93 Q545 39 478 12 Q411 -15 342 -15 Q273 -15 216 7.5 Q159 30 119 70.5 Q79 111 57 168 Q35 225 35 294 Z M618 404 Q618 459 602 502 Q586 545 557.5 574.5 Q529 604 490.5 619 Q452 634 406 634 Q341 634 290.5 606 Q240 578 205.5 532 Q171 486 153 426.5 Q135 367 135 304 Q135 248 151 205.5 Q167 163 195.5 134 Q224 105 262.5 90 Q301 75 347 75 Q412 75 462.5 102.5 Q513 130 547.5 176 Q582 222 600 281.5 Q618 341 618 404 Z " />
<glyph glyph-name="P" unicode="P" horiz-adv-x="588" d="M390 709 Q436 709 473 695.5 Q510 682 535.5 658 Q561 634 574.5 601 Q588 568 588 529 Q588 475 567.5 431.5 Q547 388 512 357.5 Q477 327 429 310.5 Q381 294 327 294 L175 294 L113 0 L15 0 L165 709 L390 709 Z M245 622 L193 381 L327 381 Q362 381 391.5 390.5 Q421 400 443 418 Q465 436 477 462.5 Q489 489 489 523 Q489 568 459.5 595 Q430 622 374 622 L245 622 Z " />
<glyph glyph-name="Q" unicode="Q" horiz-adv-x="757" d="M35 294 Q35 400 68 480.5 Q101 561 154.5 615 Q208 669 275.5 696.5 Q343 724 412 724 Q481 724 537.5 702 Q594 680 634 639.5 Q674 599 696 541.5 Q718 484 718 414 Q718 299 680.5 216 Q643 133 583 79 L661 -26 L589 -75 L512 28 Q429 -15 342 -15 Q273 -15 216 7.5 Q159 30 119 70.5 Q79 111 57 168 Q35 225 35 294 Z M418 301 L528 153 Q572 200 595 266 Q618 332 618 404 Q618 459 602 502 Q586 545 557.5 574.5 Q529 604 490.5 619 Q452 634 406 634 Q341 634 290.5 606 Q240 578 205.5 532 Q171 486 153 426.5 Q135 367 135 304 Q135 248 151 205.5 Q167 163 195.5 134 Q224 105 262.5 90 Q301 75 347 75 Q378 75 406 82 Q434 89 458 101 L346 252 L418 301 Z " />
<glyph glyph-name="R" unicode="R" horiz-adv-x="615" d="M301 294 L175 294 L113 0 L15 0 L165 709 L395 709 Q441 709 477.5 695.5 Q514 682 539 658 Q564 634 577 601 Q590 568 590 529 Q590 484 576 446 Q562 408 536.5 378.5 Q511 349 476.5 329.5 Q442 310 400 301 L516 0 L412 0 L301 294 Z M332 381 Q402 381 446.5 418 Q491 455 491 523 Q491 568 463 595 Q435 622 379 622 L245 622 L193 381 L332 381 Z " />
<glyph glyph-name="S" unicode="S" horiz-adv-x="581" d="M264 73 Q325 74 362.5 104 Q400 134 400 184 Q400 215 382.5 242 Q365 269 324 287 L230 329 Q170 355 135.5 400 Q101 445 101 512 Q101 556 119 595 Q137 634 169 662.5 Q201 691 244.5 707.5 Q288 724 339 724 Q404 724 448.5 703.5 Q493 683 520 653 Q547 623 559 588 Q571 553 571 523 L478 505 Q478 519 473 541.5 Q468 564 452.5 585 Q437 606 408 621.5 Q379 637 331 637 Q304 637 280 628.5 Q256 620 238.5 605 Q221 590 211 569.5 Q201 549 201 525 Q201 490 218.5 465.5 Q236 441 267 427 L364 382 Q435 349 468.5 301.5 Q502 254 502 195 Q502 153 485 115 Q468 77 436.5 48 Q405 19 361 2 Q317 -15 264 -15 Q195 -15 145.5 6.5 Q96 28 65 62 Q34 96 19.5 138 Q5 180 5 221 Q5 223 5 227 Q5 231 6 236 L105 253 Q104 246 104 241 Q104 236 104 233 Q104 203 113 174 Q122 145 141.5 122.5 Q161 100 191 86.5 Q221 73 264 73 Z " />
<glyph glyph-name="T" unicode="T" horiz-adv-x="566" d="M392 619 L261 0 L163 0 L294 619 L65 619 L84 709 L631 709 L612 619 L392 619 Z " />
<glyph glyph-name="U" unicode="U" horiz-adv-x="666" d="M661 709 L557 216 Q534 105 463 45 Q392 -15 288 -15 Q182 -15 119 39.5 Q56 94 56 196 Q56 213 57.5 231.5 Q59 250 64 270 L157 709 L251 709 L159 258 Q153 229 153 204 Q153 145 187 110.5 Q221 76 293 76 Q359 76 402 115 Q445 154 460 225 L562 709 L661 709 Z " />
<glyph glyph-name="V" unicode="V" horiz-adv-x="608" d="M253 126 L578 709 L683 709 L277 0 L180 0 L75 709 L173 709 L253 126 Z " />
<glyph glyph-name="W" unicode="W" horiz-adv-x="952" d="M598 709 L661 148 L913 709 L1012 709 L685 0 L588 0 L525 575 L245 0 L145 0 L90 709 L185 709 L224 154 L495 709 L598 709 Z " />
<glyph glyph-name="X" unicode="X" horiz-adv-x="627" d="M67 0 L-55 0 L256 356 L94 709 L201 709 L324 434 L559 709 L682 709 L367 348 L528 0 L420 0 L299 270 L67 0 Z " />
<glyph glyph-name="Y" unicode="Y" horiz-adv-x="611" d="M95 709 L198 709 L321 398 L549 709 L666 709 L353 299 L291 0 L193 0 L257 305 L95 709 Z " />
<glyph glyph-name="Z" unicode="Z" horiz-adv-x="614" d="M-30 0 L-10 96 L500 619 L111 619 L130 709 L644 709 L624 616 L112 91 L518 91 L499 0 L-30 0 Z " />
<glyph glyph-name="bracketleft" unicode="&#x5b;" horiz-adv-x="288" d="M-17 -148 L181 785 L374 785 L358 710 L242 710 L76 -74 L192 -74 L176 -148 L-17 -148 Z " />
<glyph glyph-name="backslash" unicode="&#x5c;" horiz-adv-x="429" d="M65 724 L151 724 L364 -15 L278 -15 L65 724 Z " />
<glyph glyph-name="bracketright" unicode="&#x5d;" horiz-adv-x="288" d="M-101 -148 L-85 -74 L30 -74 L196 710 L80 710 L96 785 L289 785 L91 -148 L-101 -148 Z " />
<glyph glyph-name="asciicircum" unicode="&#x5e;" horiz-adv-x="556" d="M332 710 L526 354 L427 354 L291 612 L154 354 L55 354 L249 710 L332 710 Z " />
<glyph glyph-name="underscore" unicode="&#x5f;" horiz-adv-x="532" d="M-60 0 L452 0 L452 -79 L-60 -79 L-60 0 Z " />
<glyph glyph-name="grave" unicode="&#x60;" horiz-adv-x="208" d="M65 689 L177 689 L233 543 L159 543 L65 689 Z " />
<glyph glyph-name="a" unicode="a" horiz-adv-x="567" d="M266 414 Q227 414 196.5 394.5 Q166 375 146 344.5 Q126 314 115.5 276 Q105 238 105 202 Q105 145 133 108 Q161 71 219 71 Q253 71 282.5 88 Q312 105 333 134 Q354 163 366 203 Q378 243 378 290 Q378 342 351 378 Q324 414 266 414 Z M517 481 L442 125 Q434 87 432.5 59 Q431 31 431 16 Q431 14 431 10 Q431 6 432 0 L343 0 Q341 10 341 28 Q341 33 341 41.5 Q341 50 343 61 Q318 31 281.5 10.5 Q245 -10 200 -10 Q153 -10 117.5 6.5 Q82 23 58 51.5 Q34 80 22 118.5 Q10 157 10 201 Q10 259 28.5 312.5 Q47 366 80 406.5 Q113 447 159 471 Q205 495 261 495 Q322 495 358.5 472 Q395 449 411 420 L424 481 L517 481 Z " />
<glyph glyph-name="b" unicode="b" horiz-adv-x="564" d="M-10 0 L143 724 L236 724 L176 441 Q202 468 239.5 481.5 Q277 495 321 495 Q368 495 403 478.5 Q438 462 461.5 433.5 Q485 405 496.5 367.5 Q508 330 508 287 Q508 224 489.5 169 Q471 114 437 73.5 Q403 33 356 10 Q309 -13 252 -13 Q199 -13 158 12 Q117 37 100 79 L83 0 L-10 0 Z M286 412 Q255 412 226.5 397.5 Q198 383 176.5 356 Q155 329 142 290.5 Q129 252 129 205 Q129 148 159.5 110.5 Q190 73 246 71 Q278 71 308 84.5 Q338 98 361 124 Q384 150 398 188.5 Q412 227 412 277 Q412 341 379 376.5 Q346 412 286 412 Z " />
<glyph glyph-name="c" unicode="c" horiz-adv-x="498" d="M381 314 Q376 333 367 351 Q358 369 343.5 382.5 Q329 396 309 404 Q289 412 262 412 Q231 412 202 399 Q173 386 150.5 360.5 Q128 335 114 297 Q100 259 100 208 Q100 144 135.5 106.5 Q171 69 231 69 Q259 69 280 77 Q301 85 317.5 98 Q334 111 345.5 127 Q357 143 365 160 L445 125 Q431 98 411 72.5 Q391 47 364 27.5 Q337 8 303 -3.5 Q269 -15 227 -15 Q175 -15 134 2 Q93 19 64.5 49 Q36 79 20.5 119.5 Q5 160 5 207 Q5 271 25.5 324 Q46 377 82 415.5 Q118 454 166 475 Q214 496 268 496 Q317 496 352 482 Q387 468 410.5 445.5 Q434 423 448 396 Q462 369 468 344 L381 314 Z " />
<glyph glyph-name="d" unicode="d" horiz-adv-x="567" d="M266 414 Q227 414 196.5 394.5 Q166 375 146 344.5 Q126 314 115.5 276 Q105 238 105 202 Q105 145 133 108 Q161 71 219 71 Q253 71 282.5 88 Q312 105 333 134 Q354 163 366 203 Q378 243 378 290 Q378 342 351 378 Q324 414 266 414 Z M343 61 Q320 31 282.5 10.5 Q245 -10 200 -10 Q153 -10 117.5 6.5 Q82 23 58 51.5 Q34 80 22 118.5 Q10 157 10 201 Q10 259 28.5 312.5 Q47 366 80 406.5 Q113 447 159 471 Q205 495 261 495 Q322 495 358.5 472 Q395 449 411 420 L475 724 L568 724 L442 125 Q434 87 432.5 59 Q431 31 431 16 Q431 14 431 10 Q431 6 432 0 L343 0 Q341 10 341 28 Q341 33 341 40.5 Q341 48 343 61 Z " />
<glyph glyph-name="e" unicode="e" horiz-adv-x="528" d="M374 290 Q376 298 376 310 Q376 328 370.5 346.5 Q365 365 352.5 379.5 Q340 394 319.5 403.5 Q299 413 269 413 Q239 413 214 402.5 Q189 392 169.5 375 Q150 358 137 336 Q124 314 118 290 L374 290 Z M105 214 Q104 209 104 205.5 Q104 202 104 197 Q104 167 113.5 143.5 Q123 120 139.5 103 Q156 86 178.5 77 Q201 68 226 68 Q254 68 276.5 75 Q299 82 316.5 93.5 Q334 105 347 119 Q360 133 368 148 L439 102 Q426 78 405.5 57 Q385 36 358 20 Q331 4 298 -5.5 Q265 -15 228 -15 Q183 -15 143.5 -1 Q104 13 74.5 40.5 Q45 68 27.5 109 Q10 150 10 204 Q10 272 32.5 326.5 Q55 381 92 418.5 Q129 456 176.5 476 Q224 496 274 496 Q323 496 360 481.5 Q397 467 422 441.5 Q447 416 460 380.5 Q473 345 473 302 Q473 273 468 249.5 Q463 226 459 214 L105 214 Z " />
<glyph glyph-name="f" unicode="f" horiz-adv-x="332" d="M331 643 Q301 643 279 627 Q257 611 247 566 L229 481 L338 481 L320 398 L211 398 L127 0 L30 0 L114 398 L33 398 L51 481 L132 481 L153 581 Q163 630 183 659 Q203 688 227 703.5 Q251 719 277 724 Q303 729 325 729 Q354 729 370.5 723 Q387 717 389 715 L371 635 Q367 637 356.5 640 Q346 643 331 643 Z " />
<glyph glyph-name="g" unicode="g" horiz-adv-x="565" d="M378 293 Q378 313 371.5 334 Q365 355 350.5 371.5 Q336 388 313.5 398.5 Q291 409 260 409 Q228 409 200 397 Q172 385 151.5 362 Q131 339 119 306 Q107 273 107 231 Q107 204 114 180.5 Q121 157 136 139.5 Q151 122 173.5 112 Q196 102 226 102 Q295 102 336.5 153 Q378 204 378 293 Z M42 -8 L42 -15 Q42 -37 49 -56.5 Q56 -76 70.5 -91 Q85 -106 106.5 -114.5 Q128 -123 158 -123 Q228 -123 269 -80 Q310 -37 327 43 L335 82 Q319 58 286 40.5 Q253 23 207 23 Q160 23 124 38.5 Q88 54 63 81.5 Q38 109 25 146 Q12 183 12 225 Q12 281 30 329.5 Q48 378 80.5 414 Q113 450 158 470.5 Q203 491 257 491 Q308 491 347 471.5 Q386 452 406 417 L419 481 L515 481 L425 46 Q415 0 396.5 -45 Q378 -90 346.5 -125.5 Q315 -161 268 -183 Q221 -205 154 -205 Q104 -205 66.5 -190 Q29 -175 3.5 -150.5 Q-22 -126 -34.5 -94 Q-47 -62 -47 -29 L42 -8 Z " />
<glyph glyph-name="h" unicode="h" horiz-adv-x="555" d="M315 0 L377 291 Q381 308 381 328 Q381 368 359 390 Q337 412 293 412 Q264 412 241.5 400.5 Q219 389 202.5 370.5 Q186 352 175 328 Q164 304 159 280 L99 0 L5 0 L159 724 L253 724 L193 441 Q219 470 254 482.5 Q289 495 331 495 Q398 495 438.5 456 Q479 417 479 351 Q479 340 477.5 328.5 Q476 317 474 305 L409 0 L315 0 Z " />
<glyph glyph-name="i" unicode="i" horiz-adv-x="257" d="M125 659 Q125 675 131.5 688.5 Q138 702 148.5 712 Q159 722 172 727.5 Q185 733 199 733 Q226 733 243 715.5 Q260 698 260 673 Q260 658 253.5 644.5 Q247 631 236.5 621 Q226 611 212.5 605 Q199 599 186 599 Q159 599 142 616.5 Q125 634 125 659 Z M5 0 L108 481 L202 481 L99 0 L5 0 Z " />
<glyph glyph-name="j" unicode="j" horiz-adv-x="256" d="M108 481 L201 481 L82 -79 Q69 -139 30.5 -172 Q-8 -205 -63 -205 Q-90 -205 -108 -199.5 Q-126 -194 -131 -191 L-115 -116 Q-113 -117 -102.5 -119.5 Q-92 -122 -78 -122 Q-46 -122 -31 -106.5 Q-16 -91 -8 -57 L108 481 Z M125 659 Q125 675 131.5 688.5 Q138 702 148.5 712 Q159 722 172 727.5 Q185 733 199 733 Q226 733 243 715.5 Q260 698 260 673 Q260 658 253.5 644.5 Q247 631 236.5 621 Q226 611 212.5 605 Q199 599 186 599 Q159 599 142 616.5 Q125 634 125 659 Z " />
<glyph glyph-name="k" unicode="k" horiz-adv-x="527" d="M227 228 L129 148 L98 0 L5 0 L159 724 L252 724 L158 284 L397 481 L537 481 L299 287 L441 0 L336 0 L227 228 Z " />
<glyph glyph-name="l" unicode="l" horiz-adv-x="255" d="M5 0 L159 724 L253 724 L99 0 L5 0 Z " />
<glyph glyph-name="m" unicode="m" horiz-adv-x="828" d="M296 0 L360 302 Q362 310 363 318 Q364 326 364 334 Q364 368 344.5 390.5 Q325 413 281 413 Q230 413 200.5 378.5 Q171 344 160 290 L98 0 L5 0 L89 396 Q96 426 98.5 451 Q101 476 101 481 L193 481 Q193 479 192 464 Q191 449 188 431 Q214 463 247 479 Q280 495 327 495 Q371 495 402 474 Q433 453 447 418 Q484 465 526.5 480 Q569 495 612 495 Q640 495 665.5 486 Q691 477 710 459.5 Q729 442 740.5 416.5 Q752 391 752 357 Q752 346 750.5 335 Q749 324 747 312 L680 0 L587 0 L651 302 Q653 310 654 318.5 Q655 327 655 335 Q655 367 635.5 390 Q616 413 572 413 Q522 413 492.5 378 Q463 343 452 291 L390 0 L296 0 Z " />
<glyph glyph-name="n" unicode="n" horiz-adv-x="555" d="M315 0 L377 291 Q379 299 380 308 Q381 317 381 328 Q381 368 359 390 Q337 412 293 412 Q264 412 241.5 400.5 Q219 389 202.5 370.5 Q186 352 175 328 Q164 304 159 280 L99 0 L5 0 L89 396 Q97 430 99 454.5 Q101 479 101 481 L193 481 Q193 478 191.5 461.5 Q190 445 187 428 Q215 466 253.5 480.5 Q292 495 336 495 Q399 495 439 456 Q479 417 479 351 Q479 340 477.5 328.5 Q476 317 474 305 L409 0 L315 0 Z " />
<glyph glyph-name="o" unicode="o" horiz-adv-x="541" d="M267 412 Q236 412 207 398.5 Q178 385 155.5 359.5 Q133 334 119.5 296 Q106 258 106 209 Q106 145 139 107 Q172 69 228 69 Q259 69 288.5 82.5 Q318 96 340.5 122 Q363 148 376.5 186 Q390 224 390 273 Q390 336 357.5 374 Q325 412 267 412 Z M486 275 Q486 214 466 161 Q446 108 411 69 Q376 30 328 7.5 Q280 -15 224 -15 Q173 -15 133 2.5 Q93 20 66 50.5 Q39 81 24.5 121.5 Q10 162 10 207 Q10 269 30 322 Q50 375 85 413.5 Q120 452 168.5 474 Q217 496 273 496 Q325 496 365 478.5 Q405 461 432 431 Q459 401 472.5 360.5 Q486 320 486 275 Z " />
<glyph glyph-name="p" unicode="p" horiz-adv-x="565" d="M291 409 Q260 409 231.5 395.5 Q203 382 180.5 356 Q158 330 144.5 292 Q131 254 131 205 Q131 141 163 106 Q195 71 251 71 Q281 71 310.5 85 Q340 99 362.5 125 Q385 151 399 189.5 Q413 228 413 277 Q413 341 381.5 375 Q350 409 291 409 Z M173 426 Q200 460 240.5 477 Q281 494 326 494 Q373 494 407.5 478 Q442 462 464.5 434 Q487 406 498 368.5 Q509 331 509 288 Q509 224 491 169 Q473 114 440 73.5 Q407 33 360.5 10 Q314 -13 257 -13 Q207 -13 163.5 10 Q120 33 99 74 L43 -190 L-50 -190 L75 396 Q82 428 84.5 451.5 Q87 475 87 481 L179 481 Q179 476 178 460 Q177 444 173 426 Z " />
<glyph glyph-name="q" unicode="q" horiz-adv-x="565" d="M373 -190 L280 -190 L330 46 Q305 20 272 5 Q239 -10 200 -10 Q153 -10 116.5 7 Q80 24 55.5 52.5 Q31 81 18 119.5 Q5 158 5 201 Q5 259 23.5 312.5 Q42 366 75 406 Q108 446 154.5 470 Q201 494 257 494 Q317 494 355 472 Q393 450 410 422 L422 481 L515 481 L373 -190 Z M262 412 Q223 412 192.5 393 Q162 374 141.5 344 Q121 314 110.5 276.5 Q100 239 100 202 Q100 146 130 108.5 Q160 71 221 71 Q255 71 284 87.5 Q313 104 334 133 Q355 162 366.5 201 Q378 240 378 285 Q378 340 350.5 376 Q323 412 262 412 Z " />
<glyph glyph-name="r" unicode="r" horiz-adv-x="364" d="M347 384 Q329 387 313 387 Q255 387 210 349.5 Q165 312 147 228 L98 0 L5 0 L89 396 Q96 429 98.5 452.5 Q101 476 101 481 L193 481 Q193 465 190.5 442 Q188 419 184 406 Q199 430 218 446 Q237 462 258 471.5 Q279 481 300.5 485 Q322 489 342 489 Q349 489 356.5 488.5 Q364 488 369 487 L347 384 Z " />
<glyph glyph-name="s" unicode="s" horiz-adv-x="441" d="M73 169 Q74 126 101.5 95.5 Q129 65 178 65 Q218 65 236.5 85 Q255 105 255 129 Q255 165 210 186 L140 218 Q98 237 76 267.5 Q54 298 54 340 Q54 370 66 398.5 Q78 427 100.5 448.5 Q123 470 156 483 Q189 496 230 496 Q277 496 309 481.5 Q341 467 361 445.5 Q381 424 390 400 Q399 376 401 357 L317 334 Q315 348 309.5 362.5 Q304 377 293 389 Q282 401 264.5 409 Q247 417 221 417 Q185 417 165 398 Q145 379 145 354 Q145 334 155 321 Q165 308 183 300 L249 270 Q297 248 323 213.5 Q349 179 349 136 Q349 113 339.5 86.5 Q330 60 309 37.5 Q288 15 254.5 0 Q221 -15 173 -15 Q123 -15 88.5 1 Q54 17 32 41.5 Q10 66 0 95 Q-10 124 -10 150 L73 169 Z " />
<glyph glyph-name="t" unicode="t" horiz-adv-x="337" d="M59 101 Q59 121 63 138 L118 396 L30 396 L48 481 L62 481 Q105 481 129 502 Q153 523 161 559 L177 633 L263 633 L230 481 L327 481 L309 396 L212 396 L159 143 Q156 129 156 120 Q156 77 210 77 Q218 77 227 77.5 Q236 78 242 79 L226 2 Q222 0 209.5 -2.5 Q197 -5 175 -5 Q122 -5 90.5 22.5 Q59 50 59 101 Z " />
<glyph glyph-name="u" unicode="u" horiz-adv-x="544" d="M318 56 Q294 22 257.5 6 Q221 -10 187 -10 Q112 -10 72 32.5 Q32 75 32 145 Q32 171 38 200 L98 481 L192 481 L133 202 Q131 190 129.5 178.5 Q128 167 128 156 Q128 119 147 94.5 Q166 70 213 70 Q240 70 261.5 80.5 Q283 91 299 109 Q315 127 326 150.5 Q337 174 342 200 L401 481 L494 481 L419 125 Q411 87 409.5 59 Q408 31 408 16 Q408 14 408 10 Q408 6 409 0 L319 0 Q317 10 317 28 Q317 32 317 39 Q317 46 318 56 Z " />
<glyph glyph-name="v" unicode="v" horiz-adv-x="482" d="M212 0 L121 0 L35 481 L132 481 L185 113 L391 481 L497 481 L212 0 Z " />
<glyph glyph-name="w" unicode="w" horiz-adv-x="768" d="M448 481 L494 122 L675 481 L778 481 L523 0 L426 0 L378 364 L188 0 L89 0 L40 481 L130 481 L161 123 L349 481 L448 481 Z " />
<glyph glyph-name="x" unicode="x" horiz-adv-x="495" d="M56 0 L-65 0 L170 246 L44 481 L147 481 Q168 439 189.5 397.5 Q211 356 233 314 L385 481 L505 481 L278 243 Q311 182 343 121.5 Q375 61 409 0 L306 0 L215 174 L56 0 Z " />
<glyph glyph-name="y" unicode="y" horiz-adv-x="504" d="M-30 -190 L151 83 L33 481 L135 481 L220 179 L408 481 L519 481 L78 -190 L-30 -190 Z " />
<glyph glyph-name="z" unicode="z" horiz-adv-x="473" d="M-30 0 L-12 84 L315 396 L63 396 L81 481 L453 481 L435 396 L108 85 L377 85 L359 0 L-30 0 Z " />
<glyph glyph-name="braceleft" unicode="&#x7b;" horiz-adv-x="353" d="M46 361 Q68 361 89 366 Q110 371 127.5 383 Q145 395 158 414 Q171 433 177 461 L206 599 Q216 650 233 685.5 Q250 721 275 743 Q300 765 334.5 775 Q369 785 416 785 L439 785 L423 710 L409 710 Q379 710 357.5 703.5 Q336 697 322 684 Q308 671 299 651 Q290 631 285 605 L250 440 Q239 389 206.5 357 Q174 325 121 318 Q155 310 177 284.5 Q199 259 199 218 Q199 203 196 187 L165 41 Q162 29 161 18 Q160 7 160 -2 Q160 -38 180 -56 Q200 -74 245 -74 L258 -74 L242 -148 L228 -148 Q152 -148 116 -116 Q80 -84 80 -23 Q80 6 87 37 L117 175 Q120 190 120 203 Q120 224 112 237.5 Q104 251 91 259.5 Q78 268 61.5 271 Q45 274 28 274 L46 361 Z " />
<glyph glyph-name="bar" unicode="&#x7c;" horiz-adv-x="262" d="M-17 -148 L181 785 L263 785 L65 -148 L-17 -148 Z " />
<glyph glyph-name="braceright" unicode="&#x7d;" horiz-adv-x="354" d="M292 273 Q272 273 251.5 269 Q231 265 213 254 Q195 243 181 224 Q167 205 161 175 L131 37 Q111 -57 58.5 -102.5 Q6 -148 -87 -148 L-101 -148 L-85 -74 L-73 -74 Q-16 -74 14 -41.5 Q44 -9 55 41 L90 205 Q100 252 134 281 Q168 310 219 321 Q181 329 159 354 Q137 379 137 414 Q137 426 140 440 L175 605 Q181 632 181 651 Q181 682 163 696 Q145 710 100 710 L81 710 L97 785 L120 785 Q188 785 225 757.5 Q262 730 262 669 Q262 641 255 612 L221 461 Q219 453 218 446 Q217 439 217 433 Q217 393 244.5 376.5 Q272 360 310 360 L292 273 Z " />
<glyph glyph-name="asciitilde" unicode="&#x7e;" horiz-adv-x="640" d="M555 305 Q527 259 488.5 235.5 Q450 212 405 212 Q357 212 308 239 L262 264 Q233 279 208 279 Q180 279 156 263.5 Q132 248 112 222 L55 268 Q83 314 122 338.5 Q161 363 207 363 Q230 363 254 357 Q278 351 302 337 L348 312 Q376 296 405 296 Q433 296 457 310.5 Q481 325 498 351 L555 305 Z " />
<glyph glyph-name="uni00A0" unicode="&#xa0;" horiz-adv-x="261" d="" />
<glyph glyph-name="exclamdown" unicode="&#xa1;" horiz-adv-x="254" d="M75 -218 L-45 -218 L87 288 L154 288 L75 -218 Z M214 438 Q214 409 193.5 387 Q173 365 142 365 Q115 365 98.5 381.5 Q82 398 82 423 Q82 454 103.5 475 Q125 496 153 496 Q180 496 197 479.5 Q214 463 214 438 Z " />
<glyph glyph-name="cent" unicode="&#xa2;" horiz-adv-x="554" d="M189 92 Q155 102 128.5 121.5 Q102 141 83.5 167 Q65 193 55 225 Q45 257 45 293 Q45 352 64 401.5 Q83 451 116.5 487 Q150 523 194.5 544 Q239 565 290 567 L307 648 L383 648 L364 560 Q395 552 418.5 537 Q442 522 458 503 Q474 484 484 463 Q494 442 499 423 L413 394 Q407 420 391.5 442.5 Q376 465 347 476 L281 165 Q329 170 355.5 194.5 Q382 219 398 248 L476 215 Q462 189 442.5 165 Q423 141 397 122.5 Q371 104 337.5 93 Q304 82 263 82 L246 0 L170 0 L189 92 Z M138 294 Q138 250 156.5 220 Q175 190 207 176 L272 483 Q245 478 220.5 464.5 Q196 451 178 427.5 Q160 404 149 370.5 Q138 337 138 294 Z " />
<glyph glyph-name="sterling" unicode="&#xa3;" horiz-adv-x="597" d="M82 359 L156 359 Q151 383 148 404 Q145 425 145 447 Q145 492 160 531.5 Q175 571 203 600 Q231 629 269.5 646 Q308 663 356 663 Q440 663 488 621 Q536 579 536 504 Q536 494 535 485 Q534 476 532 471 L439 457 Q442 473 442 489 Q442 524 419.5 550.5 Q397 577 352 577 Q303 577 272 545.5 Q241 514 241 453 Q241 430 245 406.5 Q249 383 254 359 L447 359 L429 273 L262 273 Q259 212 224 162.5 Q189 113 128 87 L338 87 Q389 87 419 119.5 Q449 152 457 197 L545 179 Q530 94 475 47 Q420 0 342 0 L0 0 L20 104 Q93 125 128 172 Q163 219 166 273 L64 273 L82 359 Z " />
<glyph glyph-name="currency" unicode="&#xa4;" horiz-adv-x="579" d="M73 239 Q73 273 83 303 Q93 333 110 359 L35 437 L95 496 L170 418 Q196 435 225 444 Q254 453 286 453 Q346 453 397 422 L469 496 L529 437 L459 364 Q478 338 489 306 Q500 274 500 239 Q500 204 490 173 Q480 142 461 116 L529 45 L470 -14 L400 58 Q375 42 346 33.5 Q317 25 286 25 Q253 25 223 35 Q193 45 167 62 L94 -14 L35 45 L108 121 Q91 147 82 176.5 Q73 206 73 239 Z M156 239 Q156 210 166 185.5 Q176 161 194 143.5 Q212 126 235.5 116.5 Q259 107 286 107 Q313 107 336.5 116.5 Q360 126 377 143.5 Q394 161 404 185.5 Q414 210 414 239 Q414 268 404 292 Q394 316 377 333.5 Q360 351 336.5 360.5 Q313 370 286 370 Q259 370 235.5 360.5 Q212 351 194 333.5 Q176 316 166 292 Q156 268 156 239 Z " />
<glyph glyph-name="yen" unicode="&#xa5;" horiz-adv-x="583" d="M88 377 L210 377 L104 648 L214 648 L306 386 L500 648 L613 648 L400 377 L522 377 L507 306 L338 306 L321 226 L490 226 L474 154 L306 154 L274 0 L177 0 L209 154 L40 154 L56 226 L224 226 L241 306 L73 306 L88 377 Z " />
<glyph glyph-name="brokenbar" unicode="&#xa6;" horiz-adv-x="262" d="M97 386 L181 785 L263 785 L179 386 L97 386 Z M-17 -148 L68 251 L150 251 L65 -148 L-17 -148 Z " />
<glyph glyph-name="section" unicode="&#xa7;" horiz-adv-x="567" d="M96 0 Q91 -23 91 -39 Q91 -82 115.5 -109.5 Q140 -137 193 -137 Q214 -137 234 -130.5 Q254 -124 269.5 -110.5 Q285 -97 294.5 -78 Q304 -59 304 -33 Q304 12 263 42 L172 107 Q151 122 132 138 Q113 154 98.5 173 Q84 192 75.5 213.5 Q67 235 67 261 Q67 292 78.5 316.5 Q90 341 107.5 359 Q125 377 145 388.5 Q165 400 182 406 Q151 431 135.5 464 Q120 497 120 533 Q120 577 138.5 612.5 Q157 648 187 672.5 Q217 697 256 710.5 Q295 724 336 724 Q383 724 418 711 Q453 698 476 676 Q499 654 510.5 624.5 Q522 595 522 562 Q522 539 518 519 L425 510 Q430 533 430 550 Q430 592 405.5 619 Q381 646 330 646 Q308 646 287.5 639 Q267 632 251 618.5 Q235 605 225.5 586 Q216 567 216 543 Q216 499 259 468 L349 403 Q370 388 389 372.5 Q408 357 422.5 339 Q437 321 446 300 Q455 279 455 253 Q455 222 444 197 Q433 172 416 152.5 Q399 133 379 120.5 Q359 108 341 103 Q370 78 386 44.5 Q402 11 402 -23 Q402 -68 383.5 -104 Q365 -140 334.5 -164.5 Q304 -189 265 -202 Q226 -215 185 -215 Q139 -215 104.5 -202 Q70 -189 46.5 -167 Q23 -145 11.5 -115.5 Q0 -86 0 -53 Q0 -42 1 -31 Q2 -20 4 -8 L96 0 Z M229 371 Q218 368 205.5 360 Q193 352 183 339.5 Q173 327 166.5 311.5 Q160 296 160 278 Q160 257 170.5 238.5 Q181 220 205 203 L292 139 Q303 142 315 150 Q327 158 337.5 170 Q348 182 355 197.5 Q362 213 362 231 Q362 272 316 307 L229 371 Z " />
<glyph glyph-name="dieresis" unicode="&#xa8;" horiz-adv-x="352" d="M65 614 Q65 640 84 659.5 Q103 679 129 679 Q153 679 167.5 663 Q182 647 182 626 Q182 598 161.5 580.5 Q141 563 116 563 Q94 563 79.5 578 Q65 593 65 614 Z M260 614 Q260 640 279 659.5 Q298 679 324 679 Q348 679 362.5 663 Q377 647 377 626 Q377 598 356.5 580.5 Q336 563 311 563 Q289 563 274.5 578 Q260 593 260 614 Z " />
<glyph glyph-name="copyright" unicode="&#xa9;" horiz-adv-x="826" d="M40 355 Q40 431 68.5 498 Q97 565 146.5 615.5 Q196 666 262 695 Q328 724 404 724 Q480 724 547 695 Q614 666 663.5 615.5 Q713 565 742 498 Q771 431 771 355 Q771 279 742 211.5 Q713 144 663.5 94 Q614 44 547 14.5 Q480 -15 404 -15 Q328 -15 262 14.5 Q196 44 146.5 94 Q97 144 68.5 211.5 Q40 279 40 355 Z M118 355 Q118 292 140 237.5 Q162 183 201 143.5 Q240 104 292 81 Q344 58 404 58 Q464 58 516 81 Q568 104 607 143.5 Q646 183 668 237.5 Q690 292 690 355 Q690 418 668 472 Q646 526 607 566 Q568 606 516 628.5 Q464 651 404 651 Q344 651 292 628.5 Q240 606 201 566 Q162 526 140 472 Q118 418 118 355 Z M522 416 Q514 448 491 472.5 Q468 497 424 497 Q399 497 375 486.5 Q351 476 332.5 455 Q314 434 302.5 403 Q291 372 291 330 Q291 277 320.5 246.5 Q350 216 399 216 Q421 216 438.5 222.5 Q456 229 469.5 239.5 Q483 250 492.5 263 Q502 276 509 290 L574 261 Q563 239 546.5 218.5 Q530 198 508 182 Q486 166 457.5 156.5 Q429 147 395 147 Q353 147 319 161 Q285 175 261.5 199 Q238 223 225.5 256.5 Q213 290 213 329 Q213 381 230 425 Q247 469 276.5 500 Q306 531 345 548.5 Q384 566 429 566 Q469 566 497.5 554.5 Q526 543 545.5 524.5 Q565 506 576.5 484 Q588 462 593 441 L522 416 Z " />
<glyph glyph-name="ordfeminine" unicode="&#xaa;" horiz-adv-x="463" d="M242 592 Q216 592 196.5 579.5 Q177 567 163.5 547 Q150 527 143 502 Q136 477 136 453 Q136 415 155 391 Q174 367 212 367 Q257 367 286.5 407 Q316 447 316 510 Q316 545 298 568.5 Q280 592 242 592 Z M422 648 L369 392 Q366 378 364 362 Q362 346 362 331 L362 309 L292 309 Q291 314 291 320 Q291 326 291 330 Q291 332 291 338 Q291 344 292 352 Q276 332 251.5 317 Q227 302 195 302 Q162 302 137 314 Q112 326 95 346 Q78 366 69.5 393.5 Q61 421 61 452 Q61 494 74 531.5 Q87 569 110.5 597 Q134 625 166 641.5 Q198 658 237 658 Q282 658 306 641 Q330 624 341 606 L349 648 L422 648 Z " />
<glyph glyph-name="guillemotleft" unicode="&#xab;" horiz-adv-x="477" d="M113 99 L15 293 L186 481 L289 481 L113 284 L206 99 L113 99 Z M306 99 L208 293 L379 481 L482 481 L306 284 L399 99 L306 99 Z " />
<glyph glyph-name="logicalnot" unicode="&#xac;" horiz-adv-x="618" d="M439 149 L439 344 L60 344 L60 426 L523 426 L523 149 L439 149 Z " />
<glyph glyph-name="uni00AD" unicode="&#xad;" horiz-adv-x="358" d="M20 246 L37 328 L308 328 L291 246 L20 246 Z " />
<glyph glyph-name="registered" unicode="&#xae;" horiz-adv-x="826" d="M40 355 Q40 431 68.5 498 Q97 565 146.5 615.5 Q196 666 262 695 Q328 724 404 724 Q480 724 547 695 Q614 666 663.5 615.5 Q713 565 742 498 Q771 431 771 355 Q771 279 742 211.5 Q713 144 663.5 94 Q614 44 547 14.5 Q480 -15 404 -15 Q328 -15 262 14.5 Q196 44 146.5 94 Q97 144 68.5 211.5 Q40 279 40 355 Z M118 355 Q118 292 140 237.5 Q162 183 201 143.5 Q240 104 292 81 Q344 58 404 58 Q464 58 516 81 Q568 104 607 143.5 Q646 183 668 237.5 Q690 292 690 355 Q690 418 668 472 Q646 526 607 566 Q568 606 516 628.5 Q464 651 404 651 Q344 651 292 628.5 Q240 606 201 566 Q162 526 140 472 Q118 418 118 355 Z M421 367 Q461 367 485.5 386 Q510 405 510 443 Q510 494 447 494 L397 494 L368 367 L421 367 Z M398 306 L356 306 L325 157 L252 157 L337 558 L469 558 Q495 558 516.5 548.5 Q538 539 553 523.5 Q568 508 576 488 Q584 468 584 446 Q584 392 551 356.5 Q518 321 466 312 L531 157 L457 157 L398 306 Z " />
<glyph glyph-name="macron" unicode="&#xaf;" horiz-adv-x="330" d="M65 577 L82 658 L355 658 L338 577 L65 577 Z " />
<glyph glyph-name="degree" unicode="&#xb0;" horiz-adv-x="399" d="M206 426 Q239 426 265 450.5 Q291 475 291 517 Q291 547 272 565.5 Q253 584 221 584 Q205 584 190 577.5 Q175 571 163.5 559 Q152 547 145 530.5 Q138 514 138 495 Q138 465 156 445.5 Q174 426 206 426 Z M198 348 Q167 348 140.5 359 Q114 370 95 389 Q76 408 65.5 433.5 Q55 459 55 489 Q55 524 69 555.5 Q83 587 106.5 611 Q130 635 162 649 Q194 663 230 663 Q261 663 287 652 Q313 641 332.5 621.5 Q352 602 363 576 Q374 550 374 520 Q374 483 359 451.5 Q344 420 319 397 Q294 374 262.5 361 Q231 348 198 348 Z " />
<glyph glyph-name="plusminus" unicode="&#xb1;" horiz-adv-x="592" d="M324 175 L242 175 L242 309 L65 309 L65 386 L242 386 L242 522 L324 522 L324 386 L502 386 L502 309 L324 309 L324 175 Z M65 130 L502 130 L502 51 L65 51 L65 130 Z " />
<glyph glyph-name="twosuperior" unicode="&#xb2;" horiz-adv-x="381" d="M233 538 Q290 563 290 603 Q290 620 277.5 635.5 Q265 651 239 651 Q210 651 191.5 632.5 Q173 614 173 574 L98 574 Q98 643 138 679 Q178 715 241 715 Q272 715 296 706 Q320 697 336 682 Q352 667 360 647.5 Q368 628 368 607 Q368 563 342 532 Q316 501 272 482 L196 449 Q177 441 168 430.5 Q159 420 154 409 L338 409 L324 344 L50 344 Q56 403 85 444 Q114 485 170 510 L233 538 Z " />
<glyph glyph-name="threesuperior" unicode="&#xb3;" horiz-adv-x="425" d="M172 575 L286 644 L126 644 L140 709 L400 709 L386 635 L272 568 Q308 561 332.5 533.5 Q357 506 357 469 Q357 443 347 419.5 Q337 396 318.5 377.5 Q300 359 272.5 348 Q245 337 210 337 Q183 337 158.5 345 Q134 353 115.5 367.5 Q97 382 86 403.5 Q75 425 75 452 Q75 461 77 471 L146 476 Q145 472 145 465 Q145 440 162.5 421.5 Q180 403 209 403 Q239 403 260 419 Q281 435 281 467 Q281 492 263 505.5 Q245 519 222 519 Q208 519 198 515 L172 575 Z " />
<glyph glyph-name="acute" unicode="&#xb4;" horiz-adv-x="279" d="M149 543 L65 543 L180 689 L304 689 L149 543 Z " />
<glyph glyph-name="mu" unicode="&#xb5;" horiz-adv-x="577" d="M65 481 L160 481 L160 192 Q160 167 166 144.5 Q172 122 185 105 Q198 88 218.5 78 Q239 68 269 68 Q326 68 354.5 102 Q383 136 383 191 L383 481 L477 481 L477 89 Q477 54 479 30 Q481 6 482 0 L392 0 Q390 8 389 25.5 Q388 43 388 58 Q368 20 328 2.5 Q288 -15 246 -15 Q197 -15 159 5 L159 -190 L65 -190 L65 481 Z " />
<glyph glyph-name="paragraph" unicode="&#xb6;" horiz-adv-x="626" d="M205 -201 L122 -201 L233 321 L224 321 Q189 321 159 333 Q129 345 107 366.5 Q85 388 72.5 417 Q60 446 60 480 Q60 535 83.5 578 Q107 621 145 650 Q183 679 232 694 Q281 709 331 709 L671 709 L654 628 L557 628 L381 -201 L298 -201 L474 628 L381 628 L205 -201 Z " />
<glyph glyph-name="periodcentered" unicode="&#xb7;" horiz-adv-x="272" d="M55 276 Q55 292 61 306 Q67 320 77.5 330.5 Q88 341 102.5 347.5 Q117 354 133 354 Q162 354 179.5 336 Q197 318 197 292 Q197 259 174 237 Q151 215 120 215 Q91 215 73 233 Q55 251 55 276 Z " />
<glyph glyph-name="cedilla" unicode="&#xb8;" horiz-adv-x="294" d="M154 14 L75 -52 Q109 -57 126 -77.5 Q143 -98 143 -124 Q143 -163 111 -189.5 Q79 -216 28 -216 Q2 -216 -19 -209 Q-40 -202 -56 -191.5 Q-72 -181 -82 -168.5 Q-92 -156 -96 -145 L-44 -113 Q-42 -118 -37 -126.5 Q-32 -135 -23.5 -142.5 Q-15 -150 -2.5 -155.5 Q10 -161 27 -161 Q44 -161 58.5 -152.5 Q73 -144 73 -126 Q73 -111 61.5 -102 Q50 -93 30 -93 Q28 -93 24 -93 Q20 -93 16 -94 L-6 -52 L70 14 L154 14 Z " />
<glyph glyph-name="onesuperior" unicode="&#xb9;" horiz-adv-x="290" d="M99 344 L155 594 L75 594 L85 645 Q122 647 149 664.5 Q176 682 187 709 L255 709 L176 344 L99 344 Z " />
<glyph glyph-name="ordmasculine" unicode="&#xba;" horiz-adv-x="455" d="M243 591 Q222 591 203 582 Q184 573 169 555.5 Q154 538 145.5 513.5 Q137 489 137 458 Q137 415 159 390.5 Q181 366 217 366 Q237 366 256.5 374.5 Q276 383 291 400 Q306 417 315 442 Q324 467 324 500 Q324 542 302.5 566.5 Q281 591 243 591 Z M400 502 Q400 460 386 423 Q372 386 347 358.5 Q322 331 288 315 Q254 299 214 299 Q178 299 149.5 311.5 Q121 324 101.5 345 Q82 366 71.5 394.5 Q61 423 61 455 Q61 499 75.5 536.5 Q90 574 115 601 Q140 628 174.5 643.5 Q209 659 248 659 Q285 659 313 646.5 Q341 634 360.5 612.5 Q380 591 390 562.5 Q400 534 400 502 Z " />
<glyph glyph-name="guillemotright" unicode="&#xbb;" horiz-adv-x="492" d="M141 481 L239 287 L68 99 L-35 99 L141 296 L48 481 L141 481 Z M349 481 L447 287 L276 99 L173 99 L349 296 L256 481 L349 481 Z " />
<glyph glyph-name="onequarter" unicode="&#xbc;" horiz-adv-x="796" d="M385 162 L591 366 L679 366 L631 142 L696 142 L682 77 L618 77 Q617 73 615.5 65.5 Q614 58 611 43 Q608 28 602 1 L526 1 L542 77 L369 77 L385 162 Z M586 279 L448 142 L555 142 L586 279 Z M113 283 L169 533 L89 533 L99 584 Q136 586 163 603.5 Q190 621 201 648 L269 648 L190 283 L113 283 Z M112 0 L15 0 L621 648 L716 648 L112 0 Z " />
<glyph glyph-name="onehalf" unicode="&#xbd;" horiz-adv-x="815" d="M112 0 L15 0 L621 648 L716 648 L112 0 Z M113 283 L169 533 L89 533 L99 584 Q136 586 163 603.5 Q190 621 201 648 L269 648 L190 283 L113 283 Z M610 195 Q667 220 667 260 Q667 277 654.5 292.5 Q642 308 616 308 Q587 308 568.5 289.5 Q550 271 550 231 L475 231 Q475 300 515 336 Q555 372 618 372 Q649 372 673 363 Q697 354 713 339 Q729 324 737 304.5 Q745 285 745 264 Q745 220 719 189 Q693 158 649 139 L573 106 Q554 98 545 87.5 Q536 77 531 66 L715 66 L701 1 L427 1 Q433 60 462 101 Q491 142 547 167 L610 195 Z " />
<glyph glyph-name="threequarters" unicode="&#xbe;" horiz-adv-x="884" d="M473 162 L679 366 L767 366 L719 142 L784 142 L770 77 L706 77 Q705 73 703.5 65.5 Q702 58 699 43 Q696 28 690 1 L614 1 L630 77 L457 77 L473 162 Z M674 279 L536 142 L643 142 L674 279 Z M200 0 L103 0 L709 648 L804 648 L200 0 Z M153 514 L267 583 L107 583 L121 648 L381 648 L367 574 L253 507 Q289 500 313.5 472.5 Q338 445 338 408 Q338 382 328 358.5 Q318 335 299.5 316.5 Q281 298 253.5 287 Q226 276 191 276 Q164 276 139.5 284 Q115 292 96.5 306.5 Q78 321 67 342.5 Q56 364 56 391 Q56 400 58 410 L127 415 Q126 411 126 404 Q126 379 143.5 360.5 Q161 342 190 342 Q220 342 241 358 Q262 374 262 406 Q262 431 244 444.5 Q226 458 203 458 Q189 458 179 454 L153 514 Z " />
<glyph glyph-name="questiondown" unicode="&#xbf;" horiz-adv-x="457" d="M287 288 Q282 228 254.5 180 Q227 132 167 97 L116 67 Q41 23 41 -50 Q41 -68 47 -85.5 Q53 -103 66 -116 Q79 -129 99.5 -137 Q120 -145 148 -145 Q185 -145 212 -132 Q239 -119 257 -97 Q275 -75 283.5 -46.5 Q292 -18 292 12 L387 -1 Q385 -52 366.5 -94.5 Q348 -137 316 -168 Q284 -199 238.5 -216 Q193 -233 138 -233 Q90 -233 53 -219 Q16 -205 -9 -182 Q-34 -159 -47 -128.5 Q-60 -98 -60 -65 Q-60 -27 -49.5 4 Q-39 35 -20.5 60 Q-2 85 23.5 105 Q49 125 78 142 L132 173 Q167 193 183 223.5 Q199 254 201 288 L287 288 Z M326 438 Q326 409 305.5 387 Q285 365 254 365 Q227 365 210.5 381.5 Q194 398 194 423 Q194 454 215.5 475 Q237 496 265 496 Q292 496 309 479.5 Q326 463 326 438 Z " />
<glyph glyph-name="Agrave" unicode="&#xc0;" horiz-adv-x="654" d="M453 198 L156 198 L41 0 L-70 0 L353 709 L461 709 L584 0 L485 0 L453 198 Z M209 289 L438 289 L388 599 L209 289 Z M266 878 L384 878 L459 759 L373 759 L266 878 Z " />
<glyph glyph-name="Aacute" unicode="&#xc1;" horiz-adv-x="654" d="M453 198 L156 198 L41 0 L-70 0 L353 709 L461 709 L584 0 L485 0 L453 198 Z M209 289 L438 289 L388 599 L209 289 Z M463 759 L366 759 L485 878 L616 878 L463 759 Z " />
<glyph glyph-name="Acircumflex" unicode="&#xc2;" horiz-adv-x="654" d="M453 198 L156 198 L41 0 L-70 0 L353 709 L461 709 L584 0 L485 0 L453 198 Z M209 289 L438 289 L388 599 L209 289 Z M236 759 L371 878 L491 878 L581 759 L498 759 L424 823 L323 759 L236 759 Z " />
<glyph glyph-name="Atilde" unicode="&#xc3;" horiz-adv-x="654" d="M453 198 L156 198 L41 0 L-70 0 L353 709 L461 709 L584 0 L485 0 L453 198 Z M209 289 L438 289 L388 599 L209 289 Z M586 881 Q574 810 544 782.5 Q514 755 473 755 Q452 755 434 762.5 Q416 770 403 779 L391 787 Q382 793 373 797 Q364 801 353 801 Q339 801 329 791 Q319 781 314 757 L244 757 Q248 791 258.5 815 Q269 839 284 854 Q299 869 318 876 Q337 883 358 883 Q379 883 397 875.5 Q415 868 428 859 L440 851 Q449 845 458 841 Q467 837 478 837 Q492 837 502 847 Q512 857 517 881 L586 881 Z " />
<glyph glyph-name="Adieresis" unicode="&#xc4;" horiz-adv-x="654" d="M215 813 Q215 842 234 860 Q253 878 281 878 Q304 878 318.5 863 Q333 848 333 826 Q333 797 313.5 778.5 Q294 760 268 760 Q245 760 230 775 Q215 790 215 813 Z M503 813 Q503 842 522 860 Q541 878 569 878 Q592 878 606.5 863 Q621 848 621 826 Q621 797 601.5 778.5 Q582 760 556 760 Q533 760 518 775 Q503 790 503 813 Z M453 198 L156 198 L41 0 L-70 0 L353 709 L461 709 L584 0 L485 0 L453 198 Z M209 289 L438 289 L388 599 L209 289 Z " />
<glyph glyph-name="Aring" unicode="&#xc5;" horiz-adv-x="654" d="M410 811 Q390 811 372 796 Q354 781 354 756 Q354 734 367 721.5 Q380 709 402 709 Q425 709 442 724 Q459 739 459 764 Q459 784 445.5 797.5 Q432 811 410 811 Z M209 289 L438 289 L388 599 L209 289 Z M453 198 L156 198 L41 0 L-70 0 L326 663 Q306 678 295 699.5 Q284 721 284 747 Q284 777 295.5 801.5 Q307 826 326 843.5 Q345 861 369 870.5 Q393 880 418 880 Q442 880 462.5 871 Q483 862 498.5 847 Q514 832 522.5 812 Q531 792 531 770 Q531 738 514 708.5 Q497 679 469 661 L584 0 L485 0 L453 198 Z " />
<glyph glyph-name="AE" unicode="&#xc6;" horiz-adv-x="1019" d="M903 91 L884 0 L458 0 L498 191 L217 191 L54 0 L-70 0 L545 709 L1034 709 L1015 618 L687 618 L641 400 L938 400 L918 308 L621 308 L575 91 L903 91 Z M517 279 L591 629 L292 279 L517 279 Z " />
<glyph glyph-name="Ccedilla" unicode="&#xc7;" horiz-adv-x="719" d="M279 -10 Q225 -1 180 25.5 Q135 52 102.5 92.5 Q70 133 52.5 186 Q35 239 35 301 Q35 405 68 484 Q101 563 155 616.5 Q209 670 277.5 697 Q346 724 417 724 Q480 724 529.5 706.5 Q579 689 614.5 658 Q650 627 672.5 586 Q695 545 704 499 L611 472 Q604 506 587.5 535.5 Q571 565 545.5 587 Q520 609 485 621.5 Q450 634 407 634 Q342 634 291 606.5 Q240 579 205.5 533.5 Q171 488 153 429 Q135 370 135 307 Q135 198 190.5 136 Q246 74 344 74 Q419 74 478 114 Q537 154 572 234 L658 199 Q616 104 539.5 47.5 Q463 -9 357 -14 L312 -52 Q346 -57 363 -77.5 Q380 -98 380 -124 Q380 -163 348 -189.5 Q316 -216 265 -216 Q239 -216 218 -208.5 Q197 -201 181.5 -190.5 Q166 -180 155.5 -167.5 Q145 -155 141 -145 L193 -113 Q195 -118 200 -126.5 Q205 -135 213.5 -142.5 Q222 -150 234.5 -155.5 Q247 -161 264 -161 Q281 -161 295.5 -152.5 Q310 -144 310 -126 Q310 -111 297.5 -102 Q285 -93 267 -93 Q265 -93 261 -93 Q257 -93 253 -94 L231 -52 L279 -10 Z " />
<glyph glyph-name="Egrave" unicode="&#xc8;" horiz-adv-x="576" d="M15 0 L165 709 L591 709 L572 618 L244 618 L198 400 L495 400 L475 308 L178 308 L132 91 L460 91 L441 0 L15 0 Z M260 878 L378 878 L453 759 L367 759 L260 878 Z " />
<glyph glyph-name="Eacute" unicode="&#xc9;" horiz-adv-x="576" d="M15 0 L165 709 L591 709 L572 618 L244 618 L198 400 L495 400 L475 308 L178 308 L132 91 L460 91 L441 0 L15 0 Z M409 759 L312 759 L431 878 L562 878 L409 759 Z " />
<glyph glyph-name="Ecircumflex" unicode="&#xca;" horiz-adv-x="576" d="M15 0 L165 709 L591 709 L572 618 L244 618 L198 400 L495 400 L475 308 L178 308 L132 91 L460 91 L441 0 L15 0 Z M215 759 L350 878 L470 878 L560 759 L477 759 L403 823 L302 759 L215 759 Z " />
<glyph glyph-name="Edieresis" unicode="&#xcb;" horiz-adv-x="576" d="M221 813 Q221 842 240 860 Q259 878 287 878 Q310 878 324.5 863 Q339 848 339 826 Q339 797 319.5 778.5 Q300 760 274 760 Q251 760 236 775 Q221 790 221 813 Z M451 813 Q451 842 470 860 Q489 878 517 878 Q540 878 554.5 863 Q569 848 569 826 Q569 797 549.5 778.5 Q530 760 504 760 Q481 760 466 775 Q451 790 451 813 Z M15 0 L165 709 L591 709 L572 618 L244 618 L198 400 L495 400 L475 308 L178 308 L132 91 L460 91 L441 0 L15 0 Z " />
<glyph glyph-name="Igrave" unicode="&#xcc;" horiz-adv-x="280" d="M89 878 L207 878 L282 759 L196 759 L89 878 Z M15 0 L165 709 L265 709 L115 0 L15 0 Z " />
<glyph glyph-name="Iacute" unicode="&#xcd;" horiz-adv-x="280" d="M275 759 L178 759 L297 878 L428 878 L275 759 Z M15 0 L165 709 L265 709 L115 0 L15 0 Z " />
<glyph glyph-name="Icircumflex" unicode="&#xce;" horiz-adv-x="280" d="M52 759 L187 878 L307 878 L397 759 L314 759 L240 823 L139 759 L52 759 Z M15 0 L165 709 L265 709 L115 0 L15 0 Z " />
<glyph glyph-name="Idieresis" unicode="&#xcf;" horiz-adv-x="280" d="M102 813 Q102 839 119 855.5 Q136 872 162 872 Q182 872 195 858.5 Q208 845 208 826 Q208 800 190.5 783 Q173 766 149 766 Q129 766 115.5 779.5 Q102 793 102 813 Z M257 813 Q257 839 274 855.5 Q291 872 317 872 Q337 872 350 858.5 Q363 845 363 826 Q363 800 345.5 783 Q328 766 304 766 Q284 766 270.5 779.5 Q257 793 257 813 Z M15 0 L165 709 L265 709 L115 0 L15 0 Z " />
<glyph glyph-name="Eth" unicode="&#xd0;" horiz-adv-x="690" d="M32 402 L100 402 L165 709 L358 709 Q426 709 481 689 Q536 669 574.5 632 Q613 595 634 542.5 Q655 490 655 426 Q655 321 622 241.5 Q589 162 536 108 Q483 54 414.5 27 Q346 0 276 0 L15 0 L82 320 L15 320 L32 402 Z M276 87 Q325 87 375.5 108 Q426 129 466 171 Q506 213 531.5 275 Q557 337 557 420 Q557 520 500 571 Q443 622 340 622 L245 622 L198 402 L348 402 L331 320 L180 320 L131 87 L276 87 Z " />
<glyph glyph-name="Ntilde" unicode="&#xd1;" horiz-adv-x="738" d="M639 881 Q627 810 597 782.5 Q567 755 526 755 Q505 755 487 762.5 Q469 770 456 779 L444 787 Q435 793 426 797 Q417 801 406 801 Q392 801 382 791 Q372 781 367 757 L297 757 Q301 791 311.5 815 Q322 839 337 854 Q352 869 371 876 Q390 883 411 883 Q432 883 450 875.5 Q468 868 481 859 L493 851 Q502 845 511 841 Q520 837 531 837 Q545 837 555 847 Q565 857 570 881 L639 881 Z M471 0 L235 574 L113 0 L15 0 L165 709 L282 709 L507 155 L625 709 L723 709 L573 0 L471 0 Z " />
<glyph glyph-name="Ograve" unicode="&#xd2;" horiz-adv-x="753" d="M35 294 Q35 400 68 480.5 Q101 561 154.5 615 Q208 669 275.5 696.5 Q343 724 412 724 Q481 724 537.5 702 Q594 680 634 639.5 Q674 599 696 541.5 Q718 484 718 414 Q718 308 685 227.5 Q652 147 598.5 93 Q545 39 478 12 Q411 -15 342 -15 Q273 -15 216 7.5 Q159 30 119 70.5 Q79 111 57 168 Q35 225 35 294 Z M618 404 Q618 459 602 502 Q586 545 557.5 574.5 Q529 604 490.5 619 Q452 634 406 634 Q341 634 290.5 606 Q240 578 205.5 532 Q171 486 153 426.5 Q135 367 135 304 Q135 248 151 205.5 Q167 163 195.5 134 Q224 105 262.5 90 Q301 75 347 75 Q412 75 462.5 102.5 Q513 130 547.5 176 Q582 222 600 281.5 Q618 341 618 404 Z M304 878 L422 878 L497 759 L411 759 L304 878 Z " />
<glyph glyph-name="Oacute" unicode="&#xd3;" horiz-adv-x="753" d="M35 294 Q35 400 68 480.5 Q101 561 154.5 615 Q208 669 275.5 696.5 Q343 724 412 724 Q481 724 537.5 702 Q594 680 634 639.5 Q674 599 696 541.5 Q718 484 718 414 Q718 308 685 227.5 Q652 147 598.5 93 Q545 39 478 12 Q411 -15 342 -15 Q273 -15 216 7.5 Q159 30 119 70.5 Q79 111 57 168 Q35 225 35 294 Z M618 404 Q618 459 602 502 Q586 545 557.5 574.5 Q529 604 490.5 619 Q452 634 406 634 Q341 634 290.5 606 Q240 578 205.5 532 Q171 486 153 426.5 Q135 367 135 304 Q135 248 151 205.5 Q167 163 195.5 134 Q224 105 262.5 90 Q301 75 347 75 Q412 75 462.5 102.5 Q513 130 547.5 176 Q582 222 600 281.5 Q618 341 618 404 Z M486 759 L389 759 L508 878 L639 878 L486 759 Z " />
<glyph glyph-name="Ocircumflex" unicode="&#xd4;" horiz-adv-x="753" d="M35 294 Q35 400 68 480.5 Q101 561 154.5 615 Q208 669 275.5 696.5 Q343 724 412 724 Q481 724 537.5 702 Q594 680 634 639.5 Q674 599 696 541.5 Q718 484 718 414 Q718 308 685 227.5 Q652 147 598.5 93 Q545 39 478 12 Q411 -15 342 -15 Q273 -15 216 7.5 Q159 30 119 70.5 Q79 111 57 168 Q35 225 35 294 Z M618 404 Q618 459 602 502 Q586 545 557.5 574.5 Q529 604 490.5 619 Q452 634 406 634 Q341 634 290.5 606 Q240 578 205.5 532 Q171 486 153 426.5 Q135 367 135 304 Q135 248 151 205.5 Q167 163 195.5 134 Q224 105 262.5 90 Q301 75 347 75 Q412 75 462.5 102.5 Q513 130 547.5 176 Q582 222 600 281.5 Q618 341 618 404 Z M262 759 L397 878 L517 878 L607 759 L524 759 L450 823 L349 759 L262 759 Z " />
<glyph glyph-name="Otilde" unicode="&#xd5;" horiz-adv-x="753" d="M626 881 Q614 810 584 782.5 Q554 755 513 755 Q492 755 474 762.5 Q456 770 443 779 L431 787 Q422 793 413 797 Q404 801 393 801 Q379 801 369 791 Q359 781 354 757 L284 757 Q288 791 298.5 815 Q309 839 324 854 Q339 869 358 876 Q377 883 398 883 Q419 883 437 875.5 Q455 868 468 859 L480 851 Q489 845 498 841 Q507 837 518 837 Q532 837 542 847 Q552 857 557 881 L626 881 Z M35 294 Q35 400 68 480.5 Q101 561 154.5 615 Q208 669 275.5 696.5 Q343 724 412 724 Q481 724 537.5 702 Q594 680 634 639.5 Q674 599 696 541.5 Q718 484 718 414 Q718 308 685 227.5 Q652 147 598.5 93 Q545 39 478 12 Q411 -15 342 -15 Q273 -15 216 7.5 Q159 30 119 70.5 Q79 111 57 168 Q35 225 35 294 Z M618 404 Q618 459 602 502 Q586 545 557.5 574.5 Q529 604 490.5 619 Q452 634 406 634 Q341 634 290.5 606 Q240 578 205.5 532 Q171 486 153 426.5 Q135 367 135 304 Q135 248 151 205.5 Q167 163 195.5 134 Q224 105 262.5 90 Q301 75 347 75 Q412 75 462.5 102.5 Q513 130 547.5 176 Q582 222 600 281.5 Q618 341 618 404 Z " />
<glyph glyph-name="Odieresis" unicode="&#xd6;" horiz-adv-x="753" d="M230 813 Q230 842 249 860 Q268 878 296 878 Q319 878 333.5 863 Q348 848 348 826 Q348 797 328.5 778.5 Q309 760 283 760 Q260 760 245 775 Q230 790 230 813 Z M550 813 Q550 842 569 860 Q588 878 616 878 Q639 878 653.5 863 Q668 848 668 826 Q668 797 648.5 778.5 Q629 760 603 760 Q580 760 565 775 Q550 790 550 813 Z M35 294 Q35 400 68 480.5 Q101 561 154.5 615 Q208 669 275.5 696.5 Q343 724 412 724 Q481 724 537.5 702 Q594 680 634 639.5 Q674 599 696 541.5 Q718 484 718 414 Q718 308 685 227.5 Q652 147 598.5 93 Q545 39 478 12 Q411 -15 342 -15 Q273 -15 216 7.5 Q159 30 119 70.5 Q79 111 57 168 Q35 225 35 294 Z M618 404 Q618 459 602 502 Q586 545 557.5 574.5 Q529 604 490.5 619 Q452 634 406 634 Q341 634 290.5 606 Q240 578 205.5 532 Q171 486 153 426.5 Q135 367 135 304 Q135 248 151 205.5 Q167 163 195.5 134 Q224 105 262.5 90 Q301 75 347 75 Q412 75 462.5 102.5 Q513 130 547.5 176 Q582 222 600 281.5 Q618 341 618 404 Z " />
<glyph glyph-name="multiply" unicode="&#xd7;" horiz-adv-x="540" d="M45 112 L214 287 L46 462 L103 519 L270 345 L437 519 L494 463 L325 288 L495 112 L439 55 L269 230 L101 56 L45 112 Z " />
<glyph glyph-name="Oslash" unicode="&#xd8;" horiz-adv-x="753" d="M35 294 Q35 400 68 480.5 Q101 561 154.5 615 Q208 669 275.5 696.5 Q343 724 412 724 Q475 724 527 706 Q579 688 618 654 L695 731 L754 674 L672 591 Q718 517 718 414 Q718 308 685 227.5 Q652 147 598.5 93 Q545 39 478 12 Q411 -15 342 -15 Q218 -15 138 53 L65 -21 L6 36 L84 114 Q35 189 35 294 Z M135 304 Q135 238 158 189 L549 584 Q521 609 484.5 621.5 Q448 634 406 634 Q341 634 290.5 606 Q240 578 205.5 532 Q171 486 153 426.5 Q135 367 135 304 Z M618 404 Q618 468 597 516 L208 123 Q262 75 347 75 Q412 75 462.5 102.5 Q513 130 547.5 176 Q582 222 600 281.5 Q618 341 618 404 Z " />
<glyph glyph-name="Ugrave" unicode="&#xd9;" horiz-adv-x="666" d="M661 709 L557 216 Q534 105 463 45 Q392 -15 288 -15 Q182 -15 119 39.5 Q56 94 56 196 Q56 213 57.5 231.5 Q59 250 64 270 L157 709 L251 709 L159 258 Q153 229 153 204 Q153 145 187 110.5 Q221 76 293 76 Q359 76 402 115 Q445 154 460 225 L562 709 L661 709 Z M284 878 L402 878 L477 759 L391 759 L284 878 Z " />
<glyph glyph-name="Uacute" unicode="&#xda;" horiz-adv-x="666" d="M661 709 L557 216 Q534 105 463 45 Q392 -15 288 -15 Q182 -15 119 39.5 Q56 94 56 196 Q56 213 57.5 231.5 Q59 250 64 270 L157 709 L251 709 L159 258 Q153 229 153 204 Q153 145 187 110.5 Q221 76 293 76 Q359 76 402 115 Q445 154 460 225 L562 709 L661 709 Z M435 759 L338 759 L457 878 L588 878 L435 759 Z " />
<glyph glyph-name="Ucircumflex" unicode="&#xdb;" horiz-adv-x="666" d="M661 709 L557 216 Q534 105 463 45 Q392 -15 288 -15 Q182 -15 119 39.5 Q56 94 56 196 Q56 213 57.5 231.5 Q59 250 64 270 L157 709 L251 709 L159 258 Q153 229 153 204 Q153 145 187 110.5 Q221 76 293 76 Q359 76 402 115 Q445 154 460 225 L562 709 L661 709 Z M242 759 L377 878 L497 878 L587 759 L504 759 L430 823 L329 759 L242 759 Z " />
<glyph glyph-name="Udieresis" unicode="&#xdc;" horiz-adv-x="666" d="M257 813 Q257 842 276 860 Q295 878 323 878 Q346 878 360.5 863 Q375 848 375 826 Q375 797 355.5 778.5 Q336 760 310 760 Q287 760 272 775 Q257 790 257 813 Z M467 813 Q467 842 486 860 Q505 878 533 878 Q556 878 570.5 863 Q585 848 585 826 Q585 797 565.5 778.5 Q546 760 520 760 Q497 760 482 775 Q467 790 467 813 Z M661 709 L557 216 Q534 105 463 45 Q392 -15 288 -15 Q182 -15 119 39.5 Q56 94 56 196 Q56 213 57.5 231.5 Q59 250 64 270 L157 709 L251 709 L159 258 Q153 229 153 204 Q153 145 187 110.5 Q221 76 293 76 Q359 76 402 115 Q445 154 460 225 L562 709 L661 709 Z " />
<glyph glyph-name="Yacute" unicode="&#xdd;" horiz-adv-x="611" d="M95 709 L198 709 L321 398 L549 709 L666 709 L353 299 L291 0 L193 0 L257 305 L95 709 Z M413 759 L316 759 L435 878 L566 878 L413 759 Z " />
<glyph glyph-name="Thorn" unicode="&#xde;" horiz-adv-x="594" d="M216 483 L164 242 L303 242 Q338 242 367.5 251.5 Q397 261 419 279 Q441 297 453 323.5 Q465 350 465 384 Q465 429 435.5 456 Q406 483 350 483 L216 483 Z M15 0 L165 709 L263 709 L233 570 L366 570 Q412 570 449 556.5 Q486 543 511.5 519 Q537 495 550.5 462 Q564 429 564 390 Q564 336 543.5 292.5 Q523 249 488 218.5 Q453 188 405 171.5 Q357 155 303 155 L146 155 L113 0 L15 0 Z " />
<glyph glyph-name="germandbls" unicode="&#xdf;" horiz-adv-x="572" d="M359 329 Q359 316 369.5 305.5 Q380 295 392 285 L420 262 Q449 238 469.5 206 Q490 174 490 136 Q490 111 480.5 84.5 Q471 58 450.5 36 Q430 14 398.5 -0.5 Q367 -15 323 -15 Q292 -15 264.5 -5.5 Q237 4 216 21 Q195 38 182.5 63 Q170 88 170 119 Q170 125 170 131.5 Q170 138 172 145 L259 158 Q256 147 256 137 Q256 125 259 112 Q262 99 270.5 88 Q279 77 292.5 70 Q306 63 327 63 Q346 63 359.5 69.5 Q373 76 381 85 Q389 94 392.5 104.5 Q396 115 396 124 Q396 147 385.5 159.5 Q375 172 358 187 L333 208 Q302 234 282.5 264 Q263 294 263 327 Q263 373 286.5 400.5 Q310 428 341 444 L376 462 Q407 478 429.5 499.5 Q452 521 452 557 Q452 572 445.5 587 Q439 602 425.5 614 Q412 626 392 633.5 Q372 641 346 641 Q324 641 302.5 634 Q281 627 262 610.5 Q243 594 228 567 Q213 540 205 501 L99 0 L5 0 L113 516 Q124 570 147.5 609.5 Q171 649 202.5 674.5 Q234 700 272.5 712 Q311 724 352 724 Q400 724 436 710.5 Q472 697 497 674.5 Q522 652 534.5 623 Q547 594 547 562 Q547 525 535.5 497.5 Q524 470 506.5 450 Q489 430 467.5 416.5 Q446 403 426 393 L395 378 Q380 370 369.5 359.5 Q359 349 359 329 Z " />
<glyph glyph-name="agrave" unicode="&#xe0;" horiz-adv-x="567" d="M168 689 L280 689 L336 543 L262 543 L168 689 Z M266 414 Q227 414 196.5 394.5 Q166 375 146 344.5 Q126 314 115.5 276 Q105 238 105 202 Q105 145 133 108 Q161 71 219 71 Q253 71 282.5 88 Q312 105 333 134 Q354 163 366 203 Q378 243 378 290 Q378 342 351 378 Q324 414 266 414 Z M517 481 L442 125 Q434 87 432.5 59 Q431 31 431 16 Q431 14 431 10 Q431 6 432 0 L343 0 Q341 10 341 28 Q341 33 341 41.5 Q341 50 343 61 Q318 31 281.5 10.5 Q245 -10 200 -10 Q153 -10 117.5 6.5 Q82 23 58 51.5 Q34 80 22 118.5 Q10 157 10 201 Q10 259 28.5 312.5 Q47 366 80 406.5 Q113 447 159 471 Q205 495 261 495 Q322 495 358.5 472 Q395 449 411 420 L424 481 L517 481 Z " />
<glyph glyph-name="aacute" unicode="&#xe1;" horiz-adv-x="567" d="M333 543 L249 543 L364 689 L488 689 L333 543 Z M266 414 Q227 414 196.5 394.5 Q166 375 146 344.5 Q126 314 115.5 276 Q105 238 105 202 Q105 145 133 108 Q161 71 219 71 Q253 71 282.5 88 Q312 105 333 134 Q354 163 366 203 Q378 243 378 290 Q378 342 351 378 Q324 414 266 414 Z M517 481 L442 125 Q434 87 432.5 59 Q431 31 431 16 Q431 14 431 10 Q431 6 432 0 L343 0 Q341 10 341 28 Q341 33 341 41.5 Q341 50 343 61 Q318 31 281.5 10.5 Q245 -10 200 -10 Q153 -10 117.5 6.5 Q82 23 58 51.5 Q34 80 22 118.5 Q10 157 10 201 Q10 259 28.5 312.5 Q47 366 80 406.5 Q113 447 159 471 Q205 495 261 495 Q322 495 358.5 472 Q395 449 411 420 L424 481 L517 481 Z " />
<glyph glyph-name="acircumflex" unicode="&#xe2;" horiz-adv-x="567" d="M131 545 L262 684 L375 684 L446 545 L361 545 L309 626 L221 545 L131 545 Z M266 414 Q227 414 196.5 394.5 Q166 375 146 344.5 Q126 314 115.5 276 Q105 238 105 202 Q105 145 133 108 Q161 71 219 71 Q253 71 282.5 88 Q312 105 333 134 Q354 163 366 203 Q378 243 378 290 Q378 342 351 378 Q324 414 266 414 Z M517 481 L442 125 Q434 87 432.5 59 Q431 31 431 16 Q431 14 431 10 Q431 6 432 0 L343 0 Q341 10 341 28 Q341 33 341 41.5 Q341 50 343 61 Q318 31 281.5 10.5 Q245 -10 200 -10 Q153 -10 117.5 6.5 Q82 23 58 51.5 Q34 80 22 118.5 Q10 157 10 201 Q10 259 28.5 312.5 Q47 366 80 406.5 Q113 447 159 471 Q205 495 261 495 Q322 495 358.5 472 Q395 449 411 420 L424 481 L517 481 Z " />
<glyph glyph-name="atilde" unicode="&#xe3;" horiz-adv-x="567" d="M146 554 Q150 588 160.5 612 Q171 636 186 651 Q201 666 220 673 Q239 680 260 680 Q281 680 298 672.5 Q315 665 328 656 L340 648 Q349 642 357 638 Q365 634 376 634 Q390 634 400 644 Q410 654 415 678 L484 678 Q472 607 442 579.5 Q412 552 371 552 Q350 552 333 559.5 Q316 567 303 576 L291 584 Q282 590 274 594 Q266 598 255 598 Q241 598 231 588 Q221 578 216 554 L146 554 Z M266 414 Q227 414 196.5 394.5 Q166 375 146 344.5 Q126 314 115.5 276 Q105 238 105 202 Q105 145 133 108 Q161 71 219 71 Q253 71 282.5 88 Q312 105 333 134 Q354 163 366 203 Q378 243 378 290 Q378 342 351 378 Q324 414 266 414 Z M517 481 L442 125 Q434 87 432.5 59 Q431 31 431 16 Q431 14 431 10 Q431 6 432 0 L343 0 Q341 10 341 28 Q341 33 341 41.5 Q341 50 343 61 Q318 31 281.5 10.5 Q245 -10 200 -10 Q153 -10 117.5 6.5 Q82 23 58 51.5 Q34 80 22 118.5 Q10 157 10 201 Q10 259 28.5 312.5 Q47 366 80 406.5 Q113 447 159 471 Q205 495 261 495 Q322 495 358.5 472 Q395 449 411 420 L424 481 L517 481 Z " />
<glyph glyph-name="adieresis" unicode="&#xe4;" horiz-adv-x="567" d="M156 614 Q156 640 175 659.5 Q194 679 220 679 Q244 679 258.5 663 Q273 647 273 626 Q273 598 252.5 580.5 Q232 563 207 563 Q185 563 170.5 578 Q156 593 156 614 Z M351 614 Q351 640 370 659.5 Q389 679 415 679 Q439 679 453.5 663 Q468 647 468 626 Q468 598 447.5 580.5 Q427 563 402 563 Q380 563 365.5 578 Q351 593 351 614 Z M266 414 Q227 414 196.5 394.5 Q166 375 146 344.5 Q126 314 115.5 276 Q105 238 105 202 Q105 145 133 108 Q161 71 219 71 Q253 71 282.5 88 Q312 105 333 134 Q354 163 366 203 Q378 243 378 290 Q378 342 351 378 Q324 414 266 414 Z M517 481 L442 125 Q434 87 432.5 59 Q431 31 431 16 Q431 14 431 10 Q431 6 432 0 L343 0 Q341 10 341 28 Q341 33 341 41.5 Q341 50 343 61 Q318 31 281.5 10.5 Q245 -10 200 -10 Q153 -10 117.5 6.5 Q82 23 58 51.5 Q34 80 22 118.5 Q10 157 10 201 Q10 259 28.5 312.5 Q47 366 80 406.5 Q113 447 159 471 Q205 495 261 495 Q322 495 358.5 472 Q395 449 411 420 L424 481 L517 481 Z " />
<glyph glyph-name="aring" unicode="&#xe5;" horiz-adv-x="567" d="M321 750 Q343 750 361.5 742 Q380 734 394 720.5 Q408 707 416 689 Q424 671 424 650 Q424 627 414.5 605.5 Q405 584 388.5 567.5 Q372 551 350 541 Q328 531 304 531 Q260 531 229.5 559 Q199 587 199 629 Q199 656 209.5 678.5 Q220 701 237 716.5 Q254 732 276 741 Q298 750 321 750 Z M263 637 Q263 617 274.5 606 Q286 595 306 595 Q327 595 342.5 608.5 Q358 622 358 645 Q358 663 346 675 Q334 687 314 687 Q295 687 279 673.5 Q263 660 263 637 Z M266 414 Q227 414 196.5 394.5 Q166 375 146 344.5 Q126 314 115.5 276 Q105 238 105 202 Q105 145 133 108 Q161 71 219 71 Q253 71 282.5 88 Q312 105 333 134 Q354 163 366 203 Q378 243 378 290 Q378 342 351 378 Q324 414 266 414 Z M517 481 L442 125 Q434 87 432.5 59 Q431 31 431 16 Q431 14 431 10 Q431 6 432 0 L343 0 Q341 10 341 28 Q341 33 341 41.5 Q341 50 343 61 Q318 31 281.5 10.5 Q245 -10 200 -10 Q153 -10 117.5 6.5 Q82 23 58 51.5 Q34 80 22 118.5 Q10 157 10 201 Q10 259 28.5 312.5 Q47 366 80 406.5 Q113 447 159 471 Q205 495 261 495 Q322 495 358.5 472 Q395 449 411 420 L424 481 L517 481 Z " />
<glyph glyph-name="ae" unicode="&#xe6;" horiz-adv-x="853" d="M313 284 Q334 285 347 297.5 Q360 310 360 334 Q360 350 353.5 365 Q347 380 333.5 391.5 Q320 403 299.5 410 Q279 417 251 417 Q207 417 174.5 394 Q142 371 131 333 L50 359 Q60 392 81 417.5 Q102 443 130.5 460.5 Q159 478 192.5 487 Q226 496 262 496 Q321 496 361 475 Q401 454 422 422 Q458 458 503.5 477 Q549 496 599 496 Q648 496 685 481.5 Q722 467 747 441.5 Q772 416 785 380.5 Q798 345 798 302 Q798 273 793 249.5 Q788 226 784 214 L430 214 Q429 209 429 205.5 Q429 202 429 197 Q429 167 438.5 143.5 Q448 120 464.5 103 Q481 86 503.5 77 Q526 68 551 68 Q579 68 601.5 75 Q624 82 641.5 93.5 Q659 105 672 119 Q685 133 693 148 L764 102 Q751 78 730.5 57 Q710 36 683 20 Q656 4 623 -5.5 Q590 -15 553 -15 Q491 -15 441 11.5 Q391 38 365 91 Q352 71 334 52 Q316 33 292 18 Q268 3 238 -6 Q208 -15 170 -15 Q129 -15 97 -4.5 Q65 6 43 25 Q21 44 9.5 69 Q-2 94 -2 124 Q-2 158 12 186.5 Q26 215 49.5 235 Q73 255 105 266.5 Q137 278 173 279 L313 284 Z M95 129 Q95 97 119.5 80 Q144 63 178 63 Q201 63 226 71 Q251 79 273.5 97 Q296 115 313 144.5 Q330 174 337 216 L179 209 Q163 208 148 203 Q133 198 121 188.5 Q109 179 102 164 Q95 149 95 129 Z M594 413 Q564 413 539 402.5 Q514 392 494.5 375 Q475 358 462 336 Q449 314 443 290 L699 290 Q701 298 701 310 Q701 328 695.5 346.5 Q690 365 677.5 379.5 Q665 394 644.5 403.5 Q624 413 594 413 Z " />
<glyph glyph-name="ccedilla" unicode="&#xe7;" horiz-adv-x="498" d="M166 -8 Q90 10 47.5 68 Q5 126 5 207 Q5 271 25.5 324 Q46 377 82 415.5 Q118 454 166 475 Q214 496 268 496 Q317 496 352 482 Q387 468 410.5 445.5 Q434 423 448 396 Q462 369 468 344 L381 314 Q376 333 367 351 Q358 369 343.5 382.5 Q329 396 309 404 Q289 412 262 412 Q231 412 202 399 Q173 386 150.5 360.5 Q128 335 114 297 Q100 259 100 208 Q100 144 135.5 106.5 Q171 69 231 69 Q259 69 280 77 Q301 85 317.5 98 Q334 111 345.5 127 Q357 143 365 160 L445 125 Q431 99 412 75 Q393 51 368 31.5 Q343 12 311.5 -0.5 Q280 -13 241 -15 L197 -52 Q231 -57 248 -77.5 Q265 -98 265 -124 Q265 -163 233 -189.5 Q201 -216 150 -216 Q124 -216 103 -208.5 Q82 -201 66.5 -190.5 Q51 -180 40.5 -167.5 Q30 -155 26 -145 L78 -113 Q80 -118 85 -126.5 Q90 -135 98.5 -142.5 Q107 -150 119.5 -155.5 Q132 -161 149 -161 Q166 -161 180.5 -152.5 Q195 -144 195 -126 Q195 -111 182.5 -102 Q170 -93 152 -93 Q150 -93 146 -93 Q142 -93 138 -94 L116 -52 L166 -8 Z " />
<glyph glyph-name="egrave" unicode="&#xe8;" horiz-adv-x="528" d="M187 689 L299 689 L355 543 L281 543 L187 689 Z M374 290 Q376 298 376 310 Q376 328 370.5 346.5 Q365 365 352.5 379.5 Q340 394 319.5 403.5 Q299 413 269 413 Q239 413 214 402.5 Q189 392 169.5 375 Q150 358 137 336 Q124 314 118 290 L374 290 Z M105 214 Q104 209 104 205.5 Q104 202 104 197 Q104 167 113.5 143.5 Q123 120 139.5 103 Q156 86 178.5 77 Q201 68 226 68 Q254 68 276.5 75 Q299 82 316.5 93.5 Q334 105 347 119 Q360 133 368 148 L439 102 Q426 78 405.5 57 Q385 36 358 20 Q331 4 298 -5.5 Q265 -15 228 -15 Q183 -15 143.5 -1 Q104 13 74.5 40.5 Q45 68 27.5 109 Q10 150 10 204 Q10 272 32.5 326.5 Q55 381 92 418.5 Q129 456 176.5 476 Q224 496 274 496 Q323 496 360 481.5 Q397 467 422 441.5 Q447 416 460 380.5 Q473 345 473 302 Q473 273 468 249.5 Q463 226 459 214 L105 214 Z " />
<glyph glyph-name="eacute" unicode="&#xe9;" horiz-adv-x="528" d="M314 543 L230 543 L345 689 L469 689 L314 543 Z M374 290 Q376 298 376 310 Q376 328 370.5 346.5 Q365 365 352.5 379.5 Q340 394 319.5 403.5 Q299 413 269 413 Q239 413 214 402.5 Q189 392 169.5 375 Q150 358 137 336 Q124 314 118 290 L374 290 Z M105 214 Q104 209 104 205.5 Q104 202 104 197 Q104 167 113.5 143.5 Q123 120 139.5 103 Q156 86 178.5 77 Q201 68 226 68 Q254 68 276.5 75 Q299 82 316.5 93.5 Q334 105 347 119 Q360 133 368 148 L439 102 Q426 78 405.5 57 Q385 36 358 20 Q331 4 298 -5.5 Q265 -15 228 -15 Q183 -15 143.5 -1 Q104 13 74.5 40.5 Q45 68 27.5 109 Q10 150 10 204 Q10 272 32.5 326.5 Q55 381 92 418.5 Q129 456 176.5 476 Q224 496 274 496 Q323 496 360 481.5 Q397 467 422 441.5 Q447 416 460 380.5 Q473 345 473 302 Q473 273 468 249.5 Q463 226 459 214 L105 214 Z " />
<glyph glyph-name="ecircumflex" unicode="&#xea;" horiz-adv-x="528" d="M140 545 L271 684 L384 684 L455 545 L370 545 L318 626 L230 545 L140 545 Z M374 290 Q376 298 376 310 Q376 328 370.5 346.5 Q365 365 352.5 379.5 Q340 394 319.5 403.5 Q299 413 269 413 Q239 413 214 402.5 Q189 392 169.5 375 Q150 358 137 336 Q124 314 118 290 L374 290 Z M105 214 Q104 209 104 205.5 Q104 202 104 197 Q104 167 113.5 143.5 Q123 120 139.5 103 Q156 86 178.5 77 Q201 68 226 68 Q254 68 276.5 75 Q299 82 316.5 93.5 Q334 105 347 119 Q360 133 368 148 L439 102 Q426 78 405.5 57 Q385 36 358 20 Q331 4 298 -5.5 Q265 -15 228 -15 Q183 -15 143.5 -1 Q104 13 74.5 40.5 Q45 68 27.5 109 Q10 150 10 204 Q10 272 32.5 326.5 Q55 381 92 418.5 Q129 456 176.5 476 Q224 496 274 496 Q323 496 360 481.5 Q397 467 422 441.5 Q447 416 460 380.5 Q473 345 473 302 Q473 273 468 249.5 Q463 226 459 214 L105 214 Z " />
<glyph glyph-name="edieresis" unicode="&#xeb;" horiz-adv-x="528" d="M152 614 Q152 640 171 659.5 Q190 679 216 679 Q240 679 254.5 663 Q269 647 269 626 Q269 598 248.5 580.5 Q228 563 203 563 Q181 563 166.5 578 Q152 593 152 614 Z M347 614 Q347 640 366 659.5 Q385 679 411 679 Q435 679 449.5 663 Q464 647 464 626 Q464 598 443.5 580.5 Q423 563 398 563 Q376 563 361.5 578 Q347 593 347 614 Z M374 290 Q376 298 376 310 Q376 328 370.5 346.5 Q365 365 352.5 379.5 Q340 394 319.5 403.5 Q299 413 269 413 Q239 413 214 402.5 Q189 392 169.5 375 Q150 358 137 336 Q124 314 118 290 L374 290 Z M105 214 Q104 209 104 205.5 Q104 202 104 197 Q104 167 113.5 143.5 Q123 120 139.5 103 Q156 86 178.5 77 Q201 68 226 68 Q254 68 276.5 75 Q299 82 316.5 93.5 Q334 105 347 119 Q360 133 368 148 L439 102 Q426 78 405.5 57 Q385 36 358 20 Q331 4 298 -5.5 Q265 -15 228 -15 Q183 -15 143.5 -1 Q104 13 74.5 40.5 Q45 68 27.5 109 Q10 150 10 204 Q10 272 32.5 326.5 Q55 381 92 418.5 Q129 456 176.5 476 Q224 496 274 496 Q323 496 360 481.5 Q397 467 422 441.5 Q447 416 460 380.5 Q473 345 473 302 Q473 273 468 249.5 Q463 226 459 214 L105 214 Z " />
<glyph glyph-name="igrave" unicode="&#xec;" horiz-adv-x="257" d="M5 0 L108 481 L202 481 L99 0 L5 0 Z M37 689 L149 689 L205 543 L131 543 L37 689 Z " />
<glyph glyph-name="iacute" unicode="&#xed;" horiz-adv-x="257" d="M203 543 L119 543 L234 689 L358 689 L203 543 Z M5 0 L108 481 L202 481 L99 0 L5 0 Z " />
<glyph glyph-name="icircumflex" unicode="&#xee;" horiz-adv-x="257" d="M5 0 L108 481 L202 481 L99 0 L5 0 Z M9 545 L140 684 L253 684 L324 545 L239 545 L187 626 L99 545 L9 545 Z " />
<glyph glyph-name="idieresis" unicode="&#xef;" horiz-adv-x="257" d="M5 0 L108 481 L202 481 L99 0 L5 0 Z M60 615 Q60 638 76 656.5 Q92 675 118 675 Q140 675 153.5 661 Q167 647 167 627 Q167 601 149 585 Q131 569 108 569 Q85 569 72.5 582 Q60 595 60 615 Z M201 615 Q201 638 217 656.5 Q233 675 259 675 Q281 675 294.5 661 Q308 647 308 627 Q308 601 290 585 Q272 569 249 569 Q226 569 213.5 582 Q201 595 201 615 Z " />
<glyph glyph-name="eth" unicode="&#xf0;" horiz-adv-x="541" d="M427 574 Q456 530 474 472.5 Q492 415 492 341 Q492 266 473.5 201 Q455 136 420.5 87.5 Q386 39 336 11.5 Q286 -16 223 -16 Q172 -16 132.5 0.5 Q93 17 66 46.5 Q39 76 24.5 115 Q10 154 10 199 Q10 251 27.5 299.5 Q45 348 77.5 385.5 Q110 423 155.5 445.5 Q201 468 258 468 Q309 468 347.5 448.5 Q386 429 404 399 Q397 442 382 478.5 Q367 515 345 544 L222 498 L197 563 L293 599 Q270 619 244 633.5 Q218 648 192 657 L230 729 Q257 720 298.5 697 Q340 674 380 632 L502 678 L529 612 L427 574 Z M390 257 Q390 288 380 312.5 Q370 337 352.5 353.5 Q335 370 311.5 378.5 Q288 387 261 387 Q232 387 203.5 375 Q175 363 153 339.5 Q131 316 117.5 281 Q104 246 104 199 Q104 173 112 149.5 Q120 126 136 107.5 Q152 89 174.5 78 Q197 67 227 67 Q255 67 284 78.5 Q313 90 336.5 114 Q360 138 375 173.5 Q390 209 390 257 Z " />
<glyph glyph-name="ntilde" unicode="&#xf1;" horiz-adv-x="555" d="M158 554 Q162 588 172.5 612 Q183 636 198 651 Q213 666 232 673 Q251 680 272 680 Q293 680 310 672.5 Q327 665 340 656 L352 648 Q361 642 369 638 Q377 634 388 634 Q402 634 412 644 Q422 654 427 678 L496 678 Q484 607 454 579.5 Q424 552 383 552 Q362 552 345 559.5 Q328 567 315 576 L303 584 Q294 590 286 594 Q278 598 267 598 Q253 598 243 588 Q233 578 228 554 L158 554 Z M315 0 L377 291 Q379 299 380 308 Q381 317 381 328 Q381 368 359 390 Q337 412 293 412 Q264 412 241.5 400.5 Q219 389 202.5 370.5 Q186 352 175 328 Q164 304 159 280 L99 0 L5 0 L89 396 Q97 430 99 454.5 Q101 479 101 481 L193 481 Q193 478 191.5 461.5 Q190 445 187 428 Q215 466 253.5 480.5 Q292 495 336 495 Q399 495 439 456 Q479 417 479 351 Q479 340 477.5 328.5 Q476 317 474 305 L409 0 L315 0 Z " />
<glyph glyph-name="ograve" unicode="&#xf2;" horiz-adv-x="541" d="M176 689 L288 689 L344 543 L270 543 L176 689 Z M267 412 Q236 412 207 398.5 Q178 385 155.5 359.5 Q133 334 119.5 296 Q106 258 106 209 Q106 145 139 107 Q172 69 228 69 Q259 69 288.5 82.5 Q318 96 340.5 122 Q363 148 376.5 186 Q390 224 390 273 Q390 336 357.5 374 Q325 412 267 412 Z M486 275 Q486 214 466 161 Q446 108 411 69 Q376 30 328 7.5 Q280 -15 224 -15 Q173 -15 133 2.5 Q93 20 66 50.5 Q39 81 24.5 121.5 Q10 162 10 207 Q10 269 30 322 Q50 375 85 413.5 Q120 452 168.5 474 Q217 496 273 496 Q325 496 365 478.5 Q405 461 432 431 Q459 401 472.5 360.5 Q486 320 486 275 Z " />
<glyph glyph-name="oacute" unicode="&#xf3;" horiz-adv-x="541" d="M332 543 L248 543 L363 689 L487 689 L332 543 Z M267 412 Q236 412 207 398.5 Q178 385 155.5 359.5 Q133 334 119.5 296 Q106 258 106 209 Q106 145 139 107 Q172 69 228 69 Q259 69 288.5 82.5 Q318 96 340.5 122 Q363 148 376.5 186 Q390 224 390 273 Q390 336 357.5 374 Q325 412 267 412 Z M486 275 Q486 214 466 161 Q446 108 411 69 Q376 30 328 7.5 Q280 -15 224 -15 Q173 -15 133 2.5 Q93 20 66 50.5 Q39 81 24.5 121.5 Q10 162 10 207 Q10 269 30 322 Q50 375 85 413.5 Q120 452 168.5 474 Q217 496 273 496 Q325 496 365 478.5 Q405 461 432 431 Q459 401 472.5 360.5 Q486 320 486 275 Z " />
<glyph glyph-name="ocircumflex" unicode="&#xf4;" horiz-adv-x="541" d="M145 545 L276 684 L389 684 L460 545 L375 545 L323 626 L235 545 L145 545 Z M267 412 Q236 412 207 398.5 Q178 385 155.5 359.5 Q133 334 119.5 296 Q106 258 106 209 Q106 145 139 107 Q172 69 228 69 Q259 69 288.5 82.5 Q318 96 340.5 122 Q363 148 376.5 186 Q390 224 390 273 Q390 336 357.5 374 Q325 412 267 412 Z M486 275 Q486 214 466 161 Q446 108 411 69 Q376 30 328 7.5 Q280 -15 224 -15 Q173 -15 133 2.5 Q93 20 66 50.5 Q39 81 24.5 121.5 Q10 162 10 207 Q10 269 30 322 Q50 375 85 413.5 Q120 452 168.5 474 Q217 496 273 496 Q325 496 365 478.5 Q405 461 432 431 Q459 401 472.5 360.5 Q486 320 486 275 Z " />
<glyph glyph-name="otilde" unicode="&#xf5;" horiz-adv-x="541" d="M131 554 Q135 588 145.5 612 Q156 636 171 651 Q186 666 205 673 Q224 680 245 680 Q266 680 283 672.5 Q300 665 313 656 L325 648 Q334 642 342 638 Q350 634 361 634 Q375 634 385 644 Q395 654 400 678 L469 678 Q457 607 427 579.5 Q397 552 356 552 Q335 552 318 559.5 Q301 567 288 576 L276 584 Q267 590 259 594 Q251 598 240 598 Q226 598 216 588 Q206 578 201 554 L131 554 Z M267 412 Q236 412 207 398.5 Q178 385 155.5 359.5 Q133 334 119.5 296 Q106 258 106 209 Q106 145 139 107 Q172 69 228 69 Q259 69 288.5 82.5 Q318 96 340.5 122 Q363 148 376.5 186 Q390 224 390 273 Q390 336 357.5 374 Q325 412 267 412 Z M486 275 Q486 214 466 161 Q446 108 411 69 Q376 30 328 7.5 Q280 -15 224 -15 Q173 -15 133 2.5 Q93 20 66 50.5 Q39 81 24.5 121.5 Q10 162 10 207 Q10 269 30 322 Q50 375 85 413.5 Q120 452 168.5 474 Q217 496 273 496 Q325 496 365 478.5 Q405 461 432 431 Q459 401 472.5 360.5 Q486 320 486 275 Z " />
<glyph glyph-name="odieresis" unicode="&#xf6;" horiz-adv-x="541" d="M161 614 Q161 640 180 659.5 Q199 679 225 679 Q249 679 263.5 663 Q278 647 278 626 Q278 598 257.5 580.5 Q237 563 212 563 Q190 563 175.5 578 Q161 593 161 614 Z M356 614 Q356 640 375 659.5 Q394 679 420 679 Q444 679 458.5 663 Q473 647 473 626 Q473 598 452.5 580.5 Q432 563 407 563 Q385 563 370.5 578 Q356 593 356 614 Z M267 412 Q236 412 207 398.5 Q178 385 155.5 359.5 Q133 334 119.5 296 Q106 258 106 209 Q106 145 139 107 Q172 69 228 69 Q259 69 288.5 82.5 Q318 96 340.5 122 Q363 148 376.5 186 Q390 224 390 273 Q390 336 357.5 374 Q325 412 267 412 Z M486 275 Q486 214 466 161 Q446 108 411 69 Q376 30 328 7.5 Q280 -15 224 -15 Q173 -15 133 2.5 Q93 20 66 50.5 Q39 81 24.5 121.5 Q10 162 10 207 Q10 269 30 322 Q50 375 85 413.5 Q120 452 168.5 474 Q217 496 273 496 Q325 496 365 478.5 Q405 461 432 431 Q459 401 472.5 360.5 Q486 320 486 275 Z " />
<glyph glyph-name="divide" unicode="&#xf7;" horiz-adv-x="567" d="M198 465 Q198 491 217.5 510 Q237 529 263 529 Q289 529 308 510 Q327 491 327 465 Q327 439 308 419.5 Q289 400 263 400 Q237 400 217.5 419.5 Q198 439 198 465 Z M198 110 Q198 136 217.5 155 Q237 174 263 174 Q289 174 308 155 Q327 136 327 110 Q327 84 308 64.5 Q289 45 263 45 Q237 45 217.5 64.5 Q198 84 198 110 Z M35 329 L492 329 L492 246 L35 246 L35 329 Z " />
<glyph glyph-name="oslash" unicode="&#xf8;" horiz-adv-x="541" d="M-32 26 L37 92 Q10 143 10 207 Q10 269 30 322 Q50 375 85 413.5 Q120 452 168.5 474 Q217 496 273 496 Q357 496 411 451 L472 509 L524 455 L458 392 Q486 342 486 275 Q486 214 466 161 Q446 108 411 69 Q376 30 328 7.5 Q280 -15 224 -15 Q180 -15 145 -2.5 Q110 10 84 33 L20 -28 L-32 26 Z M390 273 Q390 298 384 321 L150 96 Q182 69 228 69 Q259 69 288.5 82.5 Q318 96 340.5 122 Q363 148 376.5 186 Q390 224 390 273 Z M267 412 Q236 412 207 398.5 Q178 385 155.5 359.5 Q133 334 119.5 296 Q106 258 106 209 Q106 185 111 163 L344 386 Q313 412 267 412 Z " />
<glyph glyph-name="ugrave" unicode="&#xf9;" horiz-adv-x="544" d="M318 56 Q294 22 257.5 6 Q221 -10 187 -10 Q112 -10 72 32.5 Q32 75 32 145 Q32 171 38 200 L98 481 L192 481 L133 202 Q131 190 129.5 178.5 Q128 167 128 156 Q128 119 147 94.5 Q166 70 213 70 Q240 70 261.5 80.5 Q283 91 299 109 Q315 127 326 150.5 Q337 174 342 200 L401 481 L494 481 L419 125 Q411 87 409.5 59 Q408 31 408 16 Q408 14 408 10 Q408 6 409 0 L319 0 Q317 10 317 28 Q317 32 317 39 Q317 46 318 56 Z M178 689 L290 689 L346 543 L272 543 L178 689 Z " />
<glyph glyph-name="uacute" unicode="&#xfa;" horiz-adv-x="544" d="M318 56 Q294 22 257.5 6 Q221 -10 187 -10 Q112 -10 72 32.5 Q32 75 32 145 Q32 171 38 200 L98 481 L192 481 L133 202 Q131 190 129.5 178.5 Q128 167 128 156 Q128 119 147 94.5 Q166 70 213 70 Q240 70 261.5 80.5 Q283 91 299 109 Q315 127 326 150.5 Q337 174 342 200 L401 481 L494 481 L419 125 Q411 87 409.5 59 Q408 31 408 16 Q408 14 408 10 Q408 6 409 0 L319 0 Q317 10 317 28 Q317 32 317 39 Q317 46 318 56 Z M332 543 L248 543 L363 689 L487 689 L332 543 Z " />
<glyph glyph-name="ucircumflex" unicode="&#xfb;" horiz-adv-x="544" d="M318 56 Q294 22 257.5 6 Q221 -10 187 -10 Q112 -10 72 32.5 Q32 75 32 145 Q32 171 38 200 L98 481 L192 481 L133 202 Q131 190 129.5 178.5 Q128 167 128 156 Q128 119 147 94.5 Q166 70 213 70 Q240 70 261.5 80.5 Q283 91 299 109 Q315 127 326 150.5 Q337 174 342 200 L401 481 L494 481 L419 125 Q411 87 409.5 59 Q408 31 408 16 Q408 14 408 10 Q408 6 409 0 L319 0 Q317 10 317 28 Q317 32 317 39 Q317 46 318 56 Z M145 545 L276 684 L389 684 L460 545 L375 545 L323 626 L235 545 L145 545 Z " />
<glyph glyph-name="udieresis" unicode="&#xfc;" horiz-adv-x="544" d="M318 56 Q294 22 257.5 6 Q221 -10 187 -10 Q112 -10 72 32.5 Q32 75 32 145 Q32 171 38 200 L98 481 L192 481 L133 202 Q131 190 129.5 178.5 Q128 167 128 156 Q128 119 147 94.5 Q166 70 213 70 Q240 70 261.5 80.5 Q283 91 299 109 Q315 127 326 150.5 Q337 174 342 200 L401 481 L494 481 L419 125 Q411 87 409.5 59 Q408 31 408 16 Q408 14 408 10 Q408 6 409 0 L319 0 Q317 10 317 28 Q317 32 317 39 Q317 46 318 56 Z M166 614 Q166 640 185 659.5 Q204 679 230 679 Q254 679 268.5 663 Q283 647 283 626 Q283 598 262.5 580.5 Q242 563 217 563 Q195 563 180.5 578 Q166 593 166 614 Z M361 614 Q361 640 380 659.5 Q399 679 425 679 Q449 679 463.5 663 Q478 647 478 626 Q478 598 457.5 580.5 Q437 563 412 563 Q390 563 375.5 578 Q361 593 361 614 Z " />
<glyph glyph-name="yacute" unicode="&#xfd;" horiz-adv-x="504" d="M293 543 L209 543 L324 689 L448 689 L293 543 Z M-30 -190 L151 83 L33 481 L135 481 L220 179 L408 481 L519 481 L78 -190 L-30 -190 Z " />
<glyph glyph-name="thorn" unicode="&#xfe;" horiz-adv-x="580" d="M159 724 L253 724 L191 430 Q219 462 258.5 478 Q298 494 341 494 Q388 494 422.5 478 Q457 462 479.5 434 Q502 406 513 368.5 Q524 331 524 288 Q524 224 506 169 Q488 114 455 73.5 Q422 33 375.5 10 Q329 -13 272 -13 Q222 -13 178.5 9.5 Q135 32 114 73 L58 -190 L-35 -190 L159 724 Z M306 409 Q275 409 246.5 395.5 Q218 382 195.5 356 Q173 330 159.5 292 Q146 254 146 205 Q146 141 178 106 Q210 71 266 71 Q296 71 325.5 85 Q355 99 377.5 125 Q400 151 414 189.5 Q428 228 428 277 Q428 341 396.5 375 Q365 409 306 409 Z " />
<glyph glyph-name="ydieresis" unicode="&#xff;" horiz-adv-x="504" d="M133 614 Q133 640 152 659.5 Q171 679 197 679 Q221 679 235.5 663 Q250 647 250 626 Q250 598 229.5 580.5 Q209 563 184 563 Q162 563 147.5 578 Q133 593 133 614 Z M328 614 Q328 640 347 659.5 Q366 679 392 679 Q416 679 430.5 663 Q445 647 445 626 Q445 598 424.5 580.5 Q404 563 379 563 Q357 563 342.5 578 Q328 593 328 614 Z M-30 -190 L151 83 L33 481 L135 481 L220 179 L408 481 L519 481 L78 -190 L-30 -190 Z " />
<glyph glyph-name="Amacron" unicode="&#x100;" horiz-adv-x="654" d="M453 198 L156 198 L41 0 L-70 0 L353 709 L461 709 L584 0 L485 0 L453 198 Z M209 289 L438 289 L388 599 L209 289 Z M267 779 L285 862 L578 862 L560 779 L267 779 Z " />
<glyph glyph-name="amacron" unicode="&#x101;" horiz-adv-x="567" d="M178 577 L195 658 L468 658 L451 577 L178 577 Z M266 414 Q227 414 196.5 394.5 Q166 375 146 344.5 Q126 314 115.5 276 Q105 238 105 202 Q105 145 133 108 Q161 71 219 71 Q253 71 282.5 88 Q312 105 333 134 Q354 163 366 203 Q378 243 378 290 Q378 342 351 378 Q324 414 266 414 Z M517 481 L442 125 Q434 87 432.5 59 Q431 31 431 16 Q431 14 431 10 Q431 6 432 0 L343 0 Q341 10 341 28 Q341 33 341 41.5 Q341 50 343 61 Q318 31 281.5 10.5 Q245 -10 200 -10 Q153 -10 117.5 6.5 Q82 23 58 51.5 Q34 80 22 118.5 Q10 157 10 201 Q10 259 28.5 312.5 Q47 366 80 406.5 Q113 447 159 471 Q205 495 261 495 Q322 495 358.5 472 Q395 449 411 420 L424 481 L517 481 Z " />
<glyph glyph-name="Abreve" unicode="&#x102;" horiz-adv-x="654" d="M453 198 L156 198 L41 0 L-70 0 L353 709 L461 709 L584 0 L485 0 L453 198 Z M209 289 L438 289 L388 599 L209 289 Z M421 755 Q353 755 317.5 788 Q282 821 282 868 Q282 874 284 884 L362 884 Q361 880 361 876 Q361 859 375 844.5 Q389 830 427 830 Q470 830 490 848 Q510 866 515 884 L594 884 Q587 860 573 837 Q559 814 537.5 795.5 Q516 777 487 766 Q458 755 421 755 Z " />
<glyph glyph-name="abreve" unicode="&#x103;" horiz-adv-x="567" d="M308 544 Q278 544 255 553.5 Q232 563 217 579.5 Q202 596 194 617 Q186 638 186 661 Q186 674 189 688 L258 688 Q257 685 257 682.5 Q257 680 257 679 Q257 669 260 659.5 Q263 650 270 642 Q277 634 289 629 Q301 624 318 624 Q337 624 351.5 630 Q366 636 376.5 645.5 Q387 655 394 666 Q401 677 404 688 L481 688 Q475 661 461.5 635.5 Q448 610 426.5 589.5 Q405 569 375.5 556.5 Q346 544 308 544 Z M266 414 Q227 414 196.5 394.5 Q166 375 146 344.5 Q126 314 115.5 276 Q105 238 105 202 Q105 145 133 108 Q161 71 219 71 Q253 71 282.5 88 Q312 105 333 134 Q354 163 366 203 Q378 243 378 290 Q378 342 351 378 Q324 414 266 414 Z M517 481 L442 125 Q434 87 432.5 59 Q431 31 431 16 Q431 14 431 10 Q431 6 432 0 L343 0 Q341 10 341 28 Q341 33 341 41.5 Q341 50 343 61 Q318 31 281.5 10.5 Q245 -10 200 -10 Q153 -10 117.5 6.5 Q82 23 58 51.5 Q34 80 22 118.5 Q10 157 10 201 Q10 259 28.5 312.5 Q47 366 80 406.5 Q113 447 159 471 Q205 495 261 495 Q322 495 358.5 472 Q395 449 411 420 L424 481 L517 481 Z " />
<glyph glyph-name="Aogonek" unicode="&#x104;" horiz-adv-x="654" d="M209 289 L438 289 L388 597 L209 289 Z M395 -132 Q395 -107 403 -87 Q411 -67 424.5 -50.5 Q438 -34 455 -21.5 Q472 -9 489 0 L485 0 L453 198 L156 198 L41 0 L-70 0 L353 709 L461 709 L584 0 Q567 -7 548.5 -17.5 Q530 -28 513.5 -41.5 Q497 -55 486.5 -71.5 Q476 -88 476 -109 Q476 -129 489 -138 Q502 -147 520 -147 Q525 -147 532 -146.5 Q539 -146 553 -144 L539 -208 Q528 -212 517.5 -214 Q507 -216 488 -216 Q446 -216 420.5 -193 Q395 -170 395 -132 Z " />
<glyph glyph-name="aogonek" unicode="&#x105;" horiz-adv-x="567" d="M266 414 Q227 414 196.5 394.5 Q166 375 146 344.5 Q126 314 115.5 276 Q105 238 105 202 Q105 145 133 108 Q161 71 219 71 Q253 71 282.5 88 Q312 105 333 134 Q354 163 366 203 Q378 243 378 290 Q378 342 351 378 Q324 414 266 414 Z M243 -132 Q243 -106 252 -84.5 Q261 -63 275 -46.5 Q289 -30 306.5 -18 Q324 -6 342 3 Q341 13 341 18.5 Q341 24 341 28 Q341 35 341 43 Q341 51 342 61 Q317 31 281 10.5 Q245 -10 200 -10 Q153 -10 117.5 6.5 Q82 23 58 51.5 Q34 80 22 118.5 Q10 157 10 201 Q10 259 28.5 312.5 Q47 366 80 406.5 Q113 447 159 471 Q205 495 261 495 Q322 495 358.5 472 Q395 449 411 420 L424 481 L517 481 L442 125 Q434 87 432.5 58.5 Q431 30 431 16 Q431 13 431 9 Q431 5 432 0 Q415 -7 396.5 -17.5 Q378 -28 361.5 -41.5 Q345 -55 334.5 -71.5 Q324 -88 324 -109 Q324 -129 337 -138 Q350 -147 368 -147 Q373 -147 380 -146.5 Q387 -146 401 -144 L387 -208 Q376 -212 365.5 -214 Q355 -216 336 -216 Q294 -216 268.5 -193 Q243 -170 243 -132 Z " />
<glyph glyph-name="Cacute" unicode="&#x106;" horiz-adv-x="719" d="M417 724 Q480 724 529.5 706.5 Q579 689 614.5 658 Q650 627 672.5 586 Q695 545 704 499 L611 472 Q604 506 587.5 535.5 Q571 565 545.5 587 Q520 609 485 621.5 Q450 634 407 634 Q342 634 291 606.5 Q240 579 205.5 533.5 Q171 488 153 429 Q135 370 135 307 Q135 198 190.5 136 Q246 74 344 74 Q419 74 478 114 Q537 154 572 234 L658 199 Q614 99 532 42 Q450 -15 335 -15 Q269 -15 214 8 Q159 31 119.5 73 Q80 115 57.5 173 Q35 231 35 301 Q35 405 68 484 Q101 563 155 616.5 Q209 670 277.5 697 Q346 724 417 724 Z M493 759 L396 759 L515 878 L646 878 L493 759 Z " />
<glyph glyph-name="cacute" unicode="&#x107;" horiz-adv-x="498" d="M306 543 L222 543 L337 689 L461 689 L306 543 Z M381 314 Q376 333 367 351 Q358 369 343.5 382.5 Q329 396 309 404 Q289 412 262 412 Q231 412 202 399 Q173 386 150.5 360.5 Q128 335 114 297 Q100 259 100 208 Q100 144 135.5 106.5 Q171 69 231 69 Q259 69 280 77 Q301 85 317.5 98 Q334 111 345.5 127 Q357 143 365 160 L445 125 Q431 98 411 72.5 Q391 47 364 27.5 Q337 8 303 -3.5 Q269 -15 227 -15 Q175 -15 134 2 Q93 19 64.5 49 Q36 79 20.5 119.5 Q5 160 5 207 Q5 271 25.5 324 Q46 377 82 415.5 Q118 454 166 475 Q214 496 268 496 Q317 496 352 482 Q387 468 410.5 445.5 Q434 423 448 396 Q462 369 468 344 L381 314 Z " />
<glyph glyph-name="Ccircumflex" unicode="&#x108;" horiz-adv-x="719" d="M417 724 Q480 724 529.5 706.5 Q579 689 614.5 658 Q650 627 672.5 586 Q695 545 704 499 L611 472 Q604 506 587.5 535.5 Q571 565 545.5 587 Q520 609 485 621.5 Q450 634 407 634 Q342 634 291 606.5 Q240 579 205.5 533.5 Q171 488 153 429 Q135 370 135 307 Q135 198 190.5 136 Q246 74 344 74 Q419 74 478 114 Q537 154 572 234 L658 199 Q614 99 532 42 Q450 -15 335 -15 Q269 -15 214 8 Q159 31 119.5 73 Q80 115 57.5 173 Q35 231 35 301 Q35 405 68 484 Q101 563 155 616.5 Q209 670 277.5 697 Q346 724 417 724 Z M270 759 L405 878 L525 878 L615 759 L532 759 L458 823 L357 759 L270 759 Z " />
<glyph glyph-name="ccircumflex" unicode="&#x109;" horiz-adv-x="498" d="M127 545 L258 684 L371 684 L442 545 L357 545 L305 626 L217 545 L127 545 Z M381 314 Q376 333 367 351 Q358 369 343.5 382.5 Q329 396 309 404 Q289 412 262 412 Q231 412 202 399 Q173 386 150.5 360.5 Q128 335 114 297 Q100 259 100 208 Q100 144 135.5 106.5 Q171 69 231 69 Q259 69 280 77 Q301 85 317.5 98 Q334 111 345.5 127 Q357 143 365 160 L445 125 Q431 98 411 72.5 Q391 47 364 27.5 Q337 8 303 -3.5 Q269 -15 227 -15 Q175 -15 134 2 Q93 19 64.5 49 Q36 79 20.5 119.5 Q5 160 5 207 Q5 271 25.5 324 Q46 377 82 415.5 Q118 454 166 475 Q214 496 268 496 Q317 496 352 482 Q387 468 410.5 445.5 Q434 423 448 396 Q462 369 468 344 L381 314 Z " />
<glyph glyph-name="Cdotaccent" unicode="&#x10a;" horiz-adv-x="719" d="M417 724 Q480 724 529.5 706.5 Q579 689 614.5 658 Q650 627 672.5 586 Q695 545 704 499 L611 472 Q604 506 587.5 535.5 Q571 565 545.5 587 Q520 609 485 621.5 Q450 634 407 634 Q342 634 291 606.5 Q240 579 205.5 533.5 Q171 488 153 429 Q135 370 135 307 Q135 198 190.5 136 Q246 74 344 74 Q419 74 478 114 Q537 154 572 234 L658 199 Q614 99 532 42 Q450 -15 335 -15 Q269 -15 214 8 Q159 31 119.5 73 Q80 115 57.5 173 Q35 231 35 301 Q35 405 68 484 Q101 563 155 616.5 Q209 670 277.5 697 Q346 724 417 724 Z M384 814 Q384 843 404.5 863.5 Q425 884 454 884 Q480 884 496.5 867 Q513 850 513 827 Q513 812 507 799 Q501 786 491.5 776.5 Q482 767 469 761 Q456 755 442 755 Q416 755 400 772 Q384 789 384 814 Z " />
<glyph glyph-name="cdotaccent" unicode="&#x10b;" horiz-adv-x="498" d="M230 608 Q230 635 250.5 657.5 Q271 680 301 680 Q327 680 343 663 Q359 646 359 623 Q359 608 353 595 Q347 582 337.5 572.5 Q328 563 315 557 Q302 551 288 551 Q262 551 246 567.5 Q230 584 230 608 Z M381 314 Q376 333 367 351 Q358 369 343.5 382.5 Q329 396 309 404 Q289 412 262 412 Q231 412 202 399 Q173 386 150.5 360.5 Q128 335 114 297 Q100 259 100 208 Q100 144 135.5 106.5 Q171 69 231 69 Q259 69 280 77 Q301 85 317.5 98 Q334 111 345.5 127 Q357 143 365 160 L445 125 Q431 98 411 72.5 Q391 47 364 27.5 Q337 8 303 -3.5 Q269 -15 227 -15 Q175 -15 134 2 Q93 19 64.5 49 Q36 79 20.5 119.5 Q5 160 5 207 Q5 271 25.5 324 Q46 377 82 415.5 Q118 454 166 475 Q214 496 268 496 Q317 496 352 482 Q387 468 410.5 445.5 Q434 423 448 396 Q462 369 468 344 L381 314 Z " />
<glyph glyph-name="Ccaron" unicode="&#x10c;" horiz-adv-x="719" d="M417 724 Q480 724 529.5 706.5 Q579 689 614.5 658 Q650 627 672.5 586 Q695 545 704 499 L611 472 Q604 506 587.5 535.5 Q571 565 545.5 587 Q520 609 485 621.5 Q450 634 407 634 Q342 634 291 606.5 Q240 579 205.5 533.5 Q171 488 153 429 Q135 370 135 307 Q135 198 190.5 136 Q246 74 344 74 Q419 74 478 114 Q537 154 572 234 L658 199 Q614 99 532 42 Q450 -15 335 -15 Q269 -15 214 8 Q159 31 119.5 73 Q80 115 57.5 173 Q35 231 35 301 Q35 405 68 484 Q101 563 155 616.5 Q209 670 277.5 697 Q346 724 417 724 Z M634 878 L494 759 L374 759 L289 878 L371 878 L440 814 L541 878 L634 878 Z " />
<glyph glyph-name="ccaron" unicode="&#x10d;" horiz-adv-x="498" d="M488 687 L358 545 L243 545 L173 687 L257 687 L309 606 L397 687 L488 687 Z M381 314 Q376 333 367 351 Q358 369 343.5 382.5 Q329 396 309 404 Q289 412 262 412 Q231 412 202 399 Q173 386 150.5 360.5 Q128 335 114 297 Q100 259 100 208 Q100 144 135.5 106.5 Q171 69 231 69 Q259 69 280 77 Q301 85 317.5 98 Q334 111 345.5 127 Q357 143 365 160 L445 125 Q431 98 411 72.5 Q391 47 364 27.5 Q337 8 303 -3.5 Q269 -15 227 -15 Q175 -15 134 2 Q93 19 64.5 49 Q36 79 20.5 119.5 Q5 160 5 207 Q5 271 25.5 324 Q46 377 82 415.5 Q118 454 166 475 Q214 496 268 496 Q317 496 352 482 Q387 468 410.5 445.5 Q434 423 448 396 Q462 369 468 344 L381 314 Z " />
<glyph glyph-name="Dcaron" unicode="&#x10e;" horiz-adv-x="691" d="M602 878 L462 759 L342 759 L257 878 L339 878 L408 814 L509 878 L602 878 Z M276 87 Q325 87 375.5 108 Q426 129 466 171 Q506 213 531.5 275 Q557 337 557 420 Q557 520 498.5 571 Q440 622 340 622 L245 622 L131 87 L276 87 Z M15 0 L165 709 L358 709 Q426 709 481 689 Q536 669 574.5 632 Q613 595 634 542.5 Q655 490 655 426 Q655 321 622 241.5 Q589 162 536 108 Q483 54 414.5 27 Q346 0 276 0 L15 0 Z " />
<glyph glyph-name="dcaron" unicode="&#x10f;" horiz-adv-x="652" d="M266 414 Q227 414 196.5 394.5 Q166 375 146 344.5 Q126 314 115.5 276 Q105 238 105 202 Q105 145 133 108 Q161 71 219 71 Q253 71 282.5 88 Q312 105 333 134 Q354 163 366 203 Q378 243 378 290 Q378 342 351 378 Q324 414 266 414 Z M343 61 Q320 31 282.5 10.5 Q245 -10 200 -10 Q153 -10 117.5 6.5 Q82 23 58 51.5 Q34 80 22 118.5 Q10 157 10 201 Q10 259 28.5 312.5 Q47 366 80 406.5 Q113 447 159 471 Q205 495 261 495 Q322 495 358.5 472 Q395 449 411 420 L475 724 L568 724 L442 125 Q434 87 432.5 59 Q431 31 431 16 Q431 14 431 10 Q431 6 432 0 L343 0 Q341 10 341 28 Q341 33 341 40.5 Q341 48 343 61 Z M655 545 L583 545 L649 724 L757 724 L655 545 Z " />
<glyph glyph-name="Dcroat" unicode="&#x110;" horiz-adv-x="690" d="M32 402 L100 402 L165 709 L358 709 Q426 709 481 689 Q536 669 574.5 632 Q613 595 634 542.5 Q655 490 655 426 Q655 321 622 241.5 Q589 162 536 108 Q483 54 414.5 27 Q346 0 276 0 L15 0 L82 320 L15 320 L32 402 Z M276 87 Q325 87 375.5 108 Q426 129 466 171 Q506 213 531.5 275 Q557 337 557 420 Q557 520 500 571 Q443 622 340 622 L245 622 L198 402 L348 402 L331 320 L180 320 L131 87 L276 87 Z " />
<glyph glyph-name="dcroat" unicode="&#x111;" horiz-adv-x="567" d="M266 414 Q227 414 196.5 394.5 Q166 375 146 344.5 Q126 314 115.5 276 Q105 238 105 202 Q105 145 133 108 Q161 71 219 71 Q253 71 282.5 88 Q312 105 333 134 Q354 163 366 203 Q378 243 378 290 Q378 342 351 378 Q324 414 266 414 Z M200 -10 Q153 -10 117.5 6.5 Q82 23 58 51.5 Q34 80 22 118.5 Q10 157 10 201 Q10 259 28.5 312.5 Q47 366 80 406.5 Q113 447 159 471 Q205 495 261 495 Q322 495 358.5 472 Q395 449 411 420 L439 555 L300 555 L316 631 L455 631 L475 724 L568 724 L548 631 L617 631 L601 555 L532 555 L442 125 Q434 87 432 59 Q430 31 430 16 Q430 14 430 10 Q430 6 431 0 L342 0 Q340 10 340 28 Q340 35 340.5 42.5 Q341 50 342 61 Q317 31 281 10.5 Q245 -10 200 -10 Z " />
<glyph glyph-name="Emacron" unicode="&#x112;" horiz-adv-x="576" d="M15 0 L165 709 L591 709 L572 618 L244 618 L198 400 L495 400 L475 308 L178 308 L132 91 L460 91 L441 0 L15 0 Z M242 779 L260 862 L553 862 L535 779 L242 779 Z " />
<glyph glyph-name="emacron" unicode="&#x113;" horiz-adv-x="528" d="M168 577 L185 658 L458 658 L441 577 L168 577 Z M374 290 Q376 298 376 310 Q376 328 370.5 346.5 Q365 365 352.5 379.5 Q340 394 319.5 403.5 Q299 413 269 413 Q239 413 214 402.5 Q189 392 169.5 375 Q150 358 137 336 Q124 314 118 290 L374 290 Z M105 214 Q104 209 104 205.5 Q104 202 104 197 Q104 167 113.5 143.5 Q123 120 139.5 103 Q156 86 178.5 77 Q201 68 226 68 Q254 68 276.5 75 Q299 82 316.5 93.5 Q334 105 347 119 Q360 133 368 148 L439 102 Q426 78 405.5 57 Q385 36 358 20 Q331 4 298 -5.5 Q265 -15 228 -15 Q183 -15 143.5 -1 Q104 13 74.5 40.5 Q45 68 27.5 109 Q10 150 10 204 Q10 272 32.5 326.5 Q55 381 92 418.5 Q129 456 176.5 476 Q224 496 274 496 Q323 496 360 481.5 Q397 467 422 441.5 Q447 416 460 380.5 Q473 345 473 302 Q473 273 468 249.5 Q463 226 459 214 L105 214 Z " />
<glyph glyph-name="Ebreve" unicode="&#x114;" horiz-adv-x="576" d="M15 0 L165 709 L591 709 L572 618 L244 618 L198 400 L495 400 L475 308 L178 308 L132 91 L460 91 L441 0 L15 0 Z M382 755 Q314 755 278.5 788 Q243 821 243 868 Q243 874 245 884 L323 884 Q322 880 322 876 Q322 859 336 844.5 Q350 830 388 830 Q431 830 451 848 Q471 866 476 884 L555 884 Q548 860 534 837 Q520 814 498.5 795.5 Q477 777 448 766 Q419 755 382 755 Z " />
<glyph glyph-name="ebreve" unicode="&#x115;" horiz-adv-x="528" d="M301 544 Q271 544 248 553.5 Q225 563 210 579.5 Q195 596 187 617 Q179 638 179 661 Q179 674 182 688 L251 688 Q250 685 250 682.5 Q250 680 250 679 Q250 669 253 659.5 Q256 650 263 642 Q270 634 282 629 Q294 624 311 624 Q330 624 344.5 630 Q359 636 369.5 645.5 Q380 655 387 666 Q394 677 397 688 L474 688 Q468 661 454.5 635.5 Q441 610 419.5 589.5 Q398 569 368.5 556.5 Q339 544 301 544 Z M374 290 Q376 298 376 310 Q376 328 370.5 346.5 Q365 365 352.5 379.5 Q340 394 319.5 403.5 Q299 413 269 413 Q239 413 214 402.5 Q189 392 169.5 375 Q150 358 137 336 Q124 314 118 290 L374 290 Z M105 214 Q104 209 104 205.5 Q104 202 104 197 Q104 167 113.5 143.5 Q123 120 139.5 103 Q156 86 178.5 77 Q201 68 226 68 Q254 68 276.5 75 Q299 82 316.5 93.5 Q334 105 347 119 Q360 133 368 148 L439 102 Q426 78 405.5 57 Q385 36 358 20 Q331 4 298 -5.5 Q265 -15 228 -15 Q183 -15 143.5 -1 Q104 13 74.5 40.5 Q45 68 27.5 109 Q10 150 10 204 Q10 272 32.5 326.5 Q55 381 92 418.5 Q129 456 176.5 476 Q224 496 274 496 Q323 496 360 481.5 Q397 467 422 441.5 Q447 416 460 380.5 Q473 345 473 302 Q473 273 468 249.5 Q463 226 459 214 L105 214 Z " />
<glyph glyph-name="Edotaccent" unicode="&#x116;" horiz-adv-x="576" d="M15 0 L165 709 L591 709 L572 618 L244 618 L198 400 L495 400 L475 308 L178 308 L132 91 L460 91 L441 0 L15 0 Z M332 814 Q332 843 352.5 863.5 Q373 884 402 884 Q428 884 444.5 867 Q461 850 461 827 Q461 812 455 799 Q449 786 439.5 776.5 Q430 767 417 761 Q404 755 390 755 Q364 755 348 772 Q332 789 332 814 Z " />
<glyph glyph-name="edotaccent" unicode="&#x117;" horiz-adv-x="528" d="M232 608 Q232 635 252.5 657.5 Q273 680 303 680 Q329 680 345 663 Q361 646 361 623 Q361 608 355 595 Q349 582 339.5 572.5 Q330 563 317 557 Q304 551 290 551 Q264 551 248 567.5 Q232 584 232 608 Z M374 290 Q376 298 376 310 Q376 328 370.5 346.5 Q365 365 352.5 379.5 Q340 394 319.5 403.5 Q299 413 269 413 Q239 413 214 402.5 Q189 392 169.5 375 Q150 358 137 336 Q124 314 118 290 L374 290 Z M105 214 Q104 209 104 205.5 Q104 202 104 197 Q104 167 113.5 143.5 Q123 120 139.5 103 Q156 86 178.5 77 Q201 68 226 68 Q254 68 276.5 75 Q299 82 316.5 93.5 Q334 105 347 119 Q360 133 368 148 L439 102 Q426 78 405.5 57 Q385 36 358 20 Q331 4 298 -5.5 Q265 -15 228 -15 Q183 -15 143.5 -1 Q104 13 74.5 40.5 Q45 68 27.5 109 Q10 150 10 204 Q10 272 32.5 326.5 Q55 381 92 418.5 Q129 456 176.5 476 Q224 496 274 496 Q323 496 360 481.5 Q397 467 422 441.5 Q447 416 460 380.5 Q473 345 473 302 Q473 273 468 249.5 Q463 226 459 214 L105 214 Z " />
<glyph glyph-name="Eogonek" unicode="&#x118;" horiz-adv-x="576" d="M252 -132 Q252 -107 260 -87 Q268 -67 281.5 -50.5 Q295 -34 311.5 -21.5 Q328 -9 345 0 L15 0 L165 709 L591 709 L572 618 L244 618 L198 400 L495 400 L475 308 L178 308 L132 91 L460 91 L441 0 Q424 -7 405.5 -17.5 Q387 -28 370.5 -41.5 Q354 -55 343.5 -71.5 Q333 -88 333 -109 Q333 -129 346 -138 Q359 -147 377 -147 Q382 -147 389 -146.5 Q396 -146 410 -144 L396 -208 Q385 -212 374.5 -214 Q364 -216 345 -216 Q303 -216 277.5 -193 Q252 -170 252 -132 Z " />
<glyph glyph-name="eogonek" unicode="&#x119;" horiz-adv-x="528" d="M374 290 Q376 298 376 310 Q376 328 370.5 346.5 Q365 365 352.5 379.5 Q340 394 319.5 403.5 Q299 413 269 413 Q239 413 214 402.5 Q189 392 169.5 375 Q150 358 137 336 Q124 314 118 290 L374 290 Z M125 -132 Q125 -90 146 -61 Q167 -32 196 -13 Q157 -8 123 8 Q89 24 64 51 Q39 78 24.5 116.5 Q10 155 10 204 Q10 272 32.5 326.5 Q55 381 92 418.5 Q129 456 176.5 476 Q224 496 274 496 Q323 496 360 481.5 Q397 467 422 441.5 Q447 416 460 380.5 Q473 345 473 302 Q473 273 468 249.5 Q463 226 459 214 L105 214 Q104 209 104 205.5 Q104 202 104 197 Q104 167 113.5 143.5 Q123 120 139.5 103 Q156 86 178.5 77 Q201 68 226 68 Q254 68 276.5 75 Q299 82 316.5 93.5 Q334 105 347 119 Q360 133 368 148 L439 102 Q421 68 386.5 41 Q352 14 307 -3 Q290 -9 272.5 -19 Q255 -29 240 -42.5 Q225 -56 215.5 -72.5 Q206 -89 206 -109 Q206 -129 219 -138 Q232 -147 250 -147 Q255 -147 262 -146.5 Q269 -146 283 -144 L269 -208 Q258 -212 247.5 -214 Q237 -216 218 -216 Q176 -216 150.5 -193 Q125 -170 125 -132 Z " />
<glyph glyph-name="Ecaron" unicode="&#x11a;" horiz-adv-x="576" d="M15 0 L165 709 L591 709 L572 618 L244 618 L198 400 L495 400 L475 308 L178 308 L132 91 L460 91 L441 0 L15 0 Z M587 878 L447 759 L327 759 L242 878 L324 878 L393 814 L494 878 L587 878 Z " />
<glyph glyph-name="ecaron" unicode="&#x11b;" horiz-adv-x="528" d="M473 687 L343 545 L228 545 L158 687 L242 687 L294 606 L382 687 L473 687 Z M374 290 Q376 298 376 310 Q376 328 370.5 346.5 Q365 365 352.5 379.5 Q340 394 319.5 403.5 Q299 413 269 413 Q239 413 214 402.5 Q189 392 169.5 375 Q150 358 137 336 Q124 314 118 290 L374 290 Z M105 214 Q104 209 104 205.5 Q104 202 104 197 Q104 167 113.5 143.5 Q123 120 139.5 103 Q156 86 178.5 77 Q201 68 226 68 Q254 68 276.5 75 Q299 82 316.5 93.5 Q334 105 347 119 Q360 133 368 148 L439 102 Q426 78 405.5 57 Q385 36 358 20 Q331 4 298 -5.5 Q265 -15 228 -15 Q183 -15 143.5 -1 Q104 13 74.5 40.5 Q45 68 27.5 109 Q10 150 10 204 Q10 272 32.5 326.5 Q55 381 92 418.5 Q129 456 176.5 476 Q224 496 274 496 Q323 496 360 481.5 Q397 467 422 441.5 Q447 416 460 380.5 Q473 345 473 302 Q473 273 468 249.5 Q463 226 459 214 L105 214 Z " />
<glyph glyph-name="Gcircumflex" unicode="&#x11c;" horiz-adv-x="740" d="M408 634 Q344 634 293 607 Q242 580 207 535 Q172 490 153 431 Q134 372 134 307 Q134 253 148.5 210 Q163 167 190.5 136.5 Q218 106 257 90 Q296 74 345 74 Q383 74 420.5 86.5 Q458 99 490 122.5 Q522 146 545.5 180.5 Q569 215 580 259 L334 259 L352 347 L691 347 L618 0 L542 0 L550 80 Q511 35 458.5 10 Q406 -15 336 -15 Q275 -15 220.5 6.5 Q166 28 124.5 69 Q83 110 59 168.5 Q35 227 35 301 Q35 405 68.5 484 Q102 563 156 616.5 Q210 670 278.5 697 Q347 724 418 724 Q481 724 530.5 706.5 Q580 689 615.5 658 Q651 627 673.5 586 Q696 545 705 499 L612 472 Q605 506 588.5 535.5 Q572 565 546.5 587 Q521 609 486 621.5 Q451 634 408 634 Z M270 759 L405 878 L525 878 L615 759 L532 759 L458 823 L357 759 L270 759 Z " />
<glyph glyph-name="gcircumflex" unicode="&#x11d;" horiz-adv-x="565" d="M149 545 L280 684 L393 684 L464 545 L379 545 L327 626 L239 545 L149 545 Z M378 293 Q378 313 371.5 334 Q365 355 350.5 371.5 Q336 388 313.5 398.5 Q291 409 260 409 Q228 409 200 397 Q172 385 151.5 362 Q131 339 119 306 Q107 273 107 231 Q107 204 114 180.5 Q121 157 136 139.5 Q151 122 173.5 112 Q196 102 226 102 Q295 102 336.5 153 Q378 204 378 293 Z M42 -8 L42 -15 Q42 -37 49 -56.5 Q56 -76 70.5 -91 Q85 -106 106.5 -114.5 Q128 -123 158 -123 Q228 -123 269 -80 Q310 -37 327 43 L335 82 Q319 58 286 40.5 Q253 23 207 23 Q160 23 124 38.5 Q88 54 63 81.5 Q38 109 25 146 Q12 183 12 225 Q12 281 30 329.5 Q48 378 80.5 414 Q113 450 158 470.5 Q203 491 257 491 Q308 491 347 471.5 Q386 452 406 417 L419 481 L515 481 L425 46 Q415 0 396.5 -45 Q378 -90 346.5 -125.5 Q315 -161 268 -183 Q221 -205 154 -205 Q104 -205 66.5 -190 Q29 -175 3.5 -150.5 Q-22 -126 -34.5 -94 Q-47 -62 -47 -29 L42 -8 Z " />
<glyph glyph-name="Gbreve" unicode="&#x11e;" horiz-adv-x="740" d="M408 634 Q344 634 293 607 Q242 580 207 535 Q172 490 153 431 Q134 372 134 307 Q134 253 148.5 210 Q163 167 190.5 136.5 Q218 106 257 90 Q296 74 345 74 Q383 74 420.5 86.5 Q458 99 490 122.5 Q522 146 545.5 180.5 Q569 215 580 259 L334 259 L352 347 L691 347 L618 0 L542 0 L550 80 Q511 35 458.5 10 Q406 -15 336 -15 Q275 -15 220.5 6.5 Q166 28 124.5 69 Q83 110 59 168.5 Q35 227 35 301 Q35 405 68.5 484 Q102 563 156 616.5 Q210 670 278.5 697 Q347 724 418 724 Q481 724 530.5 706.5 Q580 689 615.5 658 Q651 627 673.5 586 Q696 545 705 499 L612 472 Q605 506 588.5 535.5 Q572 565 546.5 587 Q521 609 486 621.5 Q451 634 408 634 Z M450 755 Q382 755 346.5 788 Q311 821 311 868 Q311 874 313 884 L391 884 Q390 880 390 876 Q390 859 404 844.5 Q418 830 456 830 Q499 830 519 848 Q539 866 544 884 L623 884 Q616 860 602 837 Q588 814 566.5 795.5 Q545 777 516 766 Q487 755 450 755 Z " />
<glyph glyph-name="gbreve" unicode="&#x11f;" horiz-adv-x="565" d="M316 544 Q286 544 263 553.5 Q240 563 225 579.5 Q210 596 202 617 Q194 638 194 661 Q194 674 197 688 L266 688 Q265 685 265 682.5 Q265 680 265 679 Q265 669 268 659.5 Q271 650 278 642 Q285 634 297 629 Q309 624 326 624 Q345 624 359.5 630 Q374 636 384.5 645.5 Q395 655 402 666 Q409 677 412 688 L489 688 Q483 661 469.5 635.5 Q456 610 434.5 589.5 Q413 569 383.5 556.5 Q354 544 316 544 Z M378 293 Q378 313 371.5 334 Q365 355 350.5 371.5 Q336 388 313.5 398.5 Q291 409 260 409 Q228 409 200 397 Q172 385 151.5 362 Q131 339 119 306 Q107 273 107 231 Q107 204 114 180.5 Q121 157 136 139.5 Q151 122 173.5 112 Q196 102 226 102 Q295 102 336.5 153 Q378 204 378 293 Z M42 -8 L42 -15 Q42 -37 49 -56.5 Q56 -76 70.5 -91 Q85 -106 106.5 -114.5 Q128 -123 158 -123 Q228 -123 269 -80 Q310 -37 327 43 L335 82 Q319 58 286 40.5 Q253 23 207 23 Q160 23 124 38.5 Q88 54 63 81.5 Q38 109 25 146 Q12 183 12 225 Q12 281 30 329.5 Q48 378 80.5 414 Q113 450 158 470.5 Q203 491 257 491 Q308 491 347 471.5 Q386 452 406 417 L419 481 L515 481 L425 46 Q415 0 396.5 -45 Q378 -90 346.5 -125.5 Q315 -161 268 -183 Q221 -205 154 -205 Q104 -205 66.5 -190 Q29 -175 3.5 -150.5 Q-22 -126 -34.5 -94 Q-47 -62 -47 -29 L42 -8 Z " />
<glyph glyph-name="Gdotaccent" unicode="&#x120;" horiz-adv-x="740" d="M408 634 Q344 634 293 607 Q242 580 207 535 Q172 490 153 431 Q134 372 134 307 Q134 253 148.5 210 Q163 167 190.5 136.5 Q218 106 257 90 Q296 74 345 74 Q383 74 420.5 86.5 Q458 99 490 122.5 Q522 146 545.5 180.5 Q569 215 580 259 L334 259 L352 347 L691 347 L618 0 L542 0 L550 80 Q511 35 458.5 10 Q406 -15 336 -15 Q275 -15 220.5 6.5 Q166 28 124.5 69 Q83 110 59 168.5 Q35 227 35 301 Q35 405 68.5 484 Q102 563 156 616.5 Q210 670 278.5 697 Q347 724 418 724 Q481 724 530.5 706.5 Q580 689 615.5 658 Q651 627 673.5 586 Q696 545 705 499 L612 472 Q605 506 588.5 535.5 Q572 565 546.5 587 Q521 609 486 621.5 Q451 634 408 634 Z M389 814 Q389 843 409.5 863.5 Q430 884 459 884 Q485 884 501.5 867 Q518 850 518 827 Q518 812 512 799 Q506 786 496.5 776.5 Q487 767 474 761 Q461 755 447 755 Q421 755 405 772 Q389 789 389 814 Z " />
<glyph glyph-name="gdotaccent" unicode="&#x121;" horiz-adv-x="565" d="M262 608 Q262 635 282.5 657.5 Q303 680 333 680 Q359 680 375 663 Q391 646 391 623 Q391 608 385 595 Q379 582 369.5 572.5 Q360 563 347 557 Q334 551 320 551 Q294 551 278 567.5 Q262 584 262 608 Z M378 293 Q378 313 371.5 334 Q365 355 350.5 371.5 Q336 388 313.5 398.5 Q291 409 260 409 Q228 409 200 397 Q172 385 151.5 362 Q131 339 119 306 Q107 273 107 231 Q107 204 114 180.5 Q121 157 136 139.5 Q151 122 173.5 112 Q196 102 226 102 Q295 102 336.5 153 Q378 204 378 293 Z M42 -8 L42 -15 Q42 -37 49 -56.5 Q56 -76 70.5 -91 Q85 -106 106.5 -114.5 Q128 -123 158 -123 Q228 -123 269 -80 Q310 -37 327 43 L335 82 Q319 58 286 40.5 Q253 23 207 23 Q160 23 124 38.5 Q88 54 63 81.5 Q38 109 25 146 Q12 183 12 225 Q12 281 30 329.5 Q48 378 80.5 414 Q113 450 158 470.5 Q203 491 257 491 Q308 491 347 471.5 Q386 452 406 417 L419 481 L515 481 L425 46 Q415 0 396.5 -45 Q378 -90 346.5 -125.5 Q315 -161 268 -183 Q221 -205 154 -205 Q104 -205 66.5 -190 Q29 -175 3.5 -150.5 Q-22 -126 -34.5 -94 Q-47 -62 -47 -29 L42 -8 Z " />
<glyph glyph-name="Gcommaaccent" unicode="&#x122;" horiz-adv-x="740" d="M408 634 Q344 634 293 607 Q242 580 207 535 Q172 490 153 431 Q134 372 134 307 Q134 253 148.5 210 Q163 167 190.5 136.5 Q218 106 257 90 Q296 74 345 74 Q383 74 420.5 86.5 Q458 99 490 122.5 Q522 146 545.5 180.5 Q569 215 580 259 L334 259 L352 347 L691 347 L618 0 L542 0 L550 80 Q511 35 458.5 10 Q406 -15 336 -15 Q275 -15 220.5 6.5 Q166 28 124.5 69 Q83 110 59 168.5 Q35 227 35 301 Q35 405 68.5 484 Q102 563 156 616.5 Q210 670 278.5 697 Q347 724 418 724 Q481 724 530.5 706.5 Q580 689 615.5 658 Q651 627 673.5 586 Q696 545 705 499 L612 472 Q605 506 588.5 535.5 Q572 565 546.5 587 Q521 609 486 621.5 Q451 634 408 634 Z M233 -92 Q233 -67 251.5 -51.5 Q270 -36 297 -36 Q318 -36 337 -50.5 Q356 -65 356 -97 Q356 -129 343.5 -151 Q331 -173 312.5 -187 Q294 -201 272 -207.5 Q250 -214 231 -214 Q228 -214 225 -214 Q222 -214 217 -213 L226 -174 Q247 -174 269.5 -165.5 Q292 -157 300 -133 Q294 -137 282 -137 Q260 -137 246.5 -124.5 Q233 -112 233 -92 Z " />
<glyph glyph-name="gcommaaccent" unicode="&#x123;" horiz-adv-x="565" d="M367 596 Q367 571 349.5 554 Q332 537 306 537 Q286 537 266.5 553 Q247 569 247 597 Q247 631 260.5 654 Q274 677 293.5 691 Q313 705 336 711 Q359 717 377 717 L384 717 L376 677 L371 677 Q348 677 327.5 666 Q307 655 302 636 Q312 640 321 640 Q343 640 355 627 Q367 614 367 596 Z M378 293 Q378 313 371.5 334 Q365 355 350.5 371.5 Q336 388 313.5 398.5 Q291 409 260 409 Q228 409 200 397 Q172 385 151.5 362 Q131 339 119 306 Q107 273 107 231 Q107 204 114 180.5 Q121 157 136 139.5 Q151 122 173.5 112 Q196 102 226 102 Q295 102 336.5 153 Q378 204 378 293 Z M42 -8 L42 -15 Q42 -37 49 -56.5 Q56 -76 70.5 -91 Q85 -106 106.5 -114.5 Q128 -123 158 -123 Q228 -123 269 -80 Q310 -37 327 43 L335 82 Q319 58 286 40.5 Q253 23 207 23 Q160 23 124 38.5 Q88 54 63 81.5 Q38 109 25 146 Q12 183 12 225 Q12 281 30 329.5 Q48 378 80.5 414 Q113 450 158 470.5 Q203 491 257 491 Q308 491 347 471.5 Q386 452 406 417 L419 481 L515 481 L425 46 Q415 0 396.5 -45 Q378 -90 346.5 -125.5 Q315 -161 268 -183 Q221 -205 154 -205 Q104 -205 66.5 -190 Q29 -175 3.5 -150.5 Q-22 -126 -34.5 -94 Q-47 -62 -47 -29 L42 -8 Z " />
<glyph glyph-name="Hcircumflex" unicode="&#x124;" horiz-adv-x="708" d="M265 759 L400 878 L520 878 L610 759 L527 759 L453 823 L352 759 L265 759 Z M445 0 L511 315 L179 315 L113 0 L15 0 L165 709 L263 709 L199 406 L531 406 L595 709 L693 709 L543 0 L445 0 Z " />
<glyph glyph-name="hcircumflex" unicode="&#x125;" horiz-adv-x="555" d="M315 0 L377 291 Q381 308 381 328 Q381 368 359 390 Q337 412 293 412 Q264 412 241.5 400.5 Q219 389 202.5 370.5 Q186 352 175 328 Q164 304 159 280 L99 0 L5 0 L159 724 L253 724 L193 441 Q219 470 254 482.5 Q289 495 331 495 Q398 495 438.5 456 Q479 417 479 351 Q479 340 477.5 328.5 Q476 317 474 305 L409 0 L315 0 Z M192 769 L327 888 L447 888 L537 769 L454 769 L380 833 L279 769 L192 769 Z " />
<glyph glyph-name="Hbar" unicode="&#x126;" horiz-adv-x="708" d="M61 588 L139 588 L165 709 L263 709 L237 588 L569 588 L595 709 L693 709 L667 588 L747 588 L732 513 L651 513 L543 0 L445 0 L511 315 L179 315 L113 0 L15 0 L123 513 L46 513 L61 588 Z M531 406 L553 513 L221 513 L199 406 L531 406 Z " />
<glyph glyph-name="hbar" unicode="&#x127;" horiz-adv-x="555" d="M315 0 L377 291 Q381 308 381 328 Q381 368 359 390 Q337 412 293 412 Q264 412 241.5 400.5 Q219 389 202.5 370.5 Q186 352 175 328 Q164 304 159 280 L99 0 L5 0 L123 557 L42 557 L59 633 L139 633 L159 724 L253 724 L233 633 L360 633 L343 557 L217 557 L193 441 Q219 470 254 482.5 Q289 495 331 495 Q398 495 438.5 456 Q479 417 479 351 Q479 340 477.5 328.5 Q476 317 474 305 L409 0 L315 0 Z " />
<glyph glyph-name="Itilde" unicode="&#x128;" horiz-adv-x="280" d="M407 881 Q395 810 365 782.5 Q335 755 294 755 Q273 755 255 762.5 Q237 770 224 779 L212 787 Q203 793 194 797 Q185 801 174 801 Q160 801 150 791 Q140 781 135 757 L65 757 Q69 791 79.5 815 Q90 839 105 854 Q120 869 139 876 Q158 883 179 883 Q200 883 218 875.5 Q236 868 249 859 L261 851 Q270 845 279 841 Q288 837 299 837 Q313 837 323 847 Q333 857 338 881 L407 881 Z M15 0 L165 709 L265 709 L115 0 L15 0 Z " />
<glyph glyph-name="itilde" unicode="&#x129;" horiz-adv-x="257" d="M5 0 L108 481 L202 481 L99 0 L5 0 Z M8 554 Q12 588 22.5 612 Q33 636 48 651 Q63 666 82 673 Q101 680 122 680 Q143 680 160 672.5 Q177 665 190 656 L202 648 Q211 642 219 638 Q227 634 238 634 Q252 634 262 644 Q272 654 277 678 L346 678 Q334 607 304 579.5 Q274 552 233 552 Q212 552 195 559.5 Q178 567 165 576 L153 584 Q144 590 136 594 Q128 598 117 598 Q103 598 93 588 Q83 578 78 554 L8 554 Z " />
<glyph glyph-name="Imacron" unicode="&#x12a;" horiz-adv-x="280" d="M79 779 L97 862 L390 862 L372 779 L79 779 Z M15 0 L165 709 L265 709 L115 0 L15 0 Z " />
<glyph glyph-name="imacron" unicode="&#x12b;" horiz-adv-x="257" d="M5 0 L108 481 L202 481 L99 0 L5 0 Z M35 577 L52 658 L325 658 L308 577 L35 577 Z " />
<glyph glyph-name="Ibreve" unicode="&#x12c;" horiz-adv-x="280" d="M233 755 Q165 755 129.5 788 Q94 821 94 868 Q94 874 96 884 L174 884 Q173 880 173 876 Q173 859 187 844.5 Q201 830 239 830 Q282 830 302 848 Q322 866 327 884 L406 884 Q399 860 385 837 Q371 814 349.5 795.5 Q328 777 299 766 Q270 755 233 755 Z M15 0 L165 709 L265 709 L115 0 L15 0 Z " />
<glyph glyph-name="ibreve" unicode="&#x12d;" horiz-adv-x="257" d="M5 0 L108 481 L202 481 L99 0 L5 0 Z M161 544 Q131 544 108 553.5 Q85 563 70 579.5 Q55 596 47 617 Q39 638 39 661 Q39 674 42 688 L111 688 Q110 685 110 682.5 Q110 680 110 679 Q110 669 113 659.5 Q116 650 123 642 Q130 634 142 629 Q154 624 171 624 Q190 624 204.5 630 Q219 636 229.5 645.5 Q240 655 247 666 Q254 677 257 688 L334 688 Q328 661 314.5 635.5 Q301 610 279.5 589.5 Q258 569 228.5 556.5 Q199 544 161 544 Z " />
<glyph glyph-name="Iogonek" unicode="&#x12e;" horiz-adv-x="280" d="M-74 -132 Q-74 -107 -66 -87 Q-58 -67 -44.5 -50.5 Q-31 -34 -14.5 -21.5 Q2 -9 19 0 L15 0 L165 709 L265 709 L115 0 Q98 -7 79.5 -17.5 Q61 -28 44.5 -41.5 Q28 -55 17.5 -71.5 Q7 -88 7 -109 Q7 -129 20 -138 Q33 -147 51 -147 Q56 -147 63 -146.5 Q70 -146 84 -144 L70 -208 Q59 -212 48.5 -214 Q38 -216 19 -216 Q-23 -216 -48.5 -193 Q-74 -170 -74 -132 Z " />
<glyph glyph-name="iogonek" unicode="&#x12f;" horiz-adv-x="257" d="M-9 -109 Q-9 -129 4 -138 Q17 -147 35 -147 Q40 -147 47 -146.5 Q54 -146 68 -144 L54 -208 Q43 -212 32.5 -214 Q22 -216 3 -216 Q-39 -216 -64.5 -193 Q-90 -170 -90 -132 Q-90 -107 -81.5 -86 Q-73 -65 -59.5 -48.5 Q-46 -32 -29 -20 Q-12 -8 5 0 L108 481 L202 481 L99 0 Q82 -7 63.5 -17.5 Q45 -28 28.5 -41.5 Q12 -55 1.5 -71.5 Q-9 -88 -9 -109 Z M125 659 Q125 675 131.5 688.5 Q138 702 148.5 712 Q159 722 172 727.5 Q185 733 199 733 Q226 733 243 715.5 Q260 698 260 673 Q260 658 253.5 644.5 Q247 631 236.5 621 Q226 611 212.5 605 Q199 599 186 599 Q159 599 142 616.5 Q125 634 125 659 Z " />
<glyph glyph-name="Idotaccent" unicode="&#x130;" horiz-adv-x="280" d="M173 814 Q173 843 193.5 863.5 Q214 884 243 884 Q269 884 285.5 867 Q302 850 302 827 Q302 812 296 799 Q290 786 280.5 776.5 Q271 767 258 761 Q245 755 231 755 Q205 755 189 772 Q173 789 173 814 Z M15 0 L165 709 L265 709 L115 0 L15 0 Z " />
<glyph glyph-name="dotlessi" unicode="&#x131;" horiz-adv-x="257" d="M5 0 L108 481 L202 481 L99 0 L5 0 Z " />
<glyph glyph-name="IJ" unicode="&#x132;" horiz-adv-x="594" d="M82 322 L167 709 L267 709 L182 322 L82 322 Z M589 709 L479 196 Q469 149 450.5 110.5 Q432 72 404 44 Q376 16 339 1 Q302 -14 256 -14 Q208 -14 171.5 0.5 Q135 15 110 40.5 Q85 66 72.5 101 Q60 136 60 177 Q60 207 68 244 L169 259 L162 230 Q156 204 156 182 Q156 134 182 104 Q208 74 259 74 Q310 74 339 107 Q368 140 381 198 L490 709 L589 709 Z " />
<glyph glyph-name="ij" unicode="&#x133;" horiz-adv-x="481" d="M333 481 L426 481 L307 -79 Q294 -139 255.5 -172 Q217 -205 162 -205 Q135 -205 117 -199.5 Q99 -194 94 -191 L110 -116 Q112 -117 122.5 -119.5 Q133 -122 147 -122 Q179 -122 194 -106.5 Q209 -91 217 -57 L333 481 Z M350 659 Q350 675 356.5 688.5 Q363 702 373.5 712 Q384 722 397 727.5 Q410 733 424 733 Q451 733 468 715.5 Q485 698 485 673 Q485 658 478.5 644.5 Q472 631 461.5 621 Q451 611 437.5 605 Q424 599 411 599 Q384 599 367 616.5 Q350 634 350 659 Z M125 659 Q125 675 131.5 688.5 Q138 702 148.5 712 Q159 722 172 727.5 Q185 733 199 733 Q226 733 243 715.5 Q260 698 260 673 Q260 658 253.5 644.5 Q247 631 236.5 621 Q226 611 212.5 605 Q199 599 186 599 Q159 599 142 616.5 Q125 634 125 659 Z M5 0 L108 481 L202 481 L99 0 L5 0 Z " />
<glyph glyph-name="Jcircumflex" unicode="&#x134;" horiz-adv-x="544" d="M325 759 L460 878 L580 878 L670 759 L587 759 L513 823 L412 759 L325 759 Z M545 709 L435 196 Q425 149 406.5 110.5 Q388 72 360 44 Q332 16 295 1 Q258 -14 212 -14 Q164 -14 127.5 0.5 Q91 15 66 40.5 Q41 66 28.5 101 Q16 136 16 177 Q16 207 24 244 L29 267 L129 282 L118 230 Q115 218 114 206 Q113 194 113 183 Q113 135 138 104.5 Q163 74 215 74 Q266 74 295 107 Q324 140 337 198 L446 709 L545 709 Z " />
<glyph glyph-name="jcircumflex" unicode="&#x135;" horiz-adv-x="256" d="M10 545 L141 684 L254 684 L325 545 L240 545 L188 626 L100 545 L10 545 Z M108 481 L201 481 L82 -79 Q69 -139 30.5 -172 Q-8 -205 -63 -205 Q-90 -205 -108 -199.5 Q-126 -194 -131 -191 L-115 -116 Q-113 -117 -102.5 -119.5 Q-92 -122 -78 -122 Q-46 -122 -31 -106.5 Q-16 -91 -8 -57 L108 481 Z " />
<glyph glyph-name="Kcommaaccent" unicode="&#x136;" horiz-adv-x="662" d="M222 -92 Q222 -67 240.5 -51.5 Q259 -36 286 -36 Q307 -36 326 -50.5 Q345 -65 345 -97 Q345 -129 332.5 -151 Q320 -173 301.5 -187 Q283 -201 261 -207.5 Q239 -214 220 -214 Q217 -214 214 -214 Q211 -214 206 -213 L215 -174 Q236 -174 258.5 -165.5 Q281 -157 289 -133 Q283 -137 271 -137 Q249 -137 235.5 -124.5 Q222 -112 222 -92 Z M289 334 L159 220 L113 0 L15 0 L165 709 L263 709 L190 365 L582 709 L717 709 L362 397 L576 0 L465 0 L289 334 Z " />
<glyph glyph-name="kcommaaccent" unicode="&#x137;" horiz-adv-x="527" d="M139 -92 Q139 -67 157.5 -51.5 Q176 -36 203 -36 Q224 -36 243 -50.5 Q262 -65 262 -97 Q262 -129 249.5 -151 Q237 -173 218.5 -187 Q200 -201 178 -207.5 Q156 -214 137 -214 Q134 -214 131 -214 Q128 -214 123 -213 L132 -174 Q153 -174 175.5 -165.5 Q198 -157 206 -133 Q200 -137 188 -137 Q166 -137 152.5 -124.5 Q139 -112 139 -92 Z M227 228 L129 148 L98 0 L5 0 L159 724 L252 724 L158 284 L397 481 L537 481 L299 287 L441 0 L336 0 L227 228 Z " />
<glyph glyph-name="kgreenlandic" unicode="&#x138;" horiz-adv-x="527" d="M227 228 L129 148 L98 0 L5 0 L108 481 L201 481 L158 284 L397 481 L537 481 L299 287 L441 0 L336 0 L227 228 Z " />
<glyph glyph-name="Lacute" unicode="&#x139;" horiz-adv-x="538" d="M272 759 L175 759 L294 878 L425 878 L272 759 Z M15 0 L165 709 L263 709 L132 92 L457 92 L438 0 L15 0 Z " />
<glyph glyph-name="lacute" unicode="&#x13a;" horiz-adv-x="255" d="M259 769 L162 769 L281 888 L412 888 L259 769 Z M5 0 L159 724 L253 724 L99 0 L5 0 Z " />
<glyph glyph-name="Lcommaaccent" unicode="&#x13b;" horiz-adv-x="538" d="M161 -92 Q161 -67 179.5 -51.5 Q198 -36 225 -36 Q246 -36 265 -50.5 Q284 -65 284 -97 Q284 -129 271.5 -151 Q259 -173 240.5 -187 Q222 -201 200 -207.5 Q178 -214 159 -214 Q156 -214 153 -214 Q150 -214 145 -213 L154 -174 Q175 -174 197.5 -165.5 Q220 -157 228 -133 Q222 -137 210 -137 Q188 -137 174.5 -124.5 Q161 -112 161 -92 Z M15 0 L165 709 L263 709 L132 92 L457 92 L438 0 L15 0 Z " />
<glyph glyph-name="lcommaaccent" unicode="&#x13c;" horiz-adv-x="255" d="M-30 -92 Q-30 -67 -11.5 -51.5 Q7 -36 34 -36 Q55 -36 74 -50.5 Q93 -65 93 -97 Q93 -129 80.5 -151 Q68 -173 49.5 -187 Q31 -201 9 -207.5 Q-13 -214 -32 -214 Q-35 -214 -38 -214 Q-41 -214 -46 -213 L-37 -174 Q-16 -174 6.5 -165.5 Q29 -157 37 -133 Q31 -137 19 -137 Q-3 -137 -16.5 -124.5 Q-30 -112 -30 -92 Z M5 0 L159 724 L253 724 L99 0 L5 0 Z " />
<glyph glyph-name="Lcaron" unicode="&#x13d;" horiz-adv-x="538" d="M15 0 L165 709 L263 709 L132 92 L457 92 L438 0 L15 0 Z M383 570 L307 570 L372 760 L488 760 L383 570 Z " />
<glyph glyph-name="lcaron" unicode="&#x13e;" horiz-adv-x="309" d="M334 545 L262 545 L328 724 L436 724 L334 545 Z M5 0 L159 724 L253 724 L99 0 L5 0 Z " />
<glyph glyph-name="Ldot" unicode="&#x13f;" horiz-adv-x="538" d="M15 0 L165 709 L263 709 L132 92 L457 92 L438 0 L15 0 Z M287 337 Q287 366 307.5 386.5 Q328 407 357 407 Q383 407 399.5 390 Q416 373 416 350 Q416 335 410 322 Q404 309 394.5 299.5 Q385 290 372 284 Q359 278 345 278 Q319 278 303 295 Q287 312 287 337 Z " />
<glyph glyph-name="ldot" unicode="&#x140;" horiz-adv-x="355" d="M218 304 Q218 331 238.5 353.5 Q259 376 289 376 Q315 376 331 359 Q347 342 347 319 Q347 304 341 291 Q335 278 325.5 268.5 Q316 259 303 253 Q290 247 276 247 Q250 247 234 263.5 Q218 280 218 304 Z M5 0 L159 724 L253 724 L99 0 L5 0 Z " />
<glyph glyph-name="Lslash" unicode="&#x141;" horiz-adv-x="538" d="M15 0 L77 296 L-19 257 L-1 344 L96 383 L165 709 L263 709 L203 426 L383 499 L365 412 L184 339 L132 92 L457 92 L438 0 L15 0 Z " />
<glyph glyph-name="lslash" unicode="&#x142;" horiz-adv-x="289" d="M5 0 L71 308 L-28 268 L-9 355 L89 395 L159 724 L253 724 L192 436 L295 478 L276 391 L173 349 L99 0 L5 0 Z " />
<glyph glyph-name="Nacute" unicode="&#x143;" horiz-adv-x="738" d="M476 759 L379 759 L498 878 L629 878 L476 759 Z M471 0 L235 574 L113 0 L15 0 L165 709 L282 709 L507 155 L625 709 L723 709 L573 0 L471 0 Z " />
<glyph glyph-name="nacute" unicode="&#x144;" horiz-adv-x="555" d="M338 543 L254 543 L369 689 L493 689 L338 543 Z M315 0 L377 291 Q379 299 380 308 Q381 317 381 328 Q381 368 359 390 Q337 412 293 412 Q264 412 241.5 400.5 Q219 389 202.5 370.5 Q186 352 175 328 Q164 304 159 280 L99 0 L5 0 L89 396 Q97 430 99 454.5 Q101 479 101 481 L193 481 Q193 478 191.5 461.5 Q190 445 187 428 Q215 466 253.5 480.5 Q292 495 336 495 Q399 495 439 456 Q479 417 479 351 Q479 340 477.5 328.5 Q476 317 474 305 L409 0 L315 0 Z " />
<glyph glyph-name="Ncommaaccent" unicode="&#x145;" horiz-adv-x="738" d="M251 -92 Q251 -67 269.5 -51.5 Q288 -36 315 -36 Q336 -36 355 -50.5 Q374 -65 374 -97 Q374 -129 361.5 -151 Q349 -173 330.5 -187 Q312 -201 290 -207.5 Q268 -214 249 -214 Q246 -214 243 -214 Q240 -214 235 -213 L244 -174 Q265 -174 287.5 -165.5 Q310 -157 318 -133 Q312 -137 300 -137 Q278 -137 264.5 -124.5 Q251 -112 251 -92 Z M471 0 L235 574 L113 0 L15 0 L165 709 L282 709 L507 155 L625 709 L723 709 L573 0 L471 0 Z " />
<glyph glyph-name="ncommaaccent" unicode="&#x146;" horiz-adv-x="555" d="M140 -92 Q140 -67 158.5 -51.5 Q177 -36 204 -36 Q225 -36 244 -50.5 Q263 -65 263 -97 Q263 -129 250.5 -151 Q238 -173 219.5 -187 Q201 -201 179 -207.5 Q157 -214 138 -214 Q135 -214 132 -214 Q129 -214 124 -213 L133 -174 Q154 -174 176.5 -165.5 Q199 -157 207 -133 Q201 -137 189 -137 Q167 -137 153.5 -124.5 Q140 -112 140 -92 Z M315 0 L377 291 Q379 299 380 308 Q381 317 381 328 Q381 368 359 390 Q337 412 293 412 Q264 412 241.5 400.5 Q219 389 202.5 370.5 Q186 352 175 328 Q164 304 159 280 L99 0 L5 0 L89 396 Q97 430 99 454.5 Q101 479 101 481 L193 481 Q193 478 191.5 461.5 Q190 445 187 428 Q215 466 253.5 480.5 Q292 495 336 495 Q399 495 439 456 Q479 417 479 351 Q479 340 477.5 328.5 Q476 317 474 305 L409 0 L315 0 Z " />
<glyph glyph-name="Ncaron" unicode="&#x147;" horiz-adv-x="738" d="M642 878 L502 759 L382 759 L297 878 L379 878 L448 814 L549 878 L642 878 Z M471 0 L235 574 L113 0 L15 0 L165 709 L282 709 L507 155 L625 709 L723 709 L573 0 L471 0 Z " />
<glyph glyph-name="ncaron" unicode="&#x148;" horiz-adv-x="555" d="M492 687 L362 545 L247 545 L177 687 L261 687 L313 606 L401 687 L492 687 Z M315 0 L377 291 Q379 299 380 308 Q381 317 381 328 Q381 368 359 390 Q337 412 293 412 Q264 412 241.5 400.5 Q219 389 202.5 370.5 Q186 352 175 328 Q164 304 159 280 L99 0 L5 0 L89 396 Q97 430 99 454.5 Q101 479 101 481 L193 481 Q193 478 191.5 461.5 Q190 445 187 428 Q215 466 253.5 480.5 Q292 495 336 495 Q399 495 439 456 Q479 417 479 351 Q479 340 477.5 328.5 Q476 317 474 305 L409 0 L315 0 Z " />
<glyph glyph-name="napostrophe" unicode="&#x149;" horiz-adv-x="555" d="M127 587 Q149 587 170 595.5 Q191 604 202 628 Q194 624 183 624 Q161 624 148.5 637 Q136 650 136 669 Q136 696 154 711 Q172 726 197 726 Q218 726 237 712.5 Q256 699 256 666 Q256 640 246 618.5 Q236 597 219 580.5 Q202 564 179 555 Q156 546 130 546 Q128 546 125.5 546 Q123 546 119 547 L127 587 Z M315 0 L377 291 Q379 299 380 308 Q381 317 381 328 Q381 368 359 390 Q337 412 293 412 Q264 412 241.5 400.5 Q219 389 202.5 370.5 Q186 352 175 328 Q164 304 159 280 L99 0 L5 0 L89 396 Q97 430 99 454.5 Q101 479 101 481 L193 481 Q193 478 191.5 461.5 Q190 445 187 428 Q215 466 253.5 480.5 Q292 495 336 495 Q399 495 439 456 Q479 417 479 351 Q479 340 477.5 328.5 Q476 317 474 305 L409 0 L315 0 Z " />
<glyph glyph-name="Eng" unicode="&#x14a;" horiz-adv-x="738" d="M476 -11 L235 574 L113 0 L15 0 L165 709 L282 709 L507 155 L625 709 L723 709 L556 -80 Q543 -140 504.5 -172.5 Q466 -205 411 -205 Q384 -205 367 -200 Q350 -195 343 -191 L359 -116 Q363 -118 374 -120 Q385 -122 396 -122 Q428 -122 443 -107 Q458 -92 466 -58 L476 -11 Z " />
<glyph glyph-name="eng" unicode="&#x14b;" horiz-adv-x="555" d="M377 291 Q379 298 380 308.5 Q381 319 381 328 Q381 368 359 390 Q337 412 293 412 Q264 412 241.5 400.5 Q219 389 202.5 370.5 Q186 352 175 328 Q164 304 159 280 L99 0 L5 0 L89 396 Q97 430 99 454.5 Q101 479 101 481 L193 481 Q193 478 191.5 461.5 Q190 445 187 428 Q215 466 253.5 480.5 Q292 495 336 495 Q399 495 439 456 Q479 417 479 351 Q479 340 477.5 327.5 Q476 315 474 305 L390 -91 Q377 -151 338.5 -183.5 Q300 -216 245 -216 Q218 -216 200 -210.5 Q182 -205 177 -202 L193 -127 Q195 -128 205.5 -130.5 Q216 -133 230 -133 Q262 -133 277 -118 Q292 -103 300 -69 L377 291 Z " />
<glyph glyph-name="Omacron" unicode="&#x14c;" horiz-adv-x="753" d="M35 294 Q35 400 68 480.5 Q101 561 154.5 615 Q208 669 275.5 696.5 Q343 724 412 724 Q481 724 537.5 702 Q594 680 634 639.5 Q674 599 696 541.5 Q718 484 718 414 Q718 308 685 227.5 Q652 147 598.5 93 Q545 39 478 12 Q411 -15 342 -15 Q273 -15 216 7.5 Q159 30 119 70.5 Q79 111 57 168 Q35 225 35 294 Z M618 404 Q618 459 602 502 Q586 545 557.5 574.5 Q529 604 490.5 619 Q452 634 406 634 Q341 634 290.5 606 Q240 578 205.5 532 Q171 486 153 426.5 Q135 367 135 304 Q135 248 151 205.5 Q167 163 195.5 134 Q224 105 262.5 90 Q301 75 347 75 Q412 75 462.5 102.5 Q513 130 547.5 176 Q582 222 600 281.5 Q618 341 618 404 Z M294 779 L312 862 L605 862 L587 779 L294 779 Z " />
<glyph glyph-name="omacron" unicode="&#x14d;" horiz-adv-x="541" d="M163 577 L180 658 L453 658 L436 577 L163 577 Z M267 412 Q236 412 207 398.5 Q178 385 155.5 359.5 Q133 334 119.5 296 Q106 258 106 209 Q106 145 139 107 Q172 69 228 69 Q259 69 288.5 82.5 Q318 96 340.5 122 Q363 148 376.5 186 Q390 224 390 273 Q390 336 357.5 374 Q325 412 267 412 Z M486 275 Q486 214 466 161 Q446 108 411 69 Q376 30 328 7.5 Q280 -15 224 -15 Q173 -15 133 2.5 Q93 20 66 50.5 Q39 81 24.5 121.5 Q10 162 10 207 Q10 269 30 322 Q50 375 85 413.5 Q120 452 168.5 474 Q217 496 273 496 Q325 496 365 478.5 Q405 461 432 431 Q459 401 472.5 360.5 Q486 320 486 275 Z " />
<glyph glyph-name="Obreve" unicode="&#x14e;" horiz-adv-x="753" d="M35 294 Q35 400 68 480.5 Q101 561 154.5 615 Q208 669 275.5 696.5 Q343 724 412 724 Q481 724 537.5 702 Q594 680 634 639.5 Q674 599 696 541.5 Q718 484 718 414 Q718 308 685 227.5 Q652 147 598.5 93 Q545 39 478 12 Q411 -15 342 -15 Q273 -15 216 7.5 Q159 30 119 70.5 Q79 111 57 168 Q35 225 35 294 Z M618 404 Q618 459 602 502 Q586 545 557.5 574.5 Q529 604 490.5 619 Q452 634 406 634 Q341 634 290.5 606 Q240 578 205.5 532 Q171 486 153 426.5 Q135 367 135 304 Q135 248 151 205.5 Q167 163 195.5 134 Q224 105 262.5 90 Q301 75 347 75 Q412 75 462.5 102.5 Q513 130 547.5 176 Q582 222 600 281.5 Q618 341 618 404 Z M461 755 Q393 755 357.5 788 Q322 821 322 868 Q322 874 324 884 L402 884 Q401 880 401 876 Q401 859 415 844.5 Q429 830 467 830 Q510 830 530 848 Q550 866 555 884 L634 884 Q627 860 613 837 Q599 814 577.5 795.5 Q556 777 527 766 Q498 755 461 755 Z " />
<glyph glyph-name="obreve" unicode="&#x14f;" horiz-adv-x="541" d="M289 544 Q259 544 236 553.5 Q213 563 198 579.5 Q183 596 175 617 Q167 638 167 661 Q167 674 170 688 L239 688 Q238 685 238 682.5 Q238 680 238 679 Q238 669 241 659.5 Q244 650 251 642 Q258 634 270 629 Q282 624 299 624 Q318 624 332.5 630 Q347 636 357.5 645.5 Q368 655 375 666 Q382 677 385 688 L462 688 Q456 661 442.5 635.5 Q429 610 407.5 589.5 Q386 569 356.5 556.5 Q327 544 289 544 Z M267 412 Q236 412 207 398.5 Q178 385 155.5 359.5 Q133 334 119.5 296 Q106 258 106 209 Q106 145 139 107 Q172 69 228 69 Q259 69 288.5 82.5 Q318 96 340.5 122 Q363 148 376.5 186 Q390 224 390 273 Q390 336 357.5 374 Q325 412 267 412 Z M486 275 Q486 214 466 161 Q446 108 411 69 Q376 30 328 7.5 Q280 -15 224 -15 Q173 -15 133 2.5 Q93 20 66 50.5 Q39 81 24.5 121.5 Q10 162 10 207 Q10 269 30 322 Q50 375 85 413.5 Q120 452 168.5 474 Q217 496 273 496 Q325 496 365 478.5 Q405 461 432 431 Q459 401 472.5 360.5 Q486 320 486 275 Z " />
<glyph glyph-name="Ohungarumlaut" unicode="&#x150;" horiz-adv-x="753" d="M35 294 Q35 400 68 480.5 Q101 561 154.5 615 Q208 669 275.5 696.5 Q343 724 412 724 Q481 724 537.5 702 Q594 680 634 639.5 Q674 599 696 541.5 Q718 484 718 414 Q718 308 685 227.5 Q652 147 598.5 93 Q545 39 478 12 Q411 -15 342 -15 Q273 -15 216 7.5 Q159 30 119 70.5 Q79 111 57 168 Q35 225 35 294 Z M618 404 Q618 459 602 502 Q586 545 557.5 574.5 Q529 604 490.5 619 Q452 634 406 634 Q341 634 290.5 606 Q240 578 205.5 532 Q171 486 153 426.5 Q135 367 135 304 Q135 248 151 205.5 Q167 163 195.5 134 Q224 105 262.5 90 Q301 75 347 75 Q412 75 462.5 102.5 Q513 130 547.5 176 Q582 222 600 281.5 Q618 341 618 404 Z M392 759 L319 759 L400 878 L510 878 L392 759 Z M533 759 L460 759 L551 878 L661 878 L533 759 Z " />
<glyph glyph-name="ohungarumlaut" unicode="&#x151;" horiz-adv-x="541" d="M255 543 L186 543 L268 689 L376 689 L255 543 Z M389 543 L320 543 L412 689 L520 689 L389 543 Z M267 412 Q236 412 207 398.5 Q178 385 155.5 359.5 Q133 334 119.5 296 Q106 258 106 209 Q106 145 139 107 Q172 69 228 69 Q259 69 288.5 82.5 Q318 96 340.5 122 Q363 148 376.5 186 Q390 224 390 273 Q390 336 357.5 374 Q325 412 267 412 Z M486 275 Q486 214 466 161 Q446 108 411 69 Q376 30 328 7.5 Q280 -15 224 -15 Q173 -15 133 2.5 Q93 20 66 50.5 Q39 81 24.5 121.5 Q10 162 10 207 Q10 269 30 322 Q50 375 85 413.5 Q120 452 168.5 474 Q217 496 273 496 Q325 496 365 478.5 Q405 461 432 431 Q459 401 472.5 360.5 Q486 320 486 275 Z " />
<glyph glyph-name="OE" unicode="&#x152;" horiz-adv-x="1103" d="M618 404 Q618 459 602 502 Q586 545 557.5 574.5 Q529 604 490.5 619 Q452 634 406 634 Q341 634 290.5 606 Q240 578 205.5 532 Q171 486 153 426.5 Q135 367 135 304 Q135 248 151 205.5 Q167 163 195.5 134 Q224 105 262.5 90 Q301 75 347 75 Q412 75 462.5 102.5 Q513 130 547.5 176 Q582 222 600 281.5 Q618 341 618 404 Z M542 0 L555 60 Q508 23 453.5 4 Q399 -15 342 -15 Q273 -15 216 7.5 Q159 30 119 70.5 Q79 111 57 168 Q35 225 35 294 Q35 400 68 480.5 Q101 561 154.5 615 Q208 669 275.5 696.5 Q343 724 412 724 Q503 724 566.5 687 Q630 650 665 583 L692 709 L1118 709 L1099 618 L771 618 L725 400 L1022 400 L1002 308 L705 308 L659 91 L987 91 L968 0 L542 0 Z " />
<glyph glyph-name="oe" unicode="&#x153;" horiz-adv-x="905" d="M605 -15 Q546 -15 497.5 8.5 Q449 32 420 79 Q384 35 334 10 Q284 -15 224 -15 Q173 -15 133 2.5 Q93 20 66 50.5 Q39 81 24.5 121.5 Q10 162 10 207 Q10 269 30 322 Q50 375 85 413.5 Q120 452 168.5 474 Q217 496 273 496 Q337 496 382 470 Q427 444 453 401 Q491 447 543 471.5 Q595 496 651 496 Q700 496 737 481.5 Q774 467 799 441.5 Q824 416 837 380.5 Q850 345 850 302 Q850 273 845 249.5 Q840 226 836 214 L482 214 Q481 209 481 205.5 Q481 202 481 197 Q481 167 490.5 143.5 Q500 120 516.5 103 Q533 86 555.5 77 Q578 68 603 68 Q631 68 653.5 75 Q676 82 693.5 93.5 Q711 105 724 119 Q737 133 745 148 L816 102 Q803 78 782.5 57 Q762 36 735 20 Q708 4 675 -5.5 Q642 -15 605 -15 Z M751 290 Q753 298 753 310 Q753 328 747.5 346.5 Q742 365 729.5 379.5 Q717 394 696.5 403.5 Q676 413 646 413 Q616 413 591 402.5 Q566 392 546.5 375 Q527 358 514 336 Q501 314 495 290 L751 290 Z M390 273 Q390 336 357.5 374 Q325 412 267 412 Q236 412 207 398.5 Q178 385 155.5 359.5 Q133 334 119.5 296 Q106 258 106 209 Q106 145 139 107 Q172 69 228 69 Q259 69 288.5 82.5 Q318 96 340.5 122 Q363 148 376.5 186 Q390 224 390 273 Z " />
<glyph glyph-name="Racute" unicode="&#x154;" horiz-adv-x="615" d="M408 759 L311 759 L430 878 L561 878 L408 759 Z M301 294 L175 294 L113 0 L15 0 L165 709 L395 709 Q441 709 477.5 695.5 Q514 682 539 658 Q564 634 577 601 Q590 568 590 529 Q590 484 576 446 Q562 408 536.5 378.5 Q511 349 476.5 329.5 Q442 310 400 301 L516 0 L412 0 L301 294 Z M332 381 Q402 381 446.5 418 Q491 455 491 523 Q491 568 463 595 Q435 622 379 622 L245 622 L193 381 L332 381 Z " />
<glyph glyph-name="racute" unicode="&#x155;" horiz-adv-x="364" d="M278 543 L194 543 L309 689 L433 689 L278 543 Z M347 384 Q329 387 313 387 Q255 387 210 349.5 Q165 312 147 228 L98 0 L5 0 L89 396 Q96 429 98.5 452.5 Q101 476 101 481 L193 481 Q193 465 190.5 442 Q188 419 184 406 Q199 430 218 446 Q237 462 258 471.5 Q279 481 300.5 485 Q322 489 342 489 Q349 489 356.5 488.5 Q364 488 369 487 L347 384 Z " />
<glyph glyph-name="Rcommaaccent" unicode="&#x156;" horiz-adv-x="615" d="M186 -92 Q186 -67 204.5 -51.5 Q223 -36 250 -36 Q271 -36 290 -50.5 Q309 -65 309 -97 Q309 -129 296.5 -151 Q284 -173 265.5 -187 Q247 -201 225 -207.5 Q203 -214 184 -214 Q181 -214 178 -214 Q175 -214 170 -213 L179 -174 Q200 -174 222.5 -165.5 Q245 -157 253 -133 Q247 -137 235 -137 Q213 -137 199.5 -124.5 Q186 -112 186 -92 Z M301 294 L175 294 L113 0 L15 0 L165 709 L395 709 Q441 709 477.5 695.5 Q514 682 539 658 Q564 634 577 601 Q590 568 590 529 Q590 484 576 446 Q562 408 536.5 378.5 Q511 349 476.5 329.5 Q442 310 400 301 L516 0 L412 0 L301 294 Z M332 381 Q402 381 446.5 418 Q491 455 491 523 Q491 568 463 595 Q435 622 379 622 L245 622 L193 381 L332 381 Z " />
<glyph glyph-name="rcommaaccent" unicode="&#x157;" horiz-adv-x="364" d="M-27 -92 Q-27 -67 -8.5 -51.5 Q10 -36 37 -36 Q58 -36 77 -50.5 Q96 -65 96 -97 Q96 -129 83.5 -151 Q71 -173 52.5 -187 Q34 -201 12 -207.5 Q-10 -214 -29 -214 Q-32 -214 -35 -214 Q-38 -214 -43 -213 L-34 -174 Q-13 -174 9.5 -165.5 Q32 -157 40 -133 Q34 -137 22 -137 Q0 -137 -13.5 -124.5 Q-27 -112 -27 -92 Z M347 384 Q329 387 313 387 Q255 387 210 349.5 Q165 312 147 228 L98 0 L5 0 L89 396 Q96 429 98.5 452.5 Q101 476 101 481 L193 481 Q193 465 190.5 442 Q188 419 184 406 Q199 430 218 446 Q237 462 258 471.5 Q279 481 300.5 485 Q322 489 342 489 Q349 489 356.5 488.5 Q364 488 369 487 L347 384 Z " />
<glyph glyph-name="Rcaron" unicode="&#x158;" horiz-adv-x="615" d="M570 878 L430 759 L310 759 L225 878 L307 878 L376 814 L477 878 L570 878 Z M301 294 L175 294 L113 0 L15 0 L165 709 L395 709 Q441 709 477.5 695.5 Q514 682 539 658 Q564 634 577 601 Q590 568 590 529 Q590 484 576 446 Q562 408 536.5 378.5 Q511 349 476.5 329.5 Q442 310 400 301 L516 0 L412 0 L301 294 Z M332 381 Q402 381 446.5 418 Q491 455 491 523 Q491 568 463 595 Q435 622 379 622 L245 622 L193 381 L332 381 Z " />
<glyph glyph-name="rcaron" unicode="&#x159;" horiz-adv-x="364" d="M424 687 L294 545 L179 545 L109 687 L193 687 L245 606 L333 687 L424 687 Z M347 384 Q329 387 313 387 Q255 387 210 349.5 Q165 312 147 228 L98 0 L5 0 L89 396 Q96 429 98.5 452.5 Q101 476 101 481 L193 481 Q193 465 190.5 442 Q188 419 184 406 Q199 430 218 446 Q237 462 258 471.5 Q279 481 300.5 485 Q322 489 342 489 Q349 489 356.5 488.5 Q364 488 369 487 L347 384 Z " />
<glyph glyph-name="Sacute" unicode="&#x15a;" horiz-adv-x="581" d="M264 73 Q325 74 362.5 104 Q400 134 400 184 Q400 215 382.5 242 Q365 269 324 287 L230 329 Q170 355 135.5 400 Q101 445 101 512 Q101 556 119 595 Q137 634 169 662.5 Q201 691 244.5 707.5 Q288 724 339 724 Q404 724 448.5 703.5 Q493 683 520 653 Q547 623 559 588 Q571 553 571 523 L478 505 Q478 519 473 541.5 Q468 564 452.5 585 Q437 606 408 621.5 Q379 637 331 637 Q304 637 280 628.5 Q256 620 238.5 605 Q221 590 211 569.5 Q201 549 201 525 Q201 490 218.5 465.5 Q236 441 267 427 L364 382 Q435 349 468.5 301.5 Q502 254 502 195 Q502 153 485 115 Q468 77 436.5 48 Q405 19 361 2 Q317 -15 264 -15 Q195 -15 145.5 6.5 Q96 28 65 62 Q34 96 19.5 138 Q5 180 5 221 Q5 223 5 227 Q5 231 6 236 L105 253 Q104 246 104 241 Q104 236 104 233 Q104 203 113 174 Q122 145 141.5 122.5 Q161 100 191 86.5 Q221 73 264 73 Z M408 759 L311 759 L430 878 L561 878 L408 759 Z " />
<glyph glyph-name="sacute" unicode="&#x15b;" horiz-adv-x="441" d="M288 543 L204 543 L319 689 L443 689 L288 543 Z M73 169 Q74 126 101.5 95.5 Q129 65 178 65 Q218 65 236.5 85 Q255 105 255 129 Q255 165 210 186 L140 218 Q98 237 76 267.5 Q54 298 54 340 Q54 370 66 398.5 Q78 427 100.5 448.5 Q123 470 156 483 Q189 496 230 496 Q277 496 309 481.5 Q341 467 361 445.5 Q381 424 390 400 Q399 376 401 357 L317 334 Q315 348 309.5 362.5 Q304 377 293 389 Q282 401 264.5 409 Q247 417 221 417 Q185 417 165 398 Q145 379 145 354 Q145 334 155 321 Q165 308 183 300 L249 270 Q297 248 323 213.5 Q349 179 349 136 Q349 113 339.5 86.5 Q330 60 309 37.5 Q288 15 254.5 0 Q221 -15 173 -15 Q123 -15 88.5 1 Q54 17 32 41.5 Q10 66 0 95 Q-10 124 -10 150 L73 169 Z " />
<glyph glyph-name="Scircumflex" unicode="&#x15c;" horiz-adv-x="581" d="M198 759 L333 878 L453 878 L543 759 L460 759 L386 823 L285 759 L198 759 Z M264 73 Q325 74 362.5 104 Q400 134 400 184 Q400 215 382.5 242 Q365 269 324 287 L230 329 Q170 355 135.5 400 Q101 445 101 512 Q101 556 119 595 Q137 634 169 662.5 Q201 691 244.5 707.5 Q288 724 339 724 Q404 724 448.5 703.5 Q493 683 520 653 Q547 623 559 588 Q571 553 571 523 L478 505 Q478 519 473 541.5 Q468 564 452.5 585 Q437 606 408 621.5 Q379 637 331 637 Q304 637 280 628.5 Q256 620 238.5 605 Q221 590 211 569.5 Q201 549 201 525 Q201 490 218.5 465.5 Q236 441 267 427 L364 382 Q435 349 468.5 301.5 Q502 254 502 195 Q502 153 485 115 Q468 77 436.5 48 Q405 19 361 2 Q317 -15 264 -15 Q195 -15 145.5 6.5 Q96 28 65 62 Q34 96 19.5 138 Q5 180 5 221 Q5 223 5 227 Q5 231 6 236 L105 253 Q104 246 104 241 Q104 236 104 233 Q104 203 113 174 Q122 145 141.5 122.5 Q161 100 191 86.5 Q221 73 264 73 Z " />
<glyph glyph-name="scircumflex" unicode="&#x15d;" horiz-adv-x="441" d="M101 545 L232 684 L345 684 L416 545 L331 545 L279 626 L191 545 L101 545 Z M73 169 Q74 126 101.5 95.5 Q129 65 178 65 Q218 65 236.5 85 Q255 105 255 129 Q255 165 210 186 L140 218 Q98 237 76 267.5 Q54 298 54 340 Q54 370 66 398.5 Q78 427 100.5 448.5 Q123 470 156 483 Q189 496 230 496 Q277 496 309 481.5 Q341 467 361 445.5 Q381 424 390 400 Q399 376 401 357 L317 334 Q315 348 309.5 362.5 Q304 377 293 389 Q282 401 264.5 409 Q247 417 221 417 Q185 417 165 398 Q145 379 145 354 Q145 334 155 321 Q165 308 183 300 L249 270 Q297 248 323 213.5 Q349 179 349 136 Q349 113 339.5 86.5 Q330 60 309 37.5 Q288 15 254.5 0 Q221 -15 173 -15 Q123 -15 88.5 1 Q54 17 32 41.5 Q10 66 0 95 Q-10 124 -10 150 L73 169 Z " />
<glyph glyph-name="Scedilla" unicode="&#x15e;" horiz-adv-x="581" d="M196 -9 Q145 1 109 24.5 Q73 48 50 79.5 Q27 111 16 148 Q5 185 5 221 Q5 223 5 226.5 Q5 230 6 236 L105 253 Q104 245 104 239.5 Q104 234 104 233 Q104 203 113 174 Q122 145 141.5 122.5 Q161 100 191 86.5 Q221 73 264 73 Q325 73 362.5 103.5 Q400 134 400 184 Q400 215 382.5 242 Q365 269 324 287 L230 329 Q170 355 135.5 400 Q101 445 101 512 Q101 556 119 595 Q137 634 169 662.5 Q201 691 244.5 707.5 Q288 724 339 724 Q404 724 448.5 703.5 Q493 683 520 653 Q547 623 559 588 Q571 553 571 523 L478 505 Q478 519 473 541.5 Q468 564 452.5 585 Q437 606 408 621.5 Q379 637 331 637 Q304 637 280 628.5 Q256 620 238.5 605 Q221 590 211 569.5 Q201 549 201 525 Q201 490 218.5 465.5 Q236 441 267 427 L364 382 Q435 349 468.5 301.5 Q502 254 502 195 Q502 154 485.5 116.5 Q469 79 438.5 50.5 Q408 22 365.5 4 Q323 -14 271 -15 L227 -52 Q261 -57 278 -77.5 Q295 -98 295 -124 Q295 -163 263 -189.5 Q231 -216 180 -216 Q154 -216 133 -208.5 Q112 -201 96.5 -190.5 Q81 -180 70.5 -167.5 Q60 -155 56 -145 L108 -113 Q110 -118 115 -126.5 Q120 -135 128.5 -142.5 Q137 -150 149.5 -155.5 Q162 -161 179 -161 Q196 -161 210.5 -152.5 Q225 -144 225 -126 Q225 -111 212.5 -102 Q200 -93 182 -93 Q180 -93 176 -93 Q172 -93 168 -94 L146 -52 L196 -9 Z " />
<glyph glyph-name="scedilla" unicode="&#x15f;" horiz-adv-x="441" d="M145 -52 Q179 -57 196 -77.5 Q213 -98 213 -124 Q213 -163 181 -189.5 Q149 -216 98 -216 Q72 -216 51 -208.5 Q30 -201 14.5 -190.5 Q-1 -180 -11.5 -167.5 Q-22 -155 -26 -145 L26 -113 Q28 -118 33 -126.5 Q38 -135 46.5 -142.5 Q55 -150 67.5 -155.5 Q80 -161 97 -161 Q114 -161 128.5 -152.5 Q143 -144 143 -126 Q143 -111 131.5 -102 Q120 -93 100 -93 Q98 -93 94 -93 Q90 -93 86 -94 L64 -52 L115 -8 Q82 1 58 18.5 Q34 36 19 58 Q4 80 -3 104 Q-10 128 -10 150 L73 169 Q74 126 101.5 95.5 Q129 65 178 65 Q218 65 236.5 85 Q255 105 255 129 Q255 165 210 186 L140 218 Q98 237 76 267.5 Q54 298 54 340 Q54 370 66 398.5 Q78 427 100.5 448.5 Q123 470 156 483 Q189 496 230 496 Q277 496 309 481.5 Q341 467 361 445.5 Q381 424 390 400 Q399 376 401 357 L317 334 Q315 348 309.5 362.5 Q304 377 293 389 Q282 401 264.5 409 Q247 417 221 417 Q185 417 165 398 Q145 379 145 354 Q145 334 155 321 Q165 308 183 300 L249 270 Q297 248 323 213.5 Q349 179 349 136 Q349 114 340.5 88.5 Q332 63 313 41.5 Q294 20 263.5 4.5 Q233 -11 190 -14 L145 -52 Z " />
<glyph glyph-name="Scaron" unicode="&#x160;" horiz-adv-x="581" d="M264 73 Q325 74 362.5 104 Q400 134 400 184 Q400 215 382.5 242 Q365 269 324 287 L230 329 Q170 355 135.5 400 Q101 445 101 512 Q101 556 119 595 Q137 634 169 662.5 Q201 691 244.5 707.5 Q288 724 339 724 Q404 724 448.5 703.5 Q493 683 520 653 Q547 623 559 588 Q571 553 571 523 L478 505 Q478 519 473 541.5 Q468 564 452.5 585 Q437 606 408 621.5 Q379 637 331 637 Q304 637 280 628.5 Q256 620 238.5 605 Q221 590 211 569.5 Q201 549 201 525 Q201 490 218.5 465.5 Q236 441 267 427 L364 382 Q435 349 468.5 301.5 Q502 254 502 195 Q502 153 485 115 Q468 77 436.5 48 Q405 19 361 2 Q317 -15 264 -15 Q195 -15 145.5 6.5 Q96 28 65 62 Q34 96 19.5 138 Q5 180 5 221 Q5 223 5 227 Q5 231 6 236 L105 253 Q104 246 104 241 Q104 236 104 233 Q104 203 113 174 Q122 145 141.5 122.5 Q161 100 191 86.5 Q221 73 264 73 Z M570 878 L430 759 L310 759 L225 878 L307 878 L376 814 L477 878 L570 878 Z " />
<glyph glyph-name="scaron" unicode="&#x161;" horiz-adv-x="441" d="M451 687 L321 545 L206 545 L136 687 L220 687 L272 606 L360 687 L451 687 Z M73 169 Q74 126 101.5 95.5 Q129 65 178 65 Q218 65 236.5 85 Q255 105 255 129 Q255 165 210 186 L140 218 Q98 237 76 267.5 Q54 298 54 340 Q54 370 66 398.5 Q78 427 100.5 448.5 Q123 470 156 483 Q189 496 230 496 Q277 496 309 481.5 Q341 467 361 445.5 Q381 424 390 400 Q399 376 401 357 L317 334 Q315 348 309.5 362.5 Q304 377 293 389 Q282 401 264.5 409 Q247 417 221 417 Q185 417 165 398 Q145 379 145 354 Q145 334 155 321 Q165 308 183 300 L249 270 Q297 248 323 213.5 Q349 179 349 136 Q349 113 339.5 86.5 Q330 60 309 37.5 Q288 15 254.5 0 Q221 -15 173 -15 Q123 -15 88.5 1 Q54 17 32 41.5 Q10 66 0 95 Q-10 124 -10 150 L73 169 Z " />
<glyph glyph-name="Tcommaaccent" unicode="&#x162;" horiz-adv-x="566" d="M163 0 L294 619 L65 619 L84 709 L631 709 L612 619 L392 619 L261 0 L200 -52 Q234 -57 251 -77.5 Q268 -98 268 -124 Q268 -163 236 -189.5 Q204 -216 153 -216 Q127 -216 106 -209 Q85 -202 69 -191.5 Q53 -181 43 -168.5 Q33 -156 29 -145 L81 -113 Q83 -118 88 -126.5 Q93 -135 101.5 -142.5 Q110 -150 122.5 -155.5 Q135 -161 152 -161 Q169 -161 183.5 -152.5 Q198 -144 198 -126 Q198 -111 186.5 -102 Q175 -93 155 -93 Q153 -93 149 -93 Q145 -93 141 -94 L119 -52 L177 0 L163 0 Z " />
<glyph glyph-name="tcommaaccent" unicode="&#x163;" horiz-adv-x="337" d="M59 101 Q59 121 63 138 L118 396 L30 396 L48 481 L62 481 Q105 481 129 502 Q153 523 161 559 L177 633 L263 633 L230 481 L327 481 L309 396 L212 396 L159 143 Q156 129 156 120 Q156 77 210 77 Q218 77 227 77.5 Q236 78 242 79 L226 2 Q223 0 214.5 -1.5 Q206 -3 192 -4 L135 -52 Q169 -57 186 -77.5 Q203 -98 203 -124 Q203 -163 171 -189.5 Q139 -216 88 -216 Q62 -216 41 -209 Q20 -202 4 -191.5 Q-12 -181 -22 -168.5 Q-32 -156 -36 -145 L16 -113 Q18 -118 23 -126.5 Q28 -135 36.5 -142.5 Q45 -150 57.5 -155.5 Q70 -161 87 -161 Q104 -161 118.5 -152.5 Q133 -144 133 -126 Q133 -111 121.5 -102 Q110 -93 90 -93 Q88 -93 84 -93 Q80 -93 76 -94 L54 -52 L119 5 Q90 16 74.5 41 Q59 66 59 101 Z " />
<glyph glyph-name="Tcaron" unicode="&#x164;" horiz-adv-x="566" d="M392 619 L261 0 L163 0 L294 619 L65 619 L84 709 L631 709 L612 619 L392 619 Z M569 878 L429 759 L309 759 L224 878 L306 878 L375 814 L476 878 L569 878 Z " />
<glyph glyph-name="tcaron" unicode="&#x165;" horiz-adv-x="337" d="M380 566 L308 566 L374 745 L482 745 L380 566 Z M59 101 Q59 121 63 138 L118 396 L30 396 L48 481 L62 481 Q105 481 129 502 Q153 523 161 559 L177 633 L263 633 L230 481 L327 481 L309 396 L212 396 L159 143 Q156 129 156 120 Q156 77 210 77 Q218 77 227 77.5 Q236 78 242 79 L226 2 Q222 0 209.5 -2.5 Q197 -5 175 -5 Q122 -5 90.5 22.5 Q59 50 59 101 Z " />
<glyph glyph-name="Tbar" unicode="&#x166;" horiz-adv-x="566" d="M392 619 L340 372 L462 372 L444 291 L322 291 L261 0 L163 0 L224 291 L108 291 L126 372 L242 372 L294 619 L65 619 L84 709 L631 709 L612 619 L392 619 Z " />
<glyph glyph-name="tbar" unicode="&#x167;" horiz-adv-x="337" d="M188 284 L290 284 L274 208 L172 208 L159 143 Q156 129 156 120 Q156 77 210 77 Q218 77 227 77.5 Q236 78 242 79 L226 2 Q222 0 209.5 -2.5 Q197 -5 175 -5 Q122 -5 90.5 22.5 Q59 50 59 101 Q59 121 63 138 L78 208 L-7 208 L9 284 L94 284 L118 396 L30 396 L48 481 L62 481 Q105 481 129 502 Q153 523 161 559 L177 633 L263 633 L230 481 L327 481 L309 396 L212 396 L188 284 Z " />
<glyph glyph-name="Utilde" unicode="&#x168;" horiz-adv-x="666" d="M661 709 L557 216 Q534 105 463 45 Q392 -15 288 -15 Q182 -15 119 39.5 Q56 94 56 196 Q56 213 57.5 231.5 Q59 250 64 270 L157 709 L251 709 L159 258 Q153 229 153 204 Q153 145 187 110.5 Q221 76 293 76 Q359 76 402 115 Q445 154 460 225 L562 709 L661 709 Z M598 881 Q586 810 556 782.5 Q526 755 485 755 Q464 755 446 762.5 Q428 770 415 779 L403 787 Q394 793 385 797 Q376 801 365 801 Q351 801 341 791 Q331 781 326 757 L256 757 Q260 791 270.5 815 Q281 839 296 854 Q311 869 330 876 Q349 883 370 883 Q391 883 409 875.5 Q427 868 440 859 L452 851 Q461 845 470 841 Q479 837 490 837 Q504 837 514 847 Q524 857 529 881 L598 881 Z " />
<glyph glyph-name="utilde" unicode="&#x169;" horiz-adv-x="544" d="M318 56 Q294 22 257.5 6 Q221 -10 187 -10 Q112 -10 72 32.5 Q32 75 32 145 Q32 171 38 200 L98 481 L192 481 L133 202 Q131 190 129.5 178.5 Q128 167 128 156 Q128 119 147 94.5 Q166 70 213 70 Q240 70 261.5 80.5 Q283 91 299 109 Q315 127 326 150.5 Q337 174 342 200 L401 481 L494 481 L419 125 Q411 87 409.5 59 Q408 31 408 16 Q408 14 408 10 Q408 6 409 0 L319 0 Q317 10 317 28 Q317 32 317 39 Q317 46 318 56 Z M150 554 Q154 588 164.5 612 Q175 636 190 651 Q205 666 224 673 Q243 680 264 680 Q285 680 302 672.5 Q319 665 332 656 L344 648 Q353 642 361 638 Q369 634 380 634 Q394 634 404 644 Q414 654 419 678 L488 678 Q476 607 446 579.5 Q416 552 375 552 Q354 552 337 559.5 Q320 567 307 576 L295 584 Q286 590 278 594 Q270 598 259 598 Q245 598 235 588 Q225 578 220 554 L150 554 Z " />
<glyph glyph-name="Umacron" unicode="&#x16a;" horiz-adv-x="666" d="M661 709 L557 216 Q534 105 463 45 Q392 -15 288 -15 Q182 -15 119 39.5 Q56 94 56 196 Q56 213 57.5 231.5 Q59 250 64 270 L157 709 L251 709 L159 258 Q153 229 153 204 Q153 145 187 110.5 Q221 76 293 76 Q359 76 402 115 Q445 154 460 225 L562 709 L661 709 Z M273 779 L291 862 L584 862 L566 779 L273 779 Z " />
<glyph glyph-name="umacron" unicode="&#x16b;" horiz-adv-x="544" d="M318 56 Q294 22 257.5 6 Q221 -10 187 -10 Q112 -10 72 32.5 Q32 75 32 145 Q32 171 38 200 L98 481 L192 481 L133 202 Q131 190 129.5 178.5 Q128 167 128 156 Q128 119 147 94.5 Q166 70 213 70 Q240 70 261.5 80.5 Q283 91 299 109 Q315 127 326 150.5 Q337 174 342 200 L401 481 L494 481 L419 125 Q411 87 409.5 59 Q408 31 408 16 Q408 14 408 10 Q408 6 409 0 L319 0 Q317 10 317 28 Q317 32 317 39 Q317 46 318 56 Z M176 577 L193 658 L466 658 L449 577 L176 577 Z " />
<glyph glyph-name="Ubreve" unicode="&#x16c;" horiz-adv-x="666" d="M661 709 L557 216 Q534 105 463 45 Q392 -15 288 -15 Q182 -15 119 39.5 Q56 94 56 196 Q56 213 57.5 231.5 Q59 250 64 270 L157 709 L251 709 L159 258 Q153 229 153 204 Q153 145 187 110.5 Q221 76 293 76 Q359 76 402 115 Q445 154 460 225 L562 709 L661 709 Z M418 755 Q350 755 314.5 788 Q279 821 279 868 Q279 874 281 884 L359 884 Q358 880 358 876 Q358 859 372 844.5 Q386 830 424 830 Q467 830 487 848 Q507 866 512 884 L591 884 Q584 860 570 837 Q556 814 534.5 795.5 Q513 777 484 766 Q455 755 418 755 Z " />
<glyph glyph-name="ubreve" unicode="&#x16d;" horiz-adv-x="544" d="M318 56 Q294 22 257.5 6 Q221 -10 187 -10 Q112 -10 72 32.5 Q32 75 32 145 Q32 171 38 200 L98 481 L192 481 L133 202 Q131 190 129.5 178.5 Q128 167 128 156 Q128 119 147 94.5 Q166 70 213 70 Q240 70 261.5 80.5 Q283 91 299 109 Q315 127 326 150.5 Q337 174 342 200 L401 481 L494 481 L419 125 Q411 87 409.5 59 Q408 31 408 16 Q408 14 408 10 Q408 6 409 0 L319 0 Q317 10 317 28 Q317 32 317 39 Q317 46 318 56 Z M304 544 Q274 544 251 553.5 Q228 563 213 579.5 Q198 596 190 617 Q182 638 182 661 Q182 674 185 688 L254 688 Q253 685 253 682.5 Q253 680 253 679 Q253 669 256 659.5 Q259 650 266 642 Q273 634 285 629 Q297 624 314 624 Q333 624 347.5 630 Q362 636 372.5 645.5 Q383 655 390 666 Q397 677 400 688 L477 688 Q471 661 457.5 635.5 Q444 610 422.5 589.5 Q401 569 371.5 556.5 Q342 544 304 544 Z " />
<glyph glyph-name="Uring" unicode="&#x16e;" horiz-adv-x="666" d="M661 709 L557 216 Q534 105 463 45 Q392 -15 288 -15 Q182 -15 119 39.5 Q56 94 56 196 Q56 213 57.5 231.5 Q59 250 64 270 L157 709 L251 709 L159 258 Q153 229 153 204 Q153 145 187 110.5 Q221 76 293 76 Q359 76 402 115 Q445 154 460 225 L562 709 L661 709 Z M428 895 Q409 895 393 881.5 Q377 868 377 845 Q377 825 388.5 814 Q400 803 420 803 Q441 803 456.5 816.5 Q472 830 472 853 Q472 871 460 883 Q448 895 428 895 Z M313 837 Q313 864 323.5 886.5 Q334 909 351 924.5 Q368 940 390 949 Q412 958 435 958 Q457 958 475.5 950 Q494 942 508 928.5 Q522 915 530 897 Q538 879 538 858 Q538 835 528.5 813.5 Q519 792 502.5 775.5 Q486 759 464 749 Q442 739 418 739 Q374 739 343.5 767 Q313 795 313 837 Z " />
<glyph glyph-name="uring" unicode="&#x16f;" horiz-adv-x="544" d="M318 56 Q294 22 257.5 6 Q221 -10 187 -10 Q112 -10 72 32.5 Q32 75 32 145 Q32 171 38 200 L98 481 L192 481 L133 202 Q131 190 129.5 178.5 Q128 167 128 156 Q128 119 147 94.5 Q166 70 213 70 Q240 70 261.5 80.5 Q283 91 299 109 Q315 127 326 150.5 Q337 174 342 200 L401 481 L494 481 L419 125 Q411 87 409.5 59 Q408 31 408 16 Q408 14 408 10 Q408 6 409 0 L319 0 Q317 10 317 28 Q317 32 317 39 Q317 46 318 56 Z M326 750 Q348 750 366.5 742 Q385 734 399 720.5 Q413 707 421 689 Q429 671 429 650 Q429 627 419.5 605.5 Q410 584 393.5 567.5 Q377 551 355 541 Q333 531 309 531 Q265 531 234.5 559 Q204 587 204 629 Q204 656 214.5 678.5 Q225 701 242 716.5 Q259 732 281 741 Q303 750 326 750 Z M268 637 Q268 617 279.5 606 Q291 595 311 595 Q332 595 347.5 608.5 Q363 622 363 645 Q363 663 351 675 Q339 687 319 687 Q300 687 284 673.5 Q268 660 268 637 Z " />
<glyph glyph-name="Uhungarumlaut" unicode="&#x170;" horiz-adv-x="666" d="M661 709 L557 216 Q534 105 463 45 Q392 -15 288 -15 Q182 -15 119 39.5 Q56 94 56 196 Q56 213 57.5 231.5 Q59 250 64 270 L157 709 L251 709 L159 258 Q153 229 153 204 Q153 145 187 110.5 Q221 76 293 76 Q359 76 402 115 Q445 154 460 225 L562 709 L661 709 Z M367 759 L294 759 L375 878 L485 878 L367 759 Z M508 759 L435 759 L526 878 L636 878 L508 759 Z " />
<glyph glyph-name="uhungarumlaut" unicode="&#x171;" horiz-adv-x="544" d="M318 56 Q294 22 257.5 6 Q221 -10 187 -10 Q112 -10 72 32.5 Q32 75 32 145 Q32 171 38 200 L98 481 L192 481 L133 202 Q131 190 129.5 178.5 Q128 167 128 156 Q128 119 147 94.5 Q166 70 213 70 Q240 70 261.5 80.5 Q283 91 299 109 Q315 127 326 150.5 Q337 174 342 200 L401 481 L494 481 L419 125 Q411 87 409.5 59 Q408 31 408 16 Q408 14 408 10 Q408 6 409 0 L319 0 Q317 10 317 28 Q317 32 317 39 Q317 46 318 56 Z M247 543 L178 543 L260 689 L368 689 L247 543 Z M381 543 L312 543 L404 689 L512 689 L381 543 Z " />
<glyph glyph-name="Uogonek" unicode="&#x172;" horiz-adv-x="666" d="M193 -132 Q193 -90 214 -61.5 Q235 -33 262 -14 Q167 -7 111.5 46.5 Q56 100 56 196 Q56 213 57.5 231.5 Q59 250 64 270 L157 709 L251 709 L159 258 Q153 229 153 204 Q153 145 187 110.5 Q221 76 293 76 Q359 76 402 115 Q445 154 460 225 L562 709 L661 709 L557 216 Q539 131 494 77 Q449 23 380 -1 Q363 -7 344.5 -17 Q326 -27 310 -40.5 Q294 -54 284 -71.5 Q274 -89 274 -109 Q274 -129 287 -138 Q300 -147 318 -147 Q323 -147 330 -146.5 Q337 -146 351 -144 L337 -208 Q326 -212 315.5 -214 Q305 -216 286 -216 Q244 -216 218.5 -193 Q193 -170 193 -132 Z " />
<glyph glyph-name="uogonek" unicode="&#x173;" horiz-adv-x="544" d="M218 -132 Q218 -106 227 -85 Q236 -64 250.5 -47.5 Q265 -31 283 -18.5 Q301 -6 319 3 Q317 16 317 22.5 Q317 29 317 31 Q317 36 317 42 Q317 48 318 56 Q294 22 257.5 6 Q221 -10 187 -10 Q112 -10 72 32.5 Q32 75 32 145 Q32 171 38 200 L98 481 L192 481 L133 202 Q131 190 129.5 178.5 Q128 167 128 156 Q128 119 147 94.5 Q166 70 213 70 Q240 70 261.5 80.5 Q283 91 299 109 Q315 127 326 150.5 Q337 174 342 200 L401 481 L494 481 L419 125 Q411 87 409 59 Q407 31 407 16 L407 0 Q390 -7 371.5 -17.5 Q353 -28 336.5 -41.5 Q320 -55 309.5 -71.5 Q299 -88 299 -109 Q299 -129 312 -138 Q325 -147 343 -147 Q348 -147 355 -146.5 Q362 -146 376 -144 L362 -208 Q351 -212 340.5 -214 Q330 -216 311 -216 Q269 -216 243.5 -193 Q218 -170 218 -132 Z " />
<glyph glyph-name="Wcircumflex" unicode="&#x174;" horiz-adv-x="952" d="M391 759 L526 878 L646 878 L736 759 L653 759 L579 823 L478 759 L391 759 Z M598 709 L661 148 L913 709 L1012 709 L685 0 L588 0 L525 575 L245 0 L145 0 L90 709 L185 709 L224 154 L495 709 L598 709 Z " />
<glyph glyph-name="wcircumflex" unicode="&#x175;" horiz-adv-x="768" d="M245 545 L376 684 L489 684 L560 545 L475 545 L423 626 L335 545 L245 545 Z M448 481 L494 122 L675 481 L778 481 L523 0 L426 0 L378 364 L188 0 L89 0 L40 481 L130 481 L161 123 L349 481 L448 481 Z " />
<glyph glyph-name="Ycircumflex" unicode="&#x176;" horiz-adv-x="611" d="M95 709 L198 709 L321 398 L549 709 L666 709 L353 299 L291 0 L193 0 L257 305 L95 709 Z M204 759 L339 878 L459 878 L549 759 L466 759 L392 823 L291 759 L204 759 Z " />
<glyph glyph-name="ycircumflex" unicode="&#x177;" horiz-adv-x="504" d="M116 545 L247 684 L360 684 L431 545 L346 545 L294 626 L206 545 L116 545 Z M-30 -190 L151 83 L33 481 L135 481 L220 179 L408 481 L519 481 L78 -190 L-30 -190 Z " />
<glyph glyph-name="Ydieresis" unicode="&#x178;" horiz-adv-x="611" d="M226 813 Q226 842 245 860 Q264 878 292 878 Q315 878 329.5 863 Q344 848 344 826 Q344 797 324.5 778.5 Q305 760 279 760 Q256 760 241 775 Q226 790 226 813 Z M416 813 Q416 842 435 860 Q454 878 482 878 Q505 878 519.5 863 Q534 848 534 826 Q534 797 514.5 778.5 Q495 760 469 760 Q446 760 431 775 Q416 790 416 813 Z M95 709 L198 709 L321 398 L549 709 L666 709 L353 299 L291 0 L193 0 L257 305 L95 709 Z " />
<glyph glyph-name="Zacute" unicode="&#x179;" horiz-adv-x="614" d="M-30 0 L-10 96 L500 619 L111 619 L130 709 L644 709 L624 616 L112 91 L518 91 L499 0 L-30 0 Z M407 759 L310 759 L429 878 L560 878 L407 759 Z " />
<glyph glyph-name="zacute" unicode="&#x17a;" horiz-adv-x="473" d="M294 543 L210 543 L325 689 L449 689 L294 543 Z M-30 0 L-12 84 L315 396 L63 396 L81 481 L453 481 L435 396 L108 85 L377 85 L359 0 L-30 0 Z " />
<glyph glyph-name="Zdotaccent" unicode="&#x17b;" horiz-adv-x="614" d="M-30 0 L-10 96 L500 619 L111 619 L130 709 L644 709 L624 616 L112 91 L518 91 L499 0 L-30 0 Z M333 814 Q333 843 353.5 863.5 Q374 884 403 884 Q429 884 445.5 867 Q462 850 462 827 Q462 812 456 799 Q450 786 440.5 776.5 Q431 767 418 761 Q405 755 391 755 Q365 755 349 772 Q333 789 333 814 Z " />
<glyph glyph-name="zdotaccent" unicode="&#x17c;" horiz-adv-x="473" d="M222 608 Q222 635 242.5 657.5 Q263 680 293 680 Q319 680 335 663 Q351 646 351 623 Q351 608 345 595 Q339 582 329.5 572.5 Q320 563 307 557 Q294 551 280 551 Q254 551 238 567.5 Q222 584 222 608 Z M-30 0 L-12 84 L315 396 L63 396 L81 481 L453 481 L435 396 L108 85 L377 85 L359 0 L-30 0 Z " />
<glyph glyph-name="Zcaron" unicode="&#x17d;" horiz-adv-x="614" d="M-30 0 L-10 96 L500 619 L111 619 L130 709 L644 709 L624 616 L112 91 L518 91 L499 0 L-30 0 Z M592 878 L452 759 L332 759 L247 878 L329 878 L398 814 L499 878 L592 878 Z " />
<glyph glyph-name="zcaron" unicode="&#x17e;" horiz-adv-x="473" d="M456 687 L326 545 L211 545 L141 687 L225 687 L277 606 L365 687 L456 687 Z M-30 0 L-12 84 L315 396 L63 396 L81 481 L453 481 L435 396 L108 85 L377 85 L359 0 L-30 0 Z " />
<glyph glyph-name="uni018F" unicode="&#x18f;" horiz-adv-x="767" d="M411 724 Q477 724 535.5 701.5 Q594 679 637.5 638 Q681 597 706.5 538 Q732 479 732 407 Q732 303 696.5 223.5 Q661 144 605 91 Q549 38 480.5 11 Q412 -16 346 -16 Q286 -16 230 3.5 Q174 23 130.5 62 Q87 101 61 158.5 Q35 216 35 291 Q35 311 36.5 331.5 Q38 352 43 375 L631 375 Q631 382 631.5 389 Q632 396 632 404 Q632 460 614 502.5 Q596 545 565 574 Q534 603 492 618 Q450 633 403 633 Q365 633 328.5 623 Q292 613 260.5 594 Q229 575 203.5 548.5 Q178 522 162 489 L85 530 Q106 575 140 610.5 Q174 646 217 671.5 Q260 697 309.5 710.5 Q359 724 411 724 Z M356 73 Q394 73 433.5 86 Q473 99 508 125 Q543 151 571.5 191 Q600 231 616 285 L131 285 Q131 234 149.5 194.5 Q168 155 198.5 128 Q229 101 270 87 Q311 73 356 73 Z " />
<glyph glyph-name="florin" unicode="&#x192;" horiz-adv-x="481" d="M182 398 L71 398 L71 481 L198 481 L221 594 Q228 632 244.5 659.5 Q261 687 283.5 704.5 Q306 722 332.5 730.5 Q359 739 386 739 Q419 739 435 735.5 Q451 732 460 729 L460 646 Q455 648 443 650.5 Q431 653 408 653 Q395 653 380.5 649.5 Q366 646 352.5 636.5 Q339 627 328 609 Q317 591 311 561 L295 481 L424 481 L424 398 L278 398 L196 -13 Q188 -51 172 -78.5 Q156 -106 133.5 -123.5 Q111 -141 84.5 -149.5 Q58 -158 31 -158 Q0 -158 -16 -155.5 Q-32 -153 -46 -148 L-46 -65 Q-35 -68 -21.5 -70 Q-8 -72 10 -72 Q23 -72 37.5 -69 Q52 -66 65 -56.5 Q78 -47 89 -29 Q100 -11 106 20 L182 398 Z " />
<glyph glyph-name="uni01B5" unicode="&#x1b5;" horiz-adv-x="614" d="M-30 0 L-10 96 L216 328 L80 328 L98 413 L299 413 L500 619 L111 619 L130 709 L644 709 L624 616 L426 413 L566 413 L548 328 L343 328 L112 91 L518 91 L499 0 L-30 0 Z " />
<glyph glyph-name="uni01B6" unicode="&#x1b6;" horiz-adv-x="473" d="M49 287 L201 287 L315 396 L63 396 L81 481 L453 481 L435 396 L320 287 L409 287 L392 211 L240 211 L108 85 L377 85 L359 0 L-30 0 L-12 84 L121 211 L32 211 L49 287 Z " />
<glyph glyph-name="Aringacute" unicode="&#x1fa;" horiz-adv-x="654" d="M209 289 L438 289 L388 597 L209 289 Z M417 801 Q398 801 382 787.5 Q366 774 366 751 Q366 731 377.5 720 Q389 709 409 709 Q430 709 445.5 722.5 Q461 736 461 759 Q461 777 449 789 Q437 801 417 801 Z M467 902 L370 902 L489 1021 L620 1021 L467 902 Z M302 743 Q302 770 312.5 792.5 Q323 815 340 830.5 Q357 846 379 855 Q401 864 424 864 Q446 864 464.5 856 Q483 848 497 834.5 Q511 821 519 803 Q527 785 527 764 Q527 734 511 707 Q495 680 469 663 L584 0 L485 0 L453 198 L156 198 L41 0 L-70 0 L332 674 Q302 701 302 743 Z " />
<glyph glyph-name="aringacute" unicode="&#x1fb;" horiz-adv-x="567" d="M341 748 Q363 748 381.5 740 Q400 732 414 718.5 Q428 705 436 687 Q444 669 444 648 Q444 625 434.5 603.5 Q425 582 408.5 565.5 Q392 549 370 539 Q348 529 324 529 Q280 529 249.5 557 Q219 585 219 627 Q219 654 229.5 676.5 Q240 699 257 714.5 Q274 730 296 739 Q318 748 341 748 Z M283 635 Q283 615 294.5 604 Q306 593 326 593 Q347 593 362.5 606.5 Q378 620 378 643 Q378 661 366 673 Q354 685 334 685 Q315 685 299 671.5 Q283 658 283 635 Z M403 783 L319 783 L434 929 L558 929 L403 783 Z M266 414 Q227 414 196.5 394.5 Q166 375 146 344.5 Q126 314 115.5 276 Q105 238 105 202 Q105 145 133 108 Q161 71 219 71 Q253 71 282.5 88 Q312 105 333 134 Q354 163 366 203 Q378 243 378 290 Q378 342 351 378 Q324 414 266 414 Z M517 481 L442 125 Q434 87 432.5 59 Q431 31 431 16 Q431 14 431 10 Q431 6 432 0 L343 0 Q341 10 341 28 Q341 33 341 41.5 Q341 50 343 61 Q318 31 281.5 10.5 Q245 -10 200 -10 Q153 -10 117.5 6.5 Q82 23 58 51.5 Q34 80 22 118.5 Q10 157 10 201 Q10 259 28.5 312.5 Q47 366 80 406.5 Q113 447 159 471 Q205 495 261 495 Q322 495 358.5 472 Q395 449 411 420 L424 481 L517 481 Z " />
<glyph glyph-name="AEacute" unicode="&#x1fc;" horiz-adv-x="1019" d="M903 91 L884 0 L458 0 L498 191 L217 191 L54 0 L-70 0 L545 709 L1034 709 L1015 618 L687 618 L641 400 L938 400 L918 308 L621 308 L575 91 L903 91 Z M517 279 L591 629 L292 279 L517 279 Z M674 759 L577 759 L696 878 L827 878 L674 759 Z " />
<glyph glyph-name="aeacute" unicode="&#x1fd;" horiz-adv-x="853" d="M313 284 Q334 285 347 297.5 Q360 310 360 334 Q360 350 353.5 365 Q347 380 333.5 391.5 Q320 403 299.5 410 Q279 417 251 417 Q207 417 174.5 394 Q142 371 131 333 L50 359 Q60 392 81 417.5 Q102 443 130.5 460.5 Q159 478 192.5 487 Q226 496 262 496 Q321 496 361 475 Q401 454 422 422 Q458 458 503.5 477 Q549 496 599 496 Q648 496 685 481.5 Q722 467 747 441.5 Q772 416 785 380.5 Q798 345 798 302 Q798 273 793 249.5 Q788 226 784 214 L430 214 Q429 209 429 205.5 Q429 202 429 197 Q429 167 438.5 143.5 Q448 120 464.5 103 Q481 86 503.5 77 Q526 68 551 68 Q579 68 601.5 75 Q624 82 641.5 93.5 Q659 105 672 119 Q685 133 693 148 L764 102 Q751 78 730.5 57 Q710 36 683 20 Q656 4 623 -5.5 Q590 -15 553 -15 Q491 -15 441 11.5 Q391 38 365 91 Q352 71 334 52 Q316 33 292 18 Q268 3 238 -6 Q208 -15 170 -15 Q129 -15 97 -4.5 Q65 6 43 25 Q21 44 9.5 69 Q-2 94 -2 124 Q-2 158 12 186.5 Q26 215 49.5 235 Q73 255 105 266.5 Q137 278 173 279 L313 284 Z M95 129 Q95 97 119.5 80 Q144 63 178 63 Q201 63 226 71 Q251 79 273.5 97 Q296 115 313 144.5 Q330 174 337 216 L179 209 Q163 208 148 203 Q133 198 121 188.5 Q109 179 102 164 Q95 149 95 129 Z M594 413 Q564 413 539 402.5 Q514 392 494.5 375 Q475 358 462 336 Q449 314 443 290 L699 290 Q701 298 701 310 Q701 328 695.5 346.5 Q690 365 677.5 379.5 Q665 394 644.5 403.5 Q624 413 594 413 Z M467 543 L383 543 L498 689 L622 689 L467 543 Z " />
<glyph glyph-name="Oslashacute" unicode="&#x1fe;" horiz-adv-x="753" d="M486 759 L389 759 L508 878 L639 878 L486 759 Z M35 294 Q35 400 68 480.5 Q101 561 154.5 615 Q208 669 275.5 696.5 Q343 724 412 724 Q475 724 527 706 Q579 688 618 654 L695 731 L754 674 L672 591 Q718 517 718 414 Q718 308 685 227.5 Q652 147 598.5 93 Q545 39 478 12 Q411 -15 342 -15 Q218 -15 138 53 L65 -21 L6 36 L84 114 Q35 189 35 294 Z M135 304 Q135 238 158 189 L549 584 Q521 609 484.5 621.5 Q448 634 406 634 Q341 634 290.5 606 Q240 578 205.5 532 Q171 486 153 426.5 Q135 367 135 304 Z M618 404 Q618 468 597 516 L208 123 Q262 75 347 75 Q412 75 462.5 102.5 Q513 130 547.5 176 Q582 222 600 281.5 Q618 341 618 404 Z " />
<glyph glyph-name="oslashacute" unicode="&#x1ff;" horiz-adv-x="541" d="M330 543 L246 543 L361 689 L485 689 L330 543 Z M-32 26 L37 92 Q10 143 10 207 Q10 269 30 322 Q50 375 85 413.5 Q120 452 168.5 474 Q217 496 273 496 Q357 496 411 451 L472 509 L524 455 L458 392 Q486 342 486 275 Q486 214 466 161 Q446 108 411 69 Q376 30 328 7.5 Q280 -15 224 -15 Q180 -15 145 -2.5 Q110 10 84 33 L20 -28 L-32 26 Z M390 273 Q390 298 384 321 L150 96 Q182 69 228 69 Q259 69 288.5 82.5 Q318 96 340.5 122 Q363 148 376.5 186 Q390 224 390 273 Z M267 412 Q236 412 207 398.5 Q178 385 155.5 359.5 Q133 334 119.5 296 Q106 258 106 209 Q106 185 111 163 L344 386 Q313 412 267 412 Z " />
<glyph glyph-name="Scommaaccent" unicode="&#x218;" horiz-adv-x="581" d="M264 73 Q325 74 362.5 104 Q400 134 400 184 Q400 215 382.5 242 Q365 269 324 287 L230 329 Q170 355 135.5 400 Q101 445 101 512 Q101 556 119 595 Q137 634 169 662.5 Q201 691 244.5 707.5 Q288 724 339 724 Q404 724 448.5 703.5 Q493 683 520 653 Q547 623 559 588 Q571 553 571 523 L478 505 Q478 519 473 541.5 Q468 564 452.5 585 Q437 606 408 621.5 Q379 637 331 637 Q304 637 280 628.5 Q256 620 238.5 605 Q221 590 211 569.5 Q201 549 201 525 Q201 490 218.5 465.5 Q236 441 267 427 L364 382 Q435 349 468.5 301.5 Q502 254 502 195 Q502 153 485 115 Q468 77 436.5 48 Q405 19 361 2 Q317 -15 264 -15 Q195 -15 145.5 6.5 Q96 28 65 62 Q34 96 19.5 138 Q5 180 5 221 Q5 223 5 227 Q5 231 6 236 L105 253 Q104 246 104 241 Q104 236 104 233 Q104 203 113 174 Q122 145 141.5 122.5 Q161 100 191 86.5 Q221 73 264 73 Z M148 -92 Q148 -67 166.5 -51.5 Q185 -36 212 -36 Q233 -36 252 -50.5 Q271 -65 271 -97 Q271 -129 258.5 -151 Q246 -173 227.5 -187 Q209 -201 187 -207.5 Q165 -214 146 -214 Q143 -214 140 -214 Q137 -214 132 -213 L141 -174 Q162 -174 184.5 -165.5 Q207 -157 215 -133 Q209 -137 197 -137 Q175 -137 161.5 -124.5 Q148 -112 148 -92 Z " />
<glyph glyph-name="scommaaccent" unicode="&#x219;" horiz-adv-x="441" d="M74 -92 Q74 -67 92.5 -51.5 Q111 -36 138 -36 Q159 -36 178 -50.5 Q197 -65 197 -97 Q197 -129 184.5 -151 Q172 -173 153.5 -187 Q135 -201 113 -207.5 Q91 -214 72 -214 Q69 -214 66 -214 Q63 -214 58 -213 L67 -174 Q88 -174 110.5 -165.5 Q133 -157 141 -133 Q135 -137 123 -137 Q101 -137 87.5 -124.5 Q74 -112 74 -92 Z M73 169 Q74 126 101.5 95.5 Q129 65 178 65 Q218 65 236.5 85 Q255 105 255 129 Q255 165 210 186 L140 218 Q98 237 76 267.5 Q54 298 54 340 Q54 370 66 398.5 Q78 427 100.5 448.5 Q123 470 156 483 Q189 496 230 496 Q277 496 309 481.5 Q341 467 361 445.5 Q381 424 390 400 Q399 376 401 357 L317 334 Q315 348 309.5 362.5 Q304 377 293 389 Q282 401 264.5 409 Q247 417 221 417 Q185 417 165 398 Q145 379 145 354 Q145 334 155 321 Q165 308 183 300 L249 270 Q297 248 323 213.5 Q349 179 349 136 Q349 113 339.5 86.5 Q330 60 309 37.5 Q288 15 254.5 0 Q221 -15 173 -15 Q123 -15 88.5 1 Q54 17 32 41.5 Q10 66 0 95 Q-10 124 -10 150 L73 169 Z " />
<glyph glyph-name="uni021A" unicode="&#x21a;" horiz-adv-x="566" d="M392 619 L261 0 L163 0 L294 619 L65 619 L84 709 L631 709 L612 619 L392 619 Z M128 -92 Q128 -67 146.5 -51.5 Q165 -36 192 -36 Q213 -36 232 -50.5 Q251 -65 251 -97 Q251 -129 238.5 -151 Q226 -173 207.5 -187 Q189 -201 167 -207.5 Q145 -214 126 -214 Q123 -214 120 -214 Q117 -214 112 -213 L121 -174 Q142 -174 164.5 -165.5 Q187 -157 195 -133 Q189 -137 177 -137 Q155 -137 141.5 -124.5 Q128 -112 128 -92 Z " />
<glyph glyph-name="uni021B" unicode="&#x21b;" horiz-adv-x="337" d="M48 -92 Q48 -67 66.5 -51.5 Q85 -36 112 -36 Q133 -36 152 -50.5 Q171 -65 171 -97 Q171 -129 158.5 -151 Q146 -173 127.5 -187 Q109 -201 87 -207.5 Q65 -214 46 -214 Q43 -214 40 -214 Q37 -214 32 -213 L41 -174 Q62 -174 84.5 -165.5 Q107 -157 115 -133 Q109 -137 97 -137 Q75 -137 61.5 -124.5 Q48 -112 48 -92 Z M59 101 Q59 121 63 138 L118 396 L30 396 L48 481 L62 481 Q105 481 129 502 Q153 523 161 559 L177 633 L263 633 L230 481 L327 481 L309 396 L212 396 L159 143 Q156 129 156 120 Q156 77 210 77 Q218 77 227 77.5 Q236 78 242 79 L226 2 Q222 0 209.5 -2.5 Q197 -5 175 -5 Q122 -5 90.5 22.5 Q59 50 59 101 Z " />
<glyph glyph-name="uni0237" unicode="&#x237;" horiz-adv-x="256" d="M108 481 L201 481 L82 -79 Q69 -139 30.5 -172 Q-8 -205 -63 -205 Q-90 -205 -108 -199.5 Q-126 -194 -131 -191 L-115 -116 Q-113 -117 -102.5 -119.5 Q-92 -122 -78 -122 Q-46 -122 -31 -106.5 Q-16 -91 -8 -57 L108 481 Z " />
<glyph glyph-name="uni0259" unicode="&#x259;" horiz-adv-x="532" d="M10 195 Q10 218 12 234 Q14 250 18 264 L389 264 Q389 295 382.5 322 Q376 349 361 369 Q346 389 321 401 Q296 413 258 413 Q209 413 172.5 390 Q136 367 116 332 L44 370 Q75 427 132.5 461.5 Q190 496 263 496 Q317 496 357 478.5 Q397 461 423.5 430.5 Q450 400 463.5 359.5 Q477 319 477 273 Q477 205 457 152 Q437 99 402.5 61.5 Q368 24 322 4.5 Q276 -15 223 -15 Q174 -15 134.5 1.5 Q95 18 67.5 46.5 Q40 75 25 113 Q10 151 10 195 Z M104 188 Q103 185 103 182 Q103 179 103 177 Q103 128 136.5 97.5 Q170 67 225 67 Q247 67 270 73.5 Q293 80 314 94 Q335 108 351.5 131.5 Q368 155 377 188 L104 188 Z " />
<glyph glyph-name="circumflex" unicode="&#x2c6;" horiz-adv-x="355" d="M65 545 L196 684 L309 684 L380 545 L295 545 L243 626 L155 545 L65 545 Z " />
<glyph glyph-name="caron" unicode="&#x2c7;" horiz-adv-x="355" d="M380 687 L250 545 L135 545 L65 687 L149 687 L201 606 L289 687 L380 687 Z " />
<glyph glyph-name="uni02C9" unicode="&#x2c9;" horiz-adv-x="330" d="M65 577 L82 658 L355 658 L338 577 L65 577 Z " />
<glyph glyph-name="breve" unicode="&#x2d8;" horiz-adv-x="335" d="M187 544 Q157 544 134 553.5 Q111 563 96 579.5 Q81 596 73 617 Q65 638 65 661 Q65 674 68 688 L137 688 Q136 685 136 682.5 Q136 680 136 679 Q136 669 139 659.5 Q142 650 149 642 Q156 634 168 629 Q180 624 197 624 Q216 624 230.5 630 Q245 636 255.5 645.5 Q266 655 273 666 Q280 677 283 688 L360 688 Q354 661 340.5 635.5 Q327 610 305.5 589.5 Q284 569 254.5 556.5 Q225 544 187 544 Z " />
<glyph glyph-name="dotaccent" unicode="&#x2d9;" horiz-adv-x="169" d="M65 608 Q65 635 85.5 657.5 Q106 680 136 680 Q162 680 178 663 Q194 646 194 623 Q194 608 188 595 Q182 582 172.5 572.5 Q163 563 150 557 Q137 551 123 551 Q97 551 81 567.5 Q65 584 65 608 Z " />
<glyph glyph-name="ring" unicode="&#x2da;" horiz-adv-x="265" d="M187 750 Q209 750 227.5 742 Q246 734 260 720.5 Q274 707 282 689 Q290 671 290 650 Q290 627 280.5 605.5 Q271 584 254.5 567.5 Q238 551 216 541 Q194 531 170 531 Q126 531 95.5 559 Q65 587 65 629 Q65 656 75.5 678.5 Q86 701 103 716.5 Q120 732 142 741 Q164 750 187 750 Z M129 637 Q129 617 140.5 606 Q152 595 172 595 Q193 595 208.5 608.5 Q224 622 224 645 Q224 663 212 675 Q200 687 180 687 Q161 687 145 673.5 Q129 660 129 637 Z " />
<glyph glyph-name="ogonek" unicode="&#x2db;" horiz-adv-x="233" d="M27 -216 Q-15 -216 -40.5 -193 Q-66 -170 -66 -132 Q-66 -101 -53 -76.5 Q-40 -52 -21 -34 Q-2 -16 20 -4 Q42 8 61 16 L123 0 Q106 -7 87.5 -17.5 Q69 -28 52.5 -41.5 Q36 -55 25.5 -71.5 Q15 -88 15 -109 Q15 -129 28 -138 Q41 -147 59 -147 Q64 -147 71 -146.5 Q78 -146 92 -144 L78 -208 Q67 -212 56.5 -214 Q46 -216 27 -216 Z " />
<glyph glyph-name="tilde" unicode="&#x2dc;" horiz-adv-x="378" d="M65 554 Q69 588 79.5 612 Q90 636 105 651 Q120 666 139 673 Q158 680 179 680 Q200 680 217 672.5 Q234 665 247 656 L259 648 Q268 642 276 638 Q284 634 295 634 Q309 634 319 644 Q329 654 334 678 L403 678 Q391 607 361 579.5 Q331 552 290 552 Q269 552 252 559.5 Q235 567 222 576 L210 584 Q201 590 193 594 Q185 598 174 598 Q160 598 150 588 Q140 578 135 554 L65 554 Z " />
<glyph glyph-name="hungarumlaut" unicode="&#x2dd;" horiz-adv-x="374" d="M134 543 L65 543 L147 689 L255 689 L134 543 Z M268 543 L199 543 L291 689 L399 689 L268 543 Z " />
<glyph glyph-name="uni0394" unicode="&#x394;" horiz-adv-x="657" d="M304 597 L114 90 L497 90 L304 597 Z M253 709 L358 709 L637 0 L-25 0 L253 709 Z " />
<glyph glyph-name="uni03A9" unicode="&#x3a9;" horiz-adv-x="816" d="M408 636 Q362 636 316.5 620 Q271 604 235 572.5 Q199 541 177 495 Q155 449 155 388 Q155 334 174 290 Q193 246 223 213.5 Q253 181 290.5 160.5 Q328 140 365 132 L365 0 L60 0 L60 88 L259 88 Q221 102 184 128.5 Q147 155 118.5 193.5 Q90 232 72.5 280.5 Q55 329 55 387 Q55 466 84.5 529 Q114 592 162.5 635 Q211 678 275 701 Q339 724 408 724 Q477 724 541 701 Q605 678 653.5 635 Q702 592 731.5 529 Q761 466 761 387 Q761 329 743.5 280.5 Q726 232 697 193.5 Q668 155 631.5 128.5 Q595 102 556 88 L756 88 L756 0 L451 0 L451 132 Q488 140 525.5 160.5 Q563 181 593 213.5 Q623 246 642 290 Q661 334 661 388 Q661 449 639 495 Q617 541 581 572.5 Q545 604 499.5 620 Q454 636 408 636 Z " />
<glyph glyph-name="uni03BC" unicode="&#x3bc;" horiz-adv-x="577" d="M65 481 L160 481 L160 192 Q160 167 166 144.5 Q172 122 185 105 Q198 88 218.5 78 Q239 68 269 68 Q326 68 354.5 102 Q383 136 383 191 L383 481 L477 481 L477 89 Q477 54 479 30 Q481 6 482 0 L392 0 Q390 8 389 25.5 Q388 43 388 58 Q368 20 328 2.5 Q288 -15 246 -15 Q197 -15 159 5 L159 -190 L65 -190 L65 481 Z " />
<glyph glyph-name="pi" unicode="&#x3c0;" horiz-adv-x="625" d="M480 122 Q480 95 495.5 84 Q511 73 534 73 Q542 73 549.5 74 Q557 75 565 77 L565 5 Q556 1 541.5 -3 Q527 -7 504 -7 Q473 -7 451 3 Q429 13 414.5 29.5 Q400 46 393 67.5 Q386 89 386 112 L386 399 L221 399 L221 0 L127 0 L127 399 L45 399 L45 481 L563 481 L563 399 L480 399 L480 122 Z " />
<glyph glyph-name="Wgrave" unicode="&#x1e80;" horiz-adv-x="952" d="M411 878 L529 878 L604 759 L518 759 L411 878 Z M598 709 L661 148 L913 709 L1012 709 L685 0 L588 0 L525 575 L245 0 L145 0 L90 709 L185 709 L224 154 L495 709 L598 709 Z " />
<glyph glyph-name="wgrave" unicode="&#x1e81;" horiz-adv-x="768" d="M277 689 L389 689 L445 543 L371 543 L277 689 Z M448 481 L494 122 L675 481 L778 481 L523 0 L426 0 L378 364 L188 0 L89 0 L40 481 L130 481 L161 123 L349 481 L448 481 Z " />
<glyph glyph-name="Wacute" unicode="&#x1e82;" horiz-adv-x="952" d="M568 759 L471 759 L590 878 L721 878 L568 759 Z M598 709 L661 148 L913 709 L1012 709 L685 0 L588 0 L525 575 L245 0 L145 0 L90 709 L185 709 L224 154 L495 709 L598 709 Z " />
<glyph glyph-name="wacute" unicode="&#x1e83;" horiz-adv-x="768" d="M445 543 L361 543 L476 689 L600 689 L445 543 Z M448 481 L494 122 L675 481 L778 481 L523 0 L426 0 L378 364 L188 0 L89 0 L40 481 L130 481 L161 123 L349 481 L448 481 Z " />
<glyph glyph-name="Wdieresis" unicode="&#x1e84;" horiz-adv-x="952" d="M337 813 Q337 842 356 860 Q375 878 403 878 Q426 878 440.5 863 Q455 848 455 826 Q455 797 435.5 778.5 Q416 760 390 760 Q367 760 352 775 Q337 790 337 813 Z M642 813 Q642 842 661 860 Q680 878 708 878 Q731 878 745.5 863 Q760 848 760 826 Q760 797 740.5 778.5 Q721 760 695 760 Q672 760 657 775 Q642 790 642 813 Z M598 709 L661 148 L913 709 L1012 709 L685 0 L588 0 L525 575 L245 0 L145 0 L90 709 L185 709 L224 154 L495 709 L598 709 Z " />
<glyph glyph-name="wdieresis" unicode="&#x1e85;" horiz-adv-x="768" d="M243 614 Q243 640 262 659.5 Q281 679 307 679 Q331 679 345.5 663 Q360 647 360 626 Q360 598 339.5 580.5 Q319 563 294 563 Q272 563 257.5 578 Q243 593 243 614 Z M478 614 Q478 640 497 659.5 Q516 679 542 679 Q566 679 580.5 663 Q595 647 595 626 Q595 598 574.5 580.5 Q554 563 529 563 Q507 563 492.5 578 Q478 593 478 614 Z M448 481 L494 122 L675 481 L778 481 L523 0 L426 0 L378 364 L188 0 L89 0 L40 481 L130 481 L161 123 L349 481 L448 481 Z " />
<glyph glyph-name="uni1E8A" unicode="&#x1e8a;" horiz-adv-x="627" d="M67 0 L-55 0 L256 356 L94 709 L201 709 L324 434 L559 709 L682 709 L367 348 L528 0 L420 0 L299 270 L67 0 Z M317 814 Q317 843 337.5 863.5 Q358 884 387 884 Q413 884 429.5 867 Q446 850 446 827 Q446 812 440 799 Q434 786 424.5 776.5 Q415 767 402 761 Q389 755 375 755 Q349 755 333 772 Q317 789 317 814 Z " />
<glyph glyph-name="uni1E8B" unicode="&#x1e8b;" horiz-adv-x="495" d="M56 0 L-65 0 L170 246 L44 481 L147 481 Q168 439 189.5 397.5 Q211 356 233 314 L385 481 L505 481 L278 243 Q311 182 343 121.5 Q375 61 409 0 L306 0 L215 174 L56 0 Z M218 608 Q218 635 238.5 657.5 Q259 680 289 680 Q315 680 331 663 Q347 646 347 623 Q347 608 341 595 Q335 582 325.5 572.5 Q316 563 303 557 Q290 551 276 551 Q250 551 234 567.5 Q218 584 218 608 Z " />
<glyph glyph-name="Ygrave" unicode="&#x1ef2;" horiz-adv-x="611" d="M95 709 L198 709 L321 398 L549 709 L666 709 L353 299 L291 0 L193 0 L257 305 L95 709 Z M228 878 L346 878 L421 759 L335 759 L228 878 Z " />
<glyph glyph-name="ygrave" unicode="&#x1ef3;" horiz-adv-x="504" d="M175 689 L287 689 L343 543 L269 543 L175 689 Z M-30 -190 L151 83 L33 481 L135 481 L220 179 L408 481 L519 481 L78 -190 L-30 -190 Z " />
<glyph glyph-name="uni2007" unicode="&#x2007;" horiz-adv-x="604" d="" />
<glyph glyph-name="uni2008" unicode="&#x2008;" horiz-adv-x="262" d="" />
<glyph glyph-name="uni200B" unicode="&#x200b;" d="" />
<glyph glyph-name="endash" unicode="&#x2013;" horiz-adv-x="639" d="M40 246 L57 328 L569 328 L552 246 L40 246 Z " />
<glyph glyph-name="emdash" unicode="&#x2014;" horiz-adv-x="1100" d="M50 246 L67 328 L1020 328 L1003 246 L50 246 Z " />
<glyph glyph-name="quoteleft" unicode="&#x2018;" horiz-adv-x="234" d="M226 518 Q226 488 204.5 467.5 Q183 447 151 447 Q122 447 101 466.5 Q80 486 80 523 Q80 559 94 593.5 Q108 628 132.5 655 Q157 682 191 699 Q225 716 264 718 L254 668 Q215 661 185 633.5 Q155 606 147 571 Q149 573 155.5 574 Q162 575 168 575 Q192 575 209 559.5 Q226 544 226 518 Z " />
<glyph glyph-name="quoteright" unicode="&#x2019;" horiz-adv-x="219" d="M103 647 Q103 677 124.5 697.5 Q146 718 178 718 Q207 718 228 698.5 Q249 679 249 642 Q249 606 235 571.5 Q221 537 196.5 510 Q172 483 138 466 Q104 449 65 447 L75 497 Q114 504 144 531.5 Q174 559 182 594 Q180 592 173.5 591 Q167 590 161 590 Q137 590 120 605.5 Q103 621 103 647 Z " />
<glyph glyph-name="quotesinglbase" unicode="&#x201a;" horiz-adv-x="224" d="M-17 52 Q-17 82 4.5 102.5 Q26 123 58 123 Q87 123 108 103.5 Q129 84 129 47 Q129 11 115 -23.5 Q101 -58 76.5 -85 Q52 -112 18 -129 Q-16 -146 -55 -148 L-45 -98 Q-6 -91 24 -63.5 Q54 -36 62 -1 Q60 -3 53.5 -4 Q47 -5 41 -5 Q17 -5 0 10.5 Q-17 26 -17 52 Z " />
<glyph glyph-name="quotedblleft" unicode="&#x201c;" horiz-adv-x="408" d="M401 526 Q401 497 381 477.5 Q361 458 329 458 Q301 458 281 477 Q261 496 261 531 Q261 566 274.5 598.5 Q288 631 311.5 656.5 Q335 682 367.5 698.5 Q400 715 438 718 L428 670 Q410 667 393 658 Q376 649 362 636 Q348 623 338.5 608 Q329 593 325 577 Q327 579 333 579.5 Q339 580 345 580 Q368 580 384.5 566 Q401 552 401 526 Z M220 526 Q220 497 200 477.5 Q180 458 148 458 Q120 458 100 477 Q80 496 80 531 Q80 566 93.5 598.5 Q107 631 130.5 656.5 Q154 682 186.5 698.5 Q219 715 257 718 L247 670 Q229 667 212 658 Q195 649 181 636 Q167 623 157.5 608 Q148 593 144 577 Q146 579 152 579.5 Q158 580 164 580 Q187 580 203.5 566 Q220 552 220 526 Z " />
<glyph glyph-name="quotedblright" unicode="&#x201d;" horiz-adv-x="393" d="M102 647 Q102 676 122.5 695.5 Q143 715 174 715 Q202 715 222 696 Q242 677 242 642 Q242 607 228.5 574 Q215 541 191.5 515.5 Q168 490 135.5 473.5 Q103 457 65 455 L75 503 Q112 510 141 536.5 Q170 563 178 596 Q176 594 170 593.5 Q164 593 158 593 Q135 593 118.5 607 Q102 621 102 647 Z M283 647 Q283 676 303.5 695.5 Q324 715 355 715 Q383 715 403 696 Q423 677 423 642 Q423 607 409.5 574 Q396 541 372.5 515.5 Q349 490 316.5 473.5 Q284 457 246 455 L256 503 Q293 510 322 536.5 Q351 563 359 596 Q357 594 351 593.5 Q345 593 339 593 Q316 593 299.5 607 Q283 621 283 647 Z " />
<glyph glyph-name="quotedblbase" unicode="&#x201e;" horiz-adv-x="388" d="M-18 50 Q-18 79 2.5 98.5 Q23 118 54 118 Q82 118 102 99 Q122 80 122 45 Q122 10 108.5 -23 Q95 -56 71.5 -81.5 Q48 -107 15.5 -123.5 Q-17 -140 -55 -142 L-45 -94 Q-8 -87 21 -60.5 Q50 -34 58 -1 Q56 -3 50 -3.5 Q44 -4 38 -4 Q15 -4 -1.5 10 Q-18 24 -18 50 Z M153 50 Q153 79 173.5 98.5 Q194 118 225 118 Q253 118 273 99 Q293 80 293 45 Q293 10 279.5 -23 Q266 -56 242.5 -81.5 Q219 -107 186.5 -123.5 Q154 -140 116 -142 L126 -94 Q163 -87 192 -60.5 Q221 -34 229 -1 Q227 -3 221 -3.5 Q215 -4 209 -4 Q186 -4 169.5 10 Q153 24 153 50 Z " />
<glyph glyph-name="dagger" unicode="&#x2020;" horiz-adv-x="414" d="M318 709 L286 560 L414 560 L396 479 L269 479 L202 162 L120 162 L187 479 L60 479 L78 560 L204 560 L236 709 L318 709 Z " />
<glyph glyph-name="daggerdbl" unicode="&#x2021;" horiz-adv-x="434" d="M96 0 L127 149 L0 149 L17 230 L144 230 L197 479 L70 479 L88 560 L214 560 L246 709 L328 709 L296 560 L424 560 L406 479 L279 479 L226 230 L353 230 L336 149 L209 149 L178 0 L96 0 Z " />
<glyph glyph-name="bullet" unicode="&#x2022;" horiz-adv-x="559" d="M60 289 Q60 332 76.5 370 Q93 408 121 436 Q149 464 186.5 480.5 Q224 497 267 497 Q310 497 347.5 480.5 Q385 464 413 436 Q441 408 457.5 370 Q474 332 474 289 Q474 247 457.5 209 Q441 171 413 143 Q385 115 347.5 98.5 Q310 82 267 82 Q224 82 186.5 98.5 Q149 115 121 143 Q93 171 76.5 209 Q60 247 60 289 Z " />
<glyph glyph-name="ellipsis" unicode="&#x2026;" horiz-adv-x="871" d="M76 -5 Q48 -5 31.5 12 Q15 29 15 52 Q15 81 36.5 103 Q58 125 88 125 Q116 125 132 108 Q148 91 148 67 Q148 36 126.5 15.5 Q105 -5 76 -5 Z M367 -5 Q339 -5 322.5 12 Q306 29 306 52 Q306 81 327.5 103 Q349 125 379 125 Q407 125 423 108 Q439 91 439 67 Q439 36 417.5 15.5 Q396 -5 367 -5 Z M659 -5 Q631 -5 614.5 12 Q598 29 598 52 Q598 81 619.5 103 Q641 125 671 125 Q699 125 715 108 Q731 91 731 67 Q731 36 709.5 15.5 Q688 -5 659 -5 Z " />
<glyph glyph-name="perthousand" unicode="&#x2030;" horiz-adv-x="1011" d="M208 422 Q241 422 267 446.5 Q293 471 293 513 Q293 543 274 561.5 Q255 580 223 580 Q207 580 192 573.5 Q177 567 165.5 555 Q154 543 147 526.5 Q140 510 140 491 Q140 461 158 441.5 Q176 422 208 422 Z M200 344 Q169 344 142.5 355 Q116 366 97 385 Q78 404 67.5 429.5 Q57 455 57 485 Q57 520 71 551.5 Q85 583 108.5 607 Q132 631 164 645 Q196 659 232 659 Q263 659 289 648 Q315 637 334.5 617.5 Q354 598 365 572 Q376 546 376 516 Q376 479 361 447.5 Q346 416 321 393 Q296 370 264.5 357 Q233 344 200 344 Z M549 74 Q582 74 608 98.5 Q634 123 634 165 Q634 195 615 213.5 Q596 232 564 232 Q548 232 533 225.5 Q518 219 506.5 207 Q495 195 488 178.5 Q481 162 481 143 Q481 113 499 93.5 Q517 74 549 74 Z M128 0 L31 0 L637 648 L732 648 L128 0 Z M784 74 Q817 74 843 98.5 Q869 123 869 165 Q869 195 850 213.5 Q831 232 799 232 Q783 232 768 225.5 Q753 219 741.5 207 Q730 195 723 178.5 Q716 162 716 143 Q716 113 734 93.5 Q752 74 784 74 Z M776 -4 Q741 -4 712 9.5 Q683 23 664 47 Q639 23 607 9.5 Q575 -4 541 -4 Q510 -4 483.5 7 Q457 18 438 37 Q419 56 408.5 81.5 Q398 107 398 137 Q398 172 412 203.5 Q426 235 449.5 259 Q473 283 505 297 Q537 311 573 311 Q608 311 636 297 Q664 283 684 259 Q708 283 740 297 Q772 311 808 311 Q839 311 865 300 Q891 289 910.5 269.5 Q930 250 941 224 Q952 198 952 168 Q952 131 937 99.5 Q922 68 897 45 Q872 22 840.5 9 Q809 -4 776 -4 Z " />
<glyph glyph-name="guilsinglleft" unicode="&#x2039;" horiz-adv-x="284" d="M113 99 L15 293 L186 481 L289 481 L113 284 L206 99 L113 99 Z " />
<glyph glyph-name="guilsinglright" unicode="&#x203a;" horiz-adv-x="284" d="M141 481 L239 287 L68 99 L-35 99 L141 296 L48 481 L141 481 Z " />
<glyph glyph-name="uni2042" unicode="&#x2042;" horiz-adv-x="814" d="M488.746 588.462 L606.027 626.332 L614.146 561.411 L495.061 522.64 L550.995 429.767 L492.355 388.29 L435.519 486.573 L344.4 389.192 L293.879 430.669 L386.802 526.246 L282.151 563.215 L313.727 626.332 L416.573 587.56 L435.519 709.286 L512.202 709.286 L488.746 588.462 Z M212.746 191.462 L330.027 229.332 L338.146 164.411 L219.061 125.64 L274.995 32.7673 L216.355 -8.70966 L159.519 89.5726 L68.4003 -7.80798 L17.8793 33.6689 L110.802 129.246 L6.15125 166.215 L37.7269 229.332 L140.573 190.56 L159.519 312.286 L236.202 312.286 L212.746 191.462 Z M623.746 191.462 L741.027 229.332 L749.146 164.411 L630.061 125.64 L685.995 32.7673 L627.355 -8.70966 L570.519 89.5726 L479.4 -7.80798 L428.879 33.6689 L521.802 129.246 L417.151 166.215 L448.727 229.332 L551.573 190.56 L570.519 312.286 L647.202 312.286 L623.746 191.462 Z " />
<glyph glyph-name="fraction" unicode="&#x2044;" horiz-adv-x="541" d="M17 0 L-80 0 L526 648 L621 648 L17 0 Z " />
<glyph glyph-name="uni2051" unicode="&#x2051;" horiz-adv-x="441" d="M309.746 588.462 L427.027 626.332 L435.146 561.411 L316.061 522.64 L371.995 429.767 L313.355 388.29 L256.519 486.573 L165.4 389.192 L114.879 430.669 L207.802 526.246 L103.151 563.215 L134.727 626.332 L237.573 587.56 L256.519 709.286 L333.202 709.286 L309.746 588.462 Z M212.746 191.462 L330.027 229.332 L338.146 164.411 L219.061 125.64 L274.995 32.7673 L216.355 -8.70966 L159.519 89.5726 L68.4003 -7.80798 L17.8793 33.6689 L110.802 129.246 L6.15125 166.215 L37.7269 229.332 L140.573 190.56 L159.519 312.286 L236.202 312.286 L212.746 191.462 Z " />
<glyph glyph-name="uni2070" unicode="&#x2070;" horiz-adv-x="411" d="M60 473 Q60 513 70 556 Q80 599 102 634.5 Q124 670 158.5 693 Q193 716 242 716 Q275 716 300 705.5 Q325 695 342 676 Q359 657 367.5 632 Q376 607 376 579 Q376 532 365 488.5 Q354 445 331.5 411.5 Q309 378 275 357.5 Q241 337 195 337 Q137 337 98.5 372.5 Q60 408 60 473 Z M130 475 Q130 446 147 425 Q164 404 199 404 Q227 404 247.5 421.5 Q268 439 280.5 465 Q293 491 299 521 Q305 551 305 577 Q305 604 290.5 626.5 Q276 649 237 649 Q204 649 183.5 628 Q163 607 151 578.5 Q139 550 134.5 520.5 Q130 491 130 475 Z " />
<glyph glyph-name="uni2074" unicode="&#x2074;" horiz-adv-x="427" d="M76 505 L282 709 L370 709 L322 485 L387 485 L373 420 L309 420 Q308 416 306.5 408.5 Q305 401 302 386 Q299 371 293 344 L217 344 L233 420 L60 420 L76 505 Z M277 622 L139 485 L246 485 L277 622 Z " />
<glyph glyph-name="uni2075" unicode="&#x2075;" horiz-adv-x="407" d="M131 463 Q131 439 145.5 421 Q160 403 191 403 Q216 403 237.5 418 Q259 433 259 467 Q259 496 241.5 509.5 Q224 523 200 523 Q172 523 151 507 L87 543 L159 709 L372 709 L359 643 L201 643 L170 571 Q181 578 197.5 580.5 Q214 583 225 583 Q275 583 306 556 Q337 529 337 476 Q337 447 326 421.5 Q315 396 295 377.5 Q275 359 248 348 Q221 337 189 337 Q160 337 135.5 345.5 Q111 354 93 370 Q75 386 65 408 Q55 430 55 456 L131 463 Z " />
<glyph glyph-name="uni2076" unicode="&#x2076;" horiz-adv-x="390" d="M349 637 Q335 645 317.5 649 Q300 653 277 653 Q240 653 204.5 631.5 Q169 610 153 568 Q167 582 189 587 Q211 592 228 592 Q282 592 313.5 562 Q345 532 345 481 Q345 447 332 420 Q319 393 297 374.5 Q275 356 247.5 346.5 Q220 337 191 337 Q165 337 140.5 346 Q116 355 97 373 Q78 391 66.5 418.5 Q55 446 55 483 Q55 530 71 572.5 Q87 615 116 647 Q145 679 186 698 Q227 717 277 717 Q305 717 332 712 Q359 707 376 693 L349 637 Z M207 528 Q178 528 156 509.5 Q134 491 134 460 Q134 432 152 417 Q170 402 196 402 Q221 402 243.5 419 Q266 436 266 473 Q266 498 250 513 Q234 528 207 528 Z " />
<glyph glyph-name="uni2077" unicode="&#x2077;" horiz-adv-x="368" d="M379 645 Q358 630 327.5 606.5 Q297 583 265.5 547 Q234 511 204.5 461 Q175 411 155 344 L75 344 Q90 410 121.5 463 Q153 516 186 554 Q219 592 246.5 615 Q274 638 282 643 L92 643 L105 709 L393 709 L379 645 Z " />
<glyph glyph-name="uni2078" unicode="&#x2078;" horiz-adv-x="396" d="M187 603 Q187 585 199.5 573.5 Q212 562 232 562 Q255 562 275 574 Q295 586 295 614 Q295 630 283.5 641.5 Q272 653 247 655 Q220 655 203.5 641 Q187 627 187 603 Z M142 443 Q142 421 160 409.5 Q178 398 202 398 Q233 398 251.5 413 Q270 428 270 455 Q270 474 255 487 Q240 500 212 500 Q182 500 162 484 Q142 468 142 443 Z M198 337 Q132 337 98.5 365.5 Q65 394 65 436 Q65 468 89.5 495.5 Q114 523 159 534 Q138 542 125 562 Q112 582 112 601 Q112 651 150 683.5 Q188 716 254 716 Q306 716 338.5 690.5 Q371 665 371 624 Q371 595 352 568.5 Q333 542 295 528 Q317 520 332 499 Q347 478 347 456 Q347 429 335.5 407.5 Q324 386 303.5 370 Q283 354 256 345.5 Q229 337 198 337 Z " />
<glyph glyph-name="uni2079" unicode="&#x2079;" horiz-adv-x="407" d="M80 430 Q98 417 119.5 411 Q141 405 164 405 Q182 405 200 410.5 Q218 416 233.5 426.5 Q249 437 261 453.5 Q273 470 278 493 Q264 477 243.5 469.5 Q223 462 206 462 Q153 462 117 493 Q81 524 81 577 Q81 610 93.5 636 Q106 662 127.5 680 Q149 698 176.5 707.5 Q204 717 234 717 Q260 717 284 709 Q308 701 326.5 683.5 Q345 666 356 640 Q367 614 367 578 Q367 527 354 483 Q341 439 315 406.5 Q289 374 250.5 356 Q212 338 160 338 Q131 338 100 347.5 Q69 357 50 373 L80 430 Z M217 525 Q246 525 266 545 Q286 565 286 597 Q286 623 269 638 Q252 653 229 653 Q203 653 181.5 635 Q160 617 160 582 Q160 556 176 540.5 Q192 525 217 525 Z " />
<glyph glyph-name="uni2080" unicode="&#x2080;" horiz-adv-x="411" d="M26 58 Q26 98 36 141 Q46 184 68 219.5 Q90 255 124.5 278 Q159 301 208 301 Q241 301 266 290.5 Q291 280 308 261 Q325 242 333.5 217 Q342 192 342 164 Q342 117 331 73.5 Q320 30 297.5 -3.5 Q275 -37 241 -57.5 Q207 -78 161 -78 Q103 -78 64.5 -42.5 Q26 -7 26 58 Z M96 60 Q96 31 113 10 Q130 -11 165 -11 Q193 -11 213.5 6.5 Q234 24 246.5 50 Q259 76 265 106 Q271 136 271 162 Q271 189 256.5 211.5 Q242 234 203 234 Q170 234 149.5 213 Q129 192 117 163.5 Q105 135 100.5 105.5 Q96 76 96 60 Z " />
<glyph glyph-name="uni2081" unicode="&#x2081;" horiz-adv-x="290" d="M60 -71 L116 179 L36 179 L46 230 Q83 232 110 249.5 Q137 267 148 294 L216 294 L137 -71 L60 -71 Z " />
<glyph glyph-name="uni2082" unicode="&#x2082;" horiz-adv-x="381" d="M179 123 Q236 148 236 188 Q236 205 223.5 220.5 Q211 236 185 236 Q156 236 137.5 217.5 Q119 199 119 159 L44 159 Q44 228 84 264 Q124 300 187 300 Q218 300 242 291 Q266 282 282 267 Q298 252 306 232.5 Q314 213 314 192 Q314 148 288 117 Q262 86 218 67 L142 34 Q123 26 114 15.5 Q105 5 100 -6 L284 -6 L270 -71 L-4 -71 Q2 -12 31 29 Q60 70 116 95 L179 123 Z " />
<glyph glyph-name="uni2083" unicode="&#x2083;" horiz-adv-x="425" d="M113 161 L227 230 L67 230 L81 295 L341 295 L327 221 L213 154 Q249 147 273.5 119.5 Q298 92 298 55 Q298 29 288 5.5 Q278 -18 259.5 -36.5 Q241 -55 213.5 -66 Q186 -77 151 -77 Q124 -77 99.5 -69 Q75 -61 56.5 -46.5 Q38 -32 27 -10.5 Q16 11 16 38 Q16 47 18 57 L87 62 Q86 58 86 51 Q86 26 103.5 7.5 Q121 -11 150 -11 Q180 -11 201 5 Q222 21 222 53 Q222 78 204 91.5 Q186 105 163 105 Q149 105 139 101 L113 161 Z " />
<glyph glyph-name="uni2084" unicode="&#x2084;" horiz-adv-x="427" d="M22 90 L228 294 L316 294 L268 70 L333 70 L319 5 L255 5 Q254 1 252.5 -6.5 Q251 -14 248 -29 Q245 -44 239 -71 L163 -71 L179 5 L6 5 L22 90 Z M223 207 L85 70 L192 70 L223 207 Z " />
<glyph glyph-name="uni2085" unicode="&#x2085;" horiz-adv-x="407" d="M82 48 Q82 24 96.5 6 Q111 -12 142 -12 Q167 -12 188.5 3 Q210 18 210 52 Q210 81 192.5 94.5 Q175 108 151 108 Q123 108 102 92 L38 128 L110 294 L323 294 L310 228 L152 228 L121 156 Q132 163 148.5 165.5 Q165 168 176 168 Q226 168 257 141 Q288 114 288 61 Q288 32 277 6.5 Q266 -19 246 -37.5 Q226 -56 199 -67 Q172 -78 140 -78 Q111 -78 86.5 -69.5 Q62 -61 44 -45 Q26 -29 16 -7 Q6 15 6 41 L82 48 Z " />
<glyph glyph-name="uni2086" unicode="&#x2086;" horiz-adv-x="390" d="M300 222 Q286 230 268.5 234 Q251 238 228 238 Q191 238 155.5 216.5 Q120 195 104 153 Q118 167 140 172 Q162 177 179 177 Q233 177 264.5 147 Q296 117 296 66 Q296 32 283 5 Q270 -22 248 -40.5 Q226 -59 198.5 -68.5 Q171 -78 142 -78 Q116 -78 91.5 -69 Q67 -60 48 -42 Q29 -24 17.5 3.5 Q6 31 6 68 Q6 115 22 157.5 Q38 200 67 232 Q96 264 137 283 Q178 302 228 302 Q256 302 283 297 Q310 292 327 278 L300 222 Z M158 113 Q129 113 107 94.5 Q85 76 85 45 Q85 17 103 2 Q121 -13 147 -13 Q172 -13 194.5 4 Q217 21 217 58 Q217 83 201 98 Q185 113 158 113 Z " />
<glyph glyph-name="uni2087" unicode="&#x2087;" horiz-adv-x="368" d="M330 230 Q309 215 278.5 191.5 Q248 168 216.5 132 Q185 96 155.5 46 Q126 -4 106 -71 L26 -71 Q41 -5 72.5 48 Q104 101 137 139 Q170 177 197.5 200 Q225 223 233 228 L43 228 L56 294 L344 294 L330 230 Z " />
<glyph glyph-name="uni2088" unicode="&#x2088;" horiz-adv-x="396" d="M138 188 Q138 170 150.5 158.5 Q163 147 183 147 Q206 147 226 159 Q246 171 246 199 Q246 215 234.5 226.5 Q223 238 198 240 Q171 240 154.5 226 Q138 212 138 188 Z M93 28 Q93 6 111 -5.5 Q129 -17 153 -17 Q184 -17 202.5 -2 Q221 13 221 40 Q221 59 206 72 Q191 85 163 85 Q133 85 113 69 Q93 53 93 28 Z M149 -78 Q83 -78 49.5 -49.5 Q16 -21 16 21 Q16 53 40.5 80.5 Q65 108 110 119 Q89 127 76 147 Q63 167 63 186 Q63 236 101 268.5 Q139 301 205 301 Q257 301 289.5 275.5 Q322 250 322 209 Q322 180 303 153.5 Q284 127 246 113 Q268 105 283 84 Q298 63 298 41 Q298 14 286.5 -7.5 Q275 -29 254.5 -45 Q234 -61 207 -69.5 Q180 -78 149 -78 Z " />
<glyph glyph-name="uni2089" unicode="&#x2089;" horiz-adv-x="407" d="M46 15 Q64 2 85.5 -4 Q107 -10 130 -10 Q148 -10 166 -4.5 Q184 1 199.5 11.5 Q215 22 227 38.5 Q239 55 244 78 Q230 62 209.5 54.5 Q189 47 172 47 Q119 47 83 78 Q47 109 47 162 Q47 195 59.5 221 Q72 247 93.5 265 Q115 283 142.5 292.5 Q170 302 200 302 Q226 302 250 294 Q274 286 292.5 268.5 Q311 251 322 225 Q333 199 333 163 Q333 112 320 68 Q307 24 281 -8.5 Q255 -41 216.5 -59 Q178 -77 126 -77 Q97 -77 66 -67.5 Q35 -58 16 -42 L46 15 Z M183 110 Q212 110 232 130 Q252 150 252 182 Q252 208 235 223 Q218 238 195 238 Q169 238 147.5 220 Q126 202 126 167 Q126 141 142 125.5 Q158 110 183 110 Z " />
<glyph glyph-name="Euro" unicode="&#x20ac;" horiz-adv-x="689" d="M67 443 L154 443 Q178 499 217 540.5 Q256 582 302 609 Q348 636 398 649.5 Q448 663 495 663 Q557 663 609 645.5 Q661 628 694 596 L637 525 Q611 550 571.5 563.5 Q532 577 487 577 Q455 577 423 569 Q391 561 361 544.5 Q331 528 305 502.5 Q279 477 260 443 L576 443 L522 365 L230 365 Q225 345 222.5 325 Q220 305 220 282 L475 282 L421 202 L231 202 Q252 137 306.5 103.5 Q361 70 432 70 Q470 70 503.5 79 Q537 88 566 108 L599 34 Q524 -15 422 -15 Q373 -15 326.5 -0.5 Q280 14 240.5 41.5 Q201 69 172.5 109.5 Q144 150 131 202 L15 202 L32 282 L122 282 Q122 304 124 324.5 Q126 345 130 365 L50 365 L67 443 Z " />
<glyph glyph-name="uni2113" unicode="&#x2113;" horiz-adv-x="470" d="M96 127 Q96 139 98.5 155 Q101 171 104 187 Q107 203 110 217 Q113 231 115 239 Q98 235 80.5 233 Q63 231 45 229 L63 316 Q80 319 98.5 323.5 Q117 328 136 335 L184 565 Q198 634 238.5 671.5 Q279 709 334 709 Q393 709 424 677 Q455 645 455 591 Q455 548 438 503 Q421 458 390 415.5 Q359 373 315 336.5 Q271 300 217 274 L197 179 Q195 171 193.5 159.5 Q192 148 192 142 Q192 108 212 95 Q232 82 263 82 Q295 82 313.5 90 Q332 98 339 103 L321 18 Q315 11 294.5 3 Q274 -5 246 -5 Q207 -5 178.5 5 Q150 15 131.5 33 Q113 51 104.5 75 Q96 99 96 127 Z M242 391 Q293 426 327 475.5 Q361 525 361 586 Q361 603 353.5 612.5 Q346 622 329 622 Q312 622 298.5 607.5 Q285 593 277 556 L242 391 Z " />
<glyph glyph-name="trademark" unicode="&#x2122;" horiz-adv-x="874" d="M252 641 L189 344 L113 344 L176 641 L64 641 L78 709 L378 709 L364 641 L252 641 Z M698 344 L747 577 L600 344 L541 344 L489 574 L440 344 L364 344 L441 709 L532 709 L588 455 L746 709 L847 709 L770 344 L698 344 Z " />
<glyph glyph-name="Omega" unicode="&#x2126;" horiz-adv-x="816" d="M408 636 Q362 636 316.5 620 Q271 604 235 572.5 Q199 541 177 495 Q155 449 155 388 Q155 334 174 290 Q193 246 223 213.5 Q253 181 290.5 160.5 Q328 140 365 132 L365 0 L60 0 L60 88 L259 88 Q221 102 184 128.5 Q147 155 118.5 193.5 Q90 232 72.5 280.5 Q55 329 55 387 Q55 466 84.5 529 Q114 592 162.5 635 Q211 678 275 701 Q339 724 408 724 Q477 724 541 701 Q605 678 653.5 635 Q702 592 731.5 529 Q761 466 761 387 Q761 329 743.5 280.5 Q726 232 697 193.5 Q668 155 631.5 128.5 Q595 102 556 88 L756 88 L756 0 L451 0 L451 132 Q488 140 525.5 160.5 Q563 181 593 213.5 Q623 246 642 290 Q661 334 661 388 Q661 449 639 495 Q617 541 581 572.5 Q545 604 499.5 620 Q454 636 408 636 Z " />
<glyph glyph-name="uni2160" unicode="&#x2160;" horiz-adv-x="493" d="M508 648 L490 560 L339 560 L239 88 L389 88 L371 0 L-25 0 L-7 88 L143 88 L243 560 L94 560 L112 648 L508 648 Z " />
<glyph glyph-name="uni2161" unicode="&#x2161;" horiz-adv-x="757" d="M772 648 L754 560 L613 560 L513 88 L653 88 L635 0 L-25 0 L-7 88 L133 88 L233 560 L94 560 L112 648 L772 648 Z M417 88 L517 560 L329 560 L229 88 L417 88 Z " />
<glyph glyph-name="uni2162" unicode="&#x2162;" horiz-adv-x="1031" d="M791 560 L608 560 L509 88 L692 88 L791 560 Z M512 560 L329 560 L230 88 L413 88 L512 560 Z M-7 88 L134 88 L233 560 L94 560 L112 648 L1046 648 L1028 560 L887 560 L788 88 L927 88 L909 0 L-25 0 L-7 88 Z " />
<glyph glyph-name="uni2163" unicode="&#x2163;" horiz-adv-x="982" d="M112 648 L1007 648 L989 560 L874 560 L610 88 L889 88 L871 0 L-25 0 L-7 88 L123 88 L223 560 L94 560 L112 648 Z M219 88 L460 88 L399 560 L319 560 L219 88 Z M548 141 L774 560 L502 560 L548 141 Z " />
<glyph glyph-name="uni2164" unicode="&#x2164;" horiz-adv-x="765" d="M248 88 L187 560 L79 560 L97 648 L790 648 L772 560 L662 560 L398 88 L667 88 L649 0 L-35 0 L-17 88 L248 88 Z M336 141 L562 560 L290 560 L336 141 Z " />
<glyph glyph-name="uni2165" unicode="&#x2165;" horiz-adv-x="982" d="M102 648 L997 648 L979 560 L849 560 L749 88 L879 88 L861 0 L-35 0 L-17 88 L258 88 L197 560 L84 560 L102 648 Z M408 88 L653 88 L753 560 L672 560 L408 88 Z M346 141 L572 560 L300 560 L346 141 Z " />
<glyph glyph-name="uni2166" unicode="&#x2166;" horiz-adv-x="1270" d="M572 560 L300 560 L345 141 L572 560 Z M752 560 L671 560 L408 88 L653 88 L752 560 Z M1030 560 L848 560 L749 88 L931 88 L1030 560 Z M-35 0 L-17 88 L257 88 L198 560 L83 560 L101 648 L1284 648 L1266 560 L1126 560 L1027 88 L1166 88 L1148 0 L-35 0 Z " />
<glyph glyph-name="uni2167" unicode="&#x2167;" horiz-adv-x="1529" d="M112 648 L1544 648 L1526 560 L1390 560 L1290 88 L1425 88 L1407 0 L-25 0 L-7 88 L263 88 L207 560 L94 560 L112 648 Z M752 88 L925 88 L1025 560 L852 560 L752 88 Z M1021 88 L1194 88 L1294 560 L1121 560 L1021 88 Z M413 88 L656 88 L756 560 L672 560 L413 88 Z M351 141 L573 560 L309 560 L351 141 Z " />
</font>
</svg>
